<?xml version="1.0" encoding="UTF-8" standalone="no"?>
<!-- Created with Inkscape (http://www.inkscape.org/) -->

<svg
   width="27.236628mm"
   height="27.284916mm"
   viewBox="0 0 27.236628 27.284916"
   version="1.1"
   id="svg5"
   inkscape:version="1.2.2 (732a01da63, 2022-12-09)"
   sodipodi:docname="icon-contact.svg"
   xmlns:inkscape="http://www.inkscape.org/namespaces/inkscape"
   xmlns:sodipodi="http://sodipodi.sourceforge.net/DTD/sodipodi-0.dtd"
   xmlns="http://www.w3.org/2000/svg"
   xmlns:svg="http://www.w3.org/2000/svg">
  <sodipodi:namedview
     id="namedview7"
     pagecolor="#505050"
     bordercolor="#eeeeee"
     borderopacity="1"
     inkscape:showpageshadow="0"
     inkscape:pageopacity="0"
     inkscape:pagecheckerboard="0"
     inkscape:deskcolor="#505050"
     inkscape:document-units="mm"
     showgrid="false"
     inkscape:zoom="1.4568904"
     inkscape:cx="168.16639"
     inkscape:cy="-111.88213"
     inkscape:window-width="1920"
     inkscape:window-height="974"
     inkscape:window-x="-11"
     inkscape:window-y="-11"
     inkscape:window-maximized="1"
     inkscape:current-layer="layer1" />
  <defs
     id="defs2">
    <pattern
       id="EMFhbasepattern"
       patternUnits="userSpaceOnUse"
       width="6"
       height="6"
       x="0"
       y="0" />
  </defs>
  <g
     inkscape:label="Calque 1"
     inkscape:groupmode="layer"
     id="layer1"
     style="stroke-width:3.1;stroke-dasharray:none"
     transform="translate(0.38914031,0.41541262)">
    <g
       id="g855"
       transform="matrix(0.31855596,0,0,0.33659003,-20.110448,-29.070479)"
       style="fill:#ffffff;stroke-width:4.88626;stroke-dasharray:none">
      <path
         style="fill:#ffffff;fill-opacity:1;stroke-width:4.88626;stroke-dasharray:none"
         d="m 64.765106,164.52357 c -0.420515,-0.25204 -0.939468,-0.77615 -1.18738,-1.19918 l -0.440386,-0.75146 -0.0071,-20.00324 c -0.0039,-11.00178 0.04523,-20.38003 0.109226,-20.84054 l 0.11636,-0.83731 20.562988,-17.28706 C 99.938082,90.137561 104.57218,86.328803 104.89083,86.367914 c 0.24121,0.02961 8.7952,7.12953 20.84866,17.304666 l 20.43963,17.25446 0.004,20.84103 0.004,20.84103 -0.51031,0.80468 c -0.33963,0.53554 -0.77154,0.93114 -1.29132,1.18276 l -0.78102,0.37808 -39.04624,-0.002 -39.046246,-0.002 z m 78.333664,-0.95446 c 1.00716,-0.23242 1.6194,-0.9824 1.75674,-2.15197 0.0606,-0.51646 0.0869,-9.40521 0.0584,-19.75278 l -0.0518,-18.81375 -3.26216,2.73791 c -1.7942,1.50585 -3.4797,2.92973 -3.74556,3.16417 -0.26587,0.23444 -0.59398,0.42626 -0.72914,0.42626 -0.13516,0 -0.36435,0.18102 -0.50931,0.40225 -0.30925,0.47199 -1.39839,1.39876 -17.67483,15.04003 -14.26706,11.95722 -12.56851,10.50243 -12.63932,10.82543 -0.0312,0.1422 -0.36932,0.40296 -0.75143,0.57946 -0.61723,0.28511 -0.71167,0.2907 -0.84635,0.05 -0.0834,-0.14899 -0.26667,-0.27088 -0.40733,-0.27088 -0.14065,0 -0.25574,-0.0773 -0.25574,-0.17181 0,-0.0945 -0.2473,-0.29969 -0.54956,-0.456 -0.30226,-0.1563 -7.066852,-5.73363 -15.03242,-12.39406 -7.965568,-6.66043 -14.8796,-12.42542 -15.364516,-12.81109 -0.484917,-0.38568 -1.501565,-1.2535 -2.259218,-1.9285 -2.300483,-2.04951 -6.19645,-5.183 -6.337033,-5.09681 -0.188997,0.11587 -0.156238,38.0968 0.03356,38.91472 0.190778,0.82214 0.77379,1.47922 1.499636,1.69017 0.731173,0.2125 76.148121,0.22933 77.067381,0.0172 z m -33.36872,-13.05382 4.50555,-3.79117 -4.64406,-0.0469 c -2.55422,-0.0258 -6.79177,-0.0258 -9.41676,0 l -4.772715,0.0469 4.686505,3.92412 c 3.06275,2.5645 4.76437,3.87805 4.91122,3.79116 0.12359,-0.0731 2.25221,-1.83897 4.73026,-3.92411 z m 11.18897,-9.39213 c 2.6945,-2.25916 5.29583,-4.42243 5.78075,-4.80726 0.48492,-0.38483 1.55732,-1.29507 2.38311,-2.02274 0.8258,-0.72767 2.87369,-2.46794 4.55089,-3.86725 l 3.04943,-2.54422 -0.0544,-4.69371 c -0.0594,-5.1252 -0.0843,-5.25413 -1.15117,-5.95316 -0.44885,-0.2941 -2.11752,-0.31103 -30.64322,-0.31103 -28.525686,0 -30.194357,0.0169 -30.643212,0.31103 -1.069924,0.70104 -1.092272,0.81865 -1.145604,6.02874 l -0.04882,4.76923 2.728479,2.25335 2.728478,2.25335 23.285429,-0.008 23.28542,-0.008 v 0.70717 0.70718 l -22.41518,0.0447 -22.415176,0.0448 3.838282,3.194 c 3.744951,3.11633 3.849434,3.18817 4.296929,2.95467 0.374714,-0.19553 2.965491,-0.23953 14.157085,-0.24042 8.71269,-7e-4 13.86732,0.0631 14.16245,0.17533 0.37025,0.14077 0.45275,0.2744 0.40823,0.66125 l -0.0558,0.48484 -13.96325,0.0882 -13.963249,0.0882 2.306883,1.93967 2.306882,1.93966 11.165624,-0.0414 11.16562,-0.0414 z M 76.474157,126.4164 c -0.244323,-0.24432 -0.104011,-0.93529 0.225763,-1.11178 0.231065,-0.12366 4.367815,-0.16893 12.651917,-0.13845 l 12.308593,0.0453 0.0608,0.43096 c 0.12813,0.90772 0.36126,0.89154 -12.849306,0.89154 -6.754134,0 -12.333143,-0.0529 -12.397797,-0.11755 z m 0.232795,-5.17476 c -0.284861,-0.28486 -0.320137,-0.43 -0.171855,-0.70706 0.181775,-0.33965 0.398917,-0.34863 8.434338,-0.34863 8.878142,0 8.941763,0.006 8.816829,0.89155 l -0.06083,0.43095 -8.330024,0.0458 c -8.170758,0.0449 -8.336878,0.039 -8.688458,-0.31262 z m 37.211588,-0.52121 c -0.14915,-0.27867 -0.11461,-0.42281 0.16935,-0.70677 0.34924,-0.34924 0.55591,-0.35671 9.86723,-0.35671 5.91667,0 9.68587,0.0667 9.97454,0.17642 0.37024,0.14077 0.45274,0.2744 0.40823,0.66125 l -0.0558,0.48483 -10.08811,0.0455 c -9.9065,0.0447 -10.09148,0.0392 -10.27545,-0.30455 z m -42.159161,1.85711 c -0.02844,-4.13474 -0.01365,-4.3421 0.365486,-5.1253 0.24587,-0.5079 0.665281,-0.995 1.110304,-1.28951 l 0.715176,-0.47328 h 30.884135 30.88413 l 0.62015,0.42493 c 0.34108,0.23372 0.81136,0.70378 1.04508,1.0446 0.41758,0.60895 0.42584,0.69691 0.47749,5.08549 0.0289,2.4562 0.089,4.46582 0.13363,4.46582 0.0446,0 1.47037,-1.1668 3.16842,-2.59287 l 3.08737,-2.59287 -1.01683,-1.03929 c -1.2723,-1.30041 -38.12939,-32.450753 -38.39574,-32.450753 -0.10721,0 -7.929178,6.500088 -17.382145,14.444643 -9.452968,7.94455 -18.271425,15.3441 -19.59657,16.44344 -2.332294,1.93488 -2.776443,2.41465 -2.485396,2.68477 0.432643,0.40153 6.303436,5.27926 6.354067,5.27926 0.03349,0 0.04754,-1.93909 0.03124,-4.30908 z"
         id="path869" />
      <path
         style="fill:#ffffff;fill-opacity:1;stroke-width:4.88626;stroke-dasharray:none"
         d="m 64.765106,164.52357 c -0.420515,-0.25204 -0.939468,-0.77615 -1.18738,-1.19918 l -0.440386,-0.75146 -0.0071,-20.00324 c -0.0039,-11.00178 0.04523,-20.38003 0.109226,-20.84054 l 0.11636,-0.83731 20.562988,-17.28706 C 99.938082,90.137561 104.57218,86.328803 104.89083,86.367914 c 0.24121,0.02961 8.7952,7.12953 20.84866,17.304666 l 20.43963,17.25446 0.004,20.84103 0.004,20.84103 -0.51031,0.80468 c -0.33963,0.53554 -0.77154,0.93114 -1.29132,1.18276 l -0.78102,0.37808 -39.04624,-0.002 -39.046246,-0.002 z m 78.333664,-0.95446 c 1.00716,-0.23242 1.6194,-0.9824 1.75674,-2.15197 0.0606,-0.51646 0.0869,-9.40521 0.0584,-19.75278 l -0.0518,-18.81375 -3.26216,2.73791 c -1.7942,1.50585 -3.4797,2.92973 -3.74556,3.16417 -0.26587,0.23444 -0.59398,0.42626 -0.72914,0.42626 -0.13516,0 -0.36435,0.18102 -0.50931,0.40225 -0.30925,0.47199 -1.39839,1.39876 -17.67483,15.04003 -14.26706,11.95722 -12.56851,10.50243 -12.63932,10.82543 -0.0312,0.1422 -0.36932,0.40296 -0.75143,0.57946 -0.61723,0.28511 -0.71167,0.2907 -0.84635,0.05 -0.0834,-0.14899 -0.26667,-0.27088 -0.40733,-0.27088 -0.14065,0 -0.25574,-0.0773 -0.25574,-0.17181 0,-0.0945 -0.2473,-0.29969 -0.54956,-0.456 -0.30226,-0.1563 -7.066852,-5.73363 -15.03242,-12.39406 -7.965568,-6.66043 -14.8796,-12.42542 -15.364516,-12.81109 -0.484917,-0.38568 -1.501565,-1.2535 -2.259218,-1.9285 -2.300483,-2.04951 -6.19645,-5.183 -6.337033,-5.09681 -0.188997,0.11587 -0.156238,38.0968 0.03356,38.91472 0.190778,0.82214 0.77379,1.47922 1.499636,1.69017 0.731173,0.2125 76.148121,0.22933 77.067381,0.0172 z m -33.36872,-13.05382 4.50555,-3.79117 -4.64406,-0.0469 c -2.55422,-0.0258 -6.79177,-0.0258 -9.41676,0 l -4.772715,0.0469 4.686505,3.92412 c 3.06275,2.5645 4.76437,3.87805 4.91122,3.79116 0.12359,-0.0731 2.25221,-1.83897 4.73026,-3.92411 z m 11.18897,-9.39213 c 2.6945,-2.25916 5.29583,-4.42243 5.78075,-4.80726 0.48492,-0.38483 1.55732,-1.29507 2.38311,-2.02274 0.8258,-0.72767 2.87369,-2.46794 4.55089,-3.86725 l 3.04943,-2.54422 -0.0544,-4.69371 c -0.0594,-5.1252 -0.0843,-5.25413 -1.15117,-5.95316 -0.44885,-0.2941 -2.11752,-0.31103 -30.64322,-0.31103 -28.525686,0 -30.194357,0.0169 -30.643212,0.31103 -1.069924,0.70104 -1.092272,0.81865 -1.145604,6.02874 l -0.04882,4.76923 2.728479,2.25335 2.728478,2.25335 23.285429,-0.008 23.28542,-0.008 v 0.70717 0.70718 l -22.41518,0.0447 -22.415176,0.0448 3.838282,3.194 c 3.744951,3.11633 3.849434,3.18817 4.296929,2.95467 0.374714,-0.19553 2.965491,-0.23953 14.157085,-0.24042 8.71269,-7e-4 13.86732,0.0631 14.16245,0.17533 0.37025,0.14077 0.45275,0.2744 0.40823,0.66125 l -0.0558,0.48484 -13.96325,0.0882 -13.963249,0.0882 2.306883,1.93967 2.306882,1.93966 11.165624,-0.0414 11.16562,-0.0414 z M 76.474157,126.4164 c -0.244323,-0.24432 -0.104011,-0.93529 0.225763,-1.11178 0.231065,-0.12366 4.367815,-0.16893 12.651917,-0.13845 l 12.308593,0.0453 0.0608,0.43096 c 0.12813,0.90772 0.36126,0.89154 -12.849306,0.89154 -6.754134,0 -12.333143,-0.0529 -12.397797,-0.11755 z m 0.232795,-5.17476 c -0.284861,-0.28486 -0.320137,-0.43 -0.171855,-0.70706 0.181775,-0.33965 0.398917,-0.34863 8.434338,-0.34863 8.878142,0 8.941763,0.006 8.816829,0.89155 l -0.06083,0.43095 -8.330024,0.0458 c -8.170758,0.0449 -8.336878,0.039 -8.688458,-0.31262 z m 37.211588,-0.52121 c -0.14915,-0.27867 -0.11461,-0.42281 0.16935,-0.70677 0.34924,-0.34924 0.55591,-0.35671 9.86723,-0.35671 5.91667,0 9.68587,0.0667 9.97454,0.17642 0.37024,0.14077 0.45274,0.2744 0.40823,0.66125 l -0.0558,0.48483 -10.08811,0.0455 c -9.9065,0.0447 -10.09148,0.0392 -10.27545,-0.30455 z m -42.159161,1.85711 c -0.02844,-4.13474 -0.01365,-4.3421 0.365486,-5.1253 0.24587,-0.5079 0.665281,-0.995 1.110304,-1.28951 l 0.715176,-0.47328 h 30.884135 30.88413 l 0.62015,0.42493 c 0.34108,0.23372 0.81136,0.70378 1.04508,1.0446 0.41758,0.60895 0.42584,0.69691 0.47749,5.08549 0.0289,2.4562 0.089,4.46582 0.13363,4.46582 0.0446,0 1.47037,-1.1668 3.16842,-2.59287 l 3.08737,-2.59287 -1.01683,-1.03929 c -1.2723,-1.30041 -38.12939,-32.450753 -38.39574,-32.450753 -0.10721,0 -7.929178,6.500088 -17.382145,14.444643 -9.452968,7.94455 -18.271425,15.3441 -19.59657,16.44344 -2.332294,1.93488 -2.776443,2.41465 -2.485396,2.68477 0.432643,0.40153 6.303436,5.27926 6.354067,5.27926 0.03349,0 0.04754,-1.93909 0.03124,-4.30908 z"
         id="path867" />
      <path
         style="fill:#ffffff;fill-opacity:1;stroke-width:4.88626;stroke-dasharray:none"
         d="m 64.765106,164.52357 c -0.420515,-0.25204 -0.939468,-0.77615 -1.18738,-1.19918 l -0.440386,-0.75146 -0.0071,-20.00324 c -0.0039,-11.00178 0.04523,-20.38003 0.109226,-20.84054 l 0.11636,-0.83731 20.562988,-17.28706 C 99.938082,90.137561 104.57218,86.328803 104.89083,86.367914 c 0.24121,0.02961 8.7952,7.12953 20.84866,17.304666 l 20.43963,17.25446 0.004,20.84103 0.004,20.84103 -0.51031,0.80468 c -0.33963,0.53554 -0.77154,0.93114 -1.29132,1.18276 l -0.78102,0.37808 -39.04624,-0.002 -39.046246,-0.002 z m 78.333664,-0.95446 c 1.00716,-0.23242 1.6194,-0.9824 1.75674,-2.15197 0.0606,-0.51646 0.0869,-9.40521 0.0584,-19.75278 l -0.0518,-18.81375 -3.26216,2.73791 c -1.7942,1.50585 -3.4797,2.92973 -3.74556,3.16417 -0.26587,0.23444 -0.59398,0.42626 -0.72914,0.42626 -0.13516,0 -0.36435,0.18102 -0.50931,0.40225 -0.30925,0.47199 -1.39839,1.39876 -17.67483,15.04003 -14.26706,11.95722 -12.56851,10.50243 -12.63932,10.82543 -0.0312,0.1422 -0.36932,0.40296 -0.75143,0.57946 -0.61723,0.28511 -0.71167,0.2907 -0.84635,0.05 -0.0834,-0.14899 -0.26667,-0.27088 -0.40733,-0.27088 -0.14065,0 -0.25574,-0.0773 -0.25574,-0.17181 0,-0.0945 -0.2473,-0.29969 -0.54956,-0.456 -0.30226,-0.1563 -7.066852,-5.73363 -15.03242,-12.39406 -7.965568,-6.66043 -14.8796,-12.42542 -15.364516,-12.81109 -0.484917,-0.38568 -1.501565,-1.2535 -2.259218,-1.9285 -2.300483,-2.04951 -6.19645,-5.183 -6.337033,-5.09681 -0.188997,0.11587 -0.156238,38.0968 0.03356,38.91472 0.190778,0.82214 0.77379,1.47922 1.499636,1.69017 0.731173,0.2125 76.148121,0.22933 77.067381,0.0172 z m -33.36872,-13.05382 4.50555,-3.79117 -4.64406,-0.0469 c -2.55422,-0.0258 -6.79177,-0.0258 -9.41676,0 l -4.772715,0.0469 4.686505,3.92412 c 3.06275,2.5645 4.76437,3.87805 4.91122,3.79116 0.12359,-0.0731 2.25221,-1.83897 4.73026,-3.92411 z m 11.18897,-9.39213 c 2.6945,-2.25916 5.29583,-4.42243 5.78075,-4.80726 0.48492,-0.38483 1.55732,-1.29507 2.38311,-2.02274 0.8258,-0.72767 2.87369,-2.46794 4.55089,-3.86725 l 3.04943,-2.54422 -0.0544,-4.69371 c -0.0594,-5.1252 -0.0843,-5.25413 -1.15117,-5.95316 -0.44885,-0.2941 -2.11752,-0.31103 -30.64322,-0.31103 -28.525686,0 -30.194357,0.0169 -30.643212,0.31103 -1.069924,0.70104 -1.092272,0.81865 -1.145604,6.02874 l -0.04882,4.76923 2.728479,2.25335 2.728478,2.25335 23.285429,-0.008 23.28542,-0.008 v 0.70717 0.70718 l -22.41518,0.0447 -22.415176,0.0448 3.838282,3.194 c 3.744951,3.11633 3.849434,3.18817 4.296929,2.95467 0.374714,-0.19553 2.965491,-0.23953 14.157085,-0.24042 8.71269,-7e-4 13.86732,0.0631 14.16245,0.17533 0.37025,0.14077 0.45275,0.2744 0.40823,0.66125 l -0.0558,0.48484 -13.96325,0.0882 -13.963249,0.0882 2.306883,1.93967 2.306882,1.93966 11.165624,-0.0414 11.16562,-0.0414 z M 76.474157,126.4164 c -0.244323,-0.24432 -0.104011,-0.93529 0.225763,-1.11178 0.231065,-0.12366 4.367815,-0.16893 12.651917,-0.13845 l 12.308593,0.0453 0.0608,0.43096 c 0.12813,0.90772 0.36126,0.89154 -12.849306,0.89154 -6.754134,0 -12.333143,-0.0529 -12.397797,-0.11755 z m 0.232795,-5.17476 c -0.284861,-0.28486 -0.320137,-0.43 -0.171855,-0.70706 0.181775,-0.33965 0.398917,-0.34863 8.434338,-0.34863 8.878142,0 8.941763,0.006 8.816829,0.89155 l -0.06083,0.43095 -8.330024,0.0458 c -8.170758,0.0449 -8.336878,0.039 -8.688458,-0.31262 z m 37.211588,-0.52121 c -0.14915,-0.27867 -0.11461,-0.42281 0.16935,-0.70677 0.34924,-0.34924 0.55591,-0.35671 9.86723,-0.35671 5.91667,0 9.68587,0.0667 9.97454,0.17642 0.37024,0.14077 0.45274,0.2744 0.40823,0.66125 l -0.0558,0.48483 -10.08811,0.0455 c -9.9065,0.0447 -10.09148,0.0392 -10.27545,-0.30455 z m -42.159161,1.85711 c -0.02844,-4.13474 -0.01365,-4.3421 0.365486,-5.1253 0.24587,-0.5079 0.665281,-0.995 1.110304,-1.28951 l 0.715176,-0.47328 h 30.884135 30.88413 l 0.62015,0.42493 c 0.34108,0.23372 0.81136,0.70378 1.04508,1.0446 0.41758,0.60895 0.42584,0.69691 0.47749,5.08549 0.0289,2.4562 0.089,4.46582 0.13363,4.46582 0.0446,0 1.47037,-1.1668 3.16842,-2.59287 l 3.08737,-2.59287 -1.01683,-1.03929 c -1.2723,-1.30041 -38.12939,-32.450753 -38.39574,-32.450753 -0.10721,0 -7.929178,6.500088 -17.382145,14.444643 -9.452968,7.94455 -18.271425,15.3441 -19.59657,16.44344 -2.332294,1.93488 -2.776443,2.41465 -2.485396,2.68477 0.432643,0.40153 6.303436,5.27926 6.354067,5.27926 0.03349,0 0.04754,-1.93909 0.03124,-4.30908 z"
         id="path865" />
      <path
         style="fill:#ffffff;fill-opacity:1;stroke-width:4.88626;stroke-dasharray:none"
         d="m 64.765106,164.52357 c -0.420515,-0.25204 -0.939468,-0.77615 -1.18738,-1.19918 l -0.440386,-0.75146 -0.0071,-20.00324 c -0.0039,-11.00178 0.04523,-20.38003 0.109226,-20.84054 l 0.11636,-0.83731 20.562988,-17.28706 C 99.938082,90.137561 104.57218,86.328803 104.89083,86.367914 c 0.24121,0.02961 8.7952,7.12953 20.84866,17.304666 l 20.43963,17.25446 0.004,20.84103 0.004,20.84103 -0.51031,0.80468 c -0.33963,0.53554 -0.77154,0.93114 -1.29132,1.18276 l -0.78102,0.37808 -39.04624,-0.002 -39.046246,-0.002 z m 78.333664,-0.95446 c 1.00716,-0.23242 1.6194,-0.9824 1.75674,-2.15197 0.0606,-0.51646 0.0869,-9.40521 0.0584,-19.75278 l -0.0518,-18.81375 -3.26216,2.73791 c -1.7942,1.50585 -3.4797,2.92973 -3.74556,3.16417 -0.26587,0.23444 -0.59398,0.42626 -0.72914,0.42626 -0.13516,0 -0.36435,0.18102 -0.50931,0.40225 -0.30925,0.47199 -1.39839,1.39876 -17.67483,15.04003 -14.26706,11.95722 -12.56851,10.50243 -12.63932,10.82543 -0.0312,0.1422 -0.36932,0.40296 -0.75143,0.57946 -0.61723,0.28511 -0.71167,0.2907 -0.84635,0.05 -0.0834,-0.14899 -0.26667,-0.27088 -0.40733,-0.27088 -0.14065,0 -0.25574,-0.0773 -0.25574,-0.17181 0,-0.0945 -0.2473,-0.29969 -0.54956,-0.456 -0.30226,-0.1563 -7.066852,-5.73363 -15.03242,-12.39406 -7.965568,-6.66043 -14.8796,-12.42542 -15.364516,-12.81109 -0.484917,-0.38568 -1.501565,-1.2535 -2.259218,-1.9285 -2.300483,-2.04951 -6.19645,-5.183 -6.337033,-5.09681 -0.188997,0.11587 -0.156238,38.0968 0.03356,38.91472 0.190778,0.82214 0.77379,1.47922 1.499636,1.69017 0.731173,0.2125 76.148121,0.22933 77.067381,0.0172 z m -33.36872,-13.05382 4.50555,-3.79117 -4.64406,-0.0469 c -2.55422,-0.0258 -6.79177,-0.0258 -9.41676,0 l -4.772715,0.0469 4.686505,3.92412 c 3.06275,2.5645 4.76437,3.87805 4.91122,3.79116 0.12359,-0.0731 2.25221,-1.83897 4.73026,-3.92411 z m 11.18897,-9.39213 c 2.6945,-2.25916 5.29583,-4.42243 5.78075,-4.80726 0.48492,-0.38483 1.55732,-1.29507 2.38311,-2.02274 0.8258,-0.72767 2.87369,-2.46794 4.55089,-3.86725 l 3.04943,-2.54422 -0.0544,-4.69371 c -0.0594,-5.1252 -0.0843,-5.25413 -1.15117,-5.95316 -0.44885,-0.2941 -2.11752,-0.31103 -30.64322,-0.31103 -28.525686,0 -30.194357,0.0169 -30.643212,0.31103 -1.069924,0.70104 -1.092272,0.81865 -1.145604,6.02874 l -0.04882,4.76923 2.728479,2.25335 2.728478,2.25335 23.285429,-0.008 23.28542,-0.008 v 0.70717 0.70718 l -22.41518,0.0447 -22.415176,0.0448 3.838282,3.194 c 3.744951,3.11633 3.849434,3.18817 4.296929,2.95467 0.374714,-0.19553 2.965491,-0.23953 14.157085,-0.24042 8.71269,-7e-4 13.86732,0.0631 14.16245,0.17533 0.37025,0.14077 0.45275,0.2744 0.40823,0.66125 l -0.0558,0.48484 -13.96325,0.0882 -13.963249,0.0882 2.306883,1.93967 2.306882,1.93966 11.165624,-0.0414 11.16562,-0.0414 z M 76.474157,126.4164 c -0.244323,-0.24432 -0.104011,-0.93529 0.225763,-1.11178 0.231065,-0.12366 4.367815,-0.16893 12.651917,-0.13845 l 12.308593,0.0453 0.0608,0.43096 c 0.12813,0.90772 0.36126,0.89154 -12.849306,0.89154 -6.754134,0 -12.333143,-0.0529 -12.397797,-0.11755 z m 0.232795,-5.17476 c -0.284861,-0.28486 -0.320137,-0.43 -0.171855,-0.70706 0.181775,-0.33965 0.398917,-0.34863 8.434338,-0.34863 8.878142,0 8.941763,0.006 8.816829,0.89155 l -0.06083,0.43095 -8.330024,0.0458 c -8.170758,0.0449 -8.336878,0.039 -8.688458,-0.31262 z m 37.211588,-0.52121 c -0.14915,-0.27867 -0.11461,-0.42281 0.16935,-0.70677 0.34924,-0.34924 0.55591,-0.35671 9.86723,-0.35671 5.91667,0 9.68587,0.0667 9.97454,0.17642 0.37024,0.14077 0.45274,0.2744 0.40823,0.66125 l -0.0558,0.48483 -10.08811,0.0455 c -9.9065,0.0447 -10.09148,0.0392 -10.27545,-0.30455 z m -42.159161,1.85711 c -0.02844,-4.13474 -0.01365,-4.3421 0.365486,-5.1253 0.24587,-0.5079 0.665281,-0.995 1.110304,-1.28951 l 0.715176,-0.47328 h 30.884135 30.88413 l 0.62015,0.42493 c 0.34108,0.23372 0.81136,0.70378 1.04508,1.0446 0.41758,0.60895 0.42584,0.69691 0.47749,5.08549 0.0289,2.4562 0.089,4.46582 0.13363,4.46582 0.0446,0 1.47037,-1.1668 3.16842,-2.59287 l 3.08737,-2.59287 -1.01683,-1.03929 c -1.2723,-1.30041 -38.12939,-32.450753 -38.39574,-32.450753 -0.10721,0 -7.929178,6.500088 -17.382145,14.444643 -9.452968,7.94455 -18.271425,15.3441 -19.59657,16.44344 -2.332294,1.93488 -2.776443,2.41465 -2.485396,2.68477 0.432643,0.40153 6.303436,5.27926 6.354067,5.27926 0.03349,0 0.04754,-1.93909 0.03124,-4.30908 z"
         id="path863" />
      <path
         style="fill:#ffffff;fill-opacity:1;stroke-width:4.88626;stroke-dasharray:none"
         d="m 64.765106,164.52357 c -0.420515,-0.25204 -0.939468,-0.77615 -1.18738,-1.19918 l -0.440386,-0.75146 -0.0071,-20.00324 c -0.0039,-11.00178 0.04523,-20.38003 0.109226,-20.84054 l 0.11636,-0.83731 20.562988,-17.28706 C 99.938082,90.137561 104.57218,86.328803 104.89083,86.367914 c 0.24121,0.02961 8.7952,7.12953 20.84866,17.304666 l 20.43963,17.25446 0.004,20.84103 0.004,20.84103 -0.51031,0.80468 c -0.33963,0.53554 -0.77154,0.93114 -1.29132,1.18276 l -0.78102,0.37808 -39.04624,-0.002 -39.046246,-0.002 z m 78.333664,-0.95446 c 1.00716,-0.23242 1.6194,-0.9824 1.75674,-2.15197 0.0606,-0.51646 0.0869,-9.40521 0.0584,-19.75278 l -0.0518,-18.81375 -3.26216,2.73791 c -1.7942,1.50585 -3.4797,2.92973 -3.74556,3.16417 -0.26587,0.23444 -0.59398,0.42626 -0.72914,0.42626 -0.13516,0 -0.36435,0.18102 -0.50931,0.40225 -0.30925,0.47199 -1.39839,1.39876 -17.67483,15.04003 -14.26706,11.95722 -12.56851,10.50243 -12.63932,10.82543 -0.0312,0.1422 -0.36932,0.40296 -0.75143,0.57946 -0.61723,0.28511 -0.71167,0.2907 -0.84635,0.05 -0.0834,-0.14899 -0.26667,-0.27088 -0.40733,-0.27088 -0.14065,0 -0.25574,-0.0773 -0.25574,-0.17181 0,-0.0945 -0.2473,-0.29969 -0.54956,-0.456 -0.30226,-0.1563 -7.066852,-5.73363 -15.03242,-12.39406 -7.965568,-6.66043 -14.8796,-12.42542 -15.364516,-12.81109 -0.484917,-0.38568 -1.501565,-1.2535 -2.259218,-1.9285 -2.300483,-2.04951 -6.19645,-5.183 -6.337033,-5.09681 -0.188997,0.11587 -0.156238,38.0968 0.03356,38.91472 0.190778,0.82214 0.77379,1.47922 1.499636,1.69017 0.731173,0.2125 76.148121,0.22933 77.067381,0.0172 z m -33.36872,-13.05382 4.50555,-3.79117 -4.64406,-0.0469 c -2.55422,-0.0258 -6.79177,-0.0258 -9.41676,0 l -4.772715,0.0469 4.686505,3.92412 c 3.06275,2.5645 4.76437,3.87805 4.91122,3.79116 0.12359,-0.0731 2.25221,-1.83897 4.73026,-3.92411 z m 11.18897,-9.39213 c 2.6945,-2.25916 5.29583,-4.42243 5.78075,-4.80726 0.48492,-0.38483 1.55732,-1.29507 2.38311,-2.02274 0.8258,-0.72767 2.87369,-2.46794 4.55089,-3.86725 l 3.04943,-2.54422 -0.0544,-4.69371 c -0.0594,-5.1252 -0.0843,-5.25413 -1.15117,-5.95316 -0.44885,-0.2941 -2.11752,-0.31103 -30.64322,-0.31103 -28.525686,0 -30.194357,0.0169 -30.643212,0.31103 -1.069924,0.70104 -1.092272,0.81865 -1.145604,6.02874 l -0.04882,4.76923 2.728479,2.25335 2.728478,2.25335 23.285429,-0.008 23.28542,-0.008 v 0.70717 0.70718 l -22.41518,0.0447 -22.415176,0.0448 3.838282,3.194 c 3.744951,3.11633 3.849434,3.18817 4.296929,2.95467 0.374714,-0.19553 2.965491,-0.23953 14.157085,-0.24042 8.71269,-7e-4 13.86732,0.0631 14.16245,0.17533 0.37025,0.14077 0.45275,0.2744 0.40823,0.66125 l -0.0558,0.48484 -13.96325,0.0882 -13.963249,0.0882 2.306883,1.93967 2.306882,1.93966 11.165624,-0.0414 11.16562,-0.0414 z M 76.474157,126.4164 c -0.244323,-0.24432 -0.104011,-0.93529 0.225763,-1.11178 0.231065,-0.12366 4.367815,-0.16893 12.651917,-0.13845 l 12.308593,0.0453 0.0608,0.43096 c 0.12813,0.90772 0.36126,0.89154 -12.849306,0.89154 -6.754134,0 -12.333143,-0.0529 -12.397797,-0.11755 z m 0.232795,-5.17476 c -0.284861,-0.28486 -0.320137,-0.43 -0.171855,-0.70706 0.181775,-0.33965 0.398917,-0.34863 8.434338,-0.34863 8.878142,0 8.941763,0.006 8.816829,0.89155 l -0.06083,0.43095 -8.330024,0.0458 c -8.170758,0.0449 -8.336878,0.039 -8.688458,-0.31262 z m 37.211588,-0.52121 c -0.14915,-0.27867 -0.11461,-0.42281 0.16935,-0.70677 0.34924,-0.34924 0.55591,-0.35671 9.86723,-0.35671 5.91667,0 9.68587,0.0667 9.97454,0.17642 0.37024,0.14077 0.45274,0.2744 0.40823,0.66125 l -0.0558,0.48483 -10.08811,0.0455 c -9.9065,0.0447 -10.09148,0.0392 -10.27545,-0.30455 z m -42.159161,1.85711 c -0.02844,-4.13474 -0.01365,-4.3421 0.365486,-5.1253 0.24587,-0.5079 0.665281,-0.995 1.110304,-1.28951 l 0.715176,-0.47328 h 30.884135 30.88413 l 0.62015,0.42493 c 0.34108,0.23372 0.81136,0.70378 1.04508,1.0446 0.41758,0.60895 0.42584,0.69691 0.47749,5.08549 0.0289,2.4562 0.089,4.46582 0.13363,4.46582 0.0446,0 1.47037,-1.1668 3.16842,-2.59287 l 3.08737,-2.59287 -1.01683,-1.03929 c -1.2723,-1.30041 -38.12939,-32.450753 -38.39574,-32.450753 -0.10721,0 -7.929178,6.500088 -17.382145,14.444643 -9.452968,7.94455 -18.271425,15.3441 -19.59657,16.44344 -2.332294,1.93488 -2.776443,2.41465 -2.485396,2.68477 0.432643,0.40153 6.303436,5.27926 6.354067,5.27926 0.03349,0 0.04754,-1.93909 0.03124,-4.30908 z"
         id="path861" />
      <path
         style="fill:#ffffff;fill-opacity:1;stroke-width:4.88626;stroke-dasharray:none"
         d="m 64.765106,164.52357 c -0.420515,-0.25204 -0.939468,-0.77615 -1.18738,-1.19918 l -0.440386,-0.75146 -0.0071,-20.00324 c -0.0039,-11.00178 0.04523,-20.38003 0.109226,-20.84054 l 0.11636,-0.83731 20.562988,-17.28706 C 99.938082,90.137561 104.57218,86.328803 104.89083,86.367914 c 0.24121,0.02961 8.7952,7.12953 20.84866,17.304666 l 20.43963,17.25446 0.004,20.84103 0.004,20.84103 -0.51031,0.80468 c -0.33963,0.53554 -0.77154,0.93114 -1.29132,1.18276 l -0.78102,0.37808 -39.04624,-0.002 -39.046246,-0.002 z m 78.333664,-0.95446 c 1.00716,-0.23242 1.6194,-0.9824 1.75674,-2.15197 0.0606,-0.51646 0.0869,-9.40521 0.0584,-19.75278 l -0.0518,-18.81375 -3.26216,2.73791 c -1.7942,1.50585 -3.4797,2.92973 -3.74556,3.16417 -0.26587,0.23444 -0.59398,0.42626 -0.72914,0.42626 -0.13516,0 -0.36435,0.18102 -0.50931,0.40225 -0.30925,0.47199 -1.39839,1.39876 -17.67483,15.04003 -14.26706,11.95722 -12.56851,10.50243 -12.63932,10.82543 -0.0312,0.1422 -0.36932,0.40296 -0.75143,0.57946 -0.61723,0.28511 -0.71167,0.2907 -0.84635,0.05 -0.0834,-0.14899 -0.26667,-0.27088 -0.40733,-0.27088 -0.14065,0 -0.25574,-0.0773 -0.25574,-0.17181 0,-0.0945 -0.2473,-0.29969 -0.54956,-0.456 -0.30226,-0.1563 -7.066852,-5.73363 -15.03242,-12.39406 -7.965568,-6.66043 -14.8796,-12.42542 -15.364516,-12.81109 -0.484917,-0.38568 -1.501565,-1.2535 -2.259218,-1.9285 -2.300483,-2.04951 -6.19645,-5.183 -6.337033,-5.09681 -0.188997,0.11587 -0.156238,38.0968 0.03356,38.91472 0.190778,0.82214 0.77379,1.47922 1.499636,1.69017 0.731173,0.2125 76.148121,0.22933 77.067381,0.0172 z m -33.36872,-13.05382 4.50555,-3.79117 -4.64406,-0.0469 c -2.55422,-0.0258 -6.79177,-0.0258 -9.41676,0 l -4.772715,0.0469 4.686505,3.92412 c 3.06275,2.5645 4.76437,3.87805 4.91122,3.79116 0.12359,-0.0731 2.25221,-1.83897 4.73026,-3.92411 z m 11.18897,-9.39213 c 2.6945,-2.25916 5.29583,-4.42243 5.78075,-4.80726 0.48492,-0.38483 1.55732,-1.29507 2.38311,-2.02274 0.8258,-0.72767 2.87369,-2.46794 4.55089,-3.86725 l 3.04943,-2.54422 -0.0544,-4.69371 c -0.0594,-5.1252 -0.0843,-5.25413 -1.15117,-5.95316 -0.44885,-0.2941 -2.11752,-0.31103 -30.64322,-0.31103 -28.525686,0 -30.194357,0.0169 -30.643212,0.31103 -1.069924,0.70104 -1.092272,0.81865 -1.145604,6.02874 l -0.04882,4.76923 2.728479,2.25335 2.728478,2.25335 23.285429,-0.008 23.28542,-0.008 v 0.70717 0.70718 l -22.41518,0.0447 -22.415176,0.0448 3.838282,3.194 c 3.744951,3.11633 3.849434,3.18817 4.296929,2.95467 0.374714,-0.19553 2.965491,-0.23953 14.157085,-0.24042 8.71269,-7e-4 13.86732,0.0631 14.16245,0.17533 0.37025,0.14077 0.45275,0.2744 0.40823,0.66125 l -0.0558,0.48484 -13.96325,0.0882 -13.963249,0.0882 2.306883,1.93967 2.306882,1.93966 11.165624,-0.0414 11.16562,-0.0414 z M 76.474157,126.4164 c -0.244323,-0.24432 -0.104011,-0.93529 0.225763,-1.11178 0.231065,-0.12366 4.367815,-0.16893 12.651917,-0.13845 l 12.308593,0.0453 0.0608,0.43096 c 0.12813,0.90772 0.36126,0.89154 -12.849306,0.89154 -6.754134,0 -12.333143,-0.0529 -12.397797,-0.11755 z m 0.232795,-5.17476 c -0.284861,-0.28486 -0.320137,-0.43 -0.171855,-0.70706 0.181775,-0.33965 0.398917,-0.34863 8.434338,-0.34863 8.878142,0 8.941763,0.006 8.816829,0.89155 l -0.06083,0.43095 -8.330024,0.0458 c -8.170758,0.0449 -8.336878,0.039 -8.688458,-0.31262 z m 37.211588,-0.52121 c -0.14915,-0.27867 -0.11461,-0.42281 0.16935,-0.70677 0.34924,-0.34924 0.55591,-0.35671 9.86723,-0.35671 5.91667,0 9.68587,0.0667 9.97454,0.17642 0.37024,0.14077 0.45274,0.2744 0.40823,0.66125 l -0.0558,0.48483 -10.08811,0.0455 c -9.9065,0.0447 -10.09148,0.0392 -10.27545,-0.30455 z m -42.159161,1.85711 c -0.02844,-4.13474 -0.01365,-4.3421 0.365486,-5.1253 0.24587,-0.5079 0.665281,-0.995 1.110304,-1.28951 l 0.715176,-0.47328 h 30.884135 30.88413 l 0.62015,0.42493 c 0.34108,0.23372 0.81136,0.70378 1.04508,1.0446 0.41758,0.60895 0.42584,0.69691 0.47749,5.08549 0.0289,2.4562 0.089,4.46582 0.13363,4.46582 0.0446,0 1.47037,-1.1668 3.16842,-2.59287 l 3.08737,-2.59287 -1.01683,-1.03929 c -1.2723,-1.30041 -38.12939,-32.450753 -38.39574,-32.450753 -0.10721,0 -7.929178,6.500088 -17.382145,14.444643 -9.452968,7.94455 -18.271425,15.3441 -19.59657,16.44344 -2.332294,1.93488 -2.776443,2.41465 -2.485396,2.68477 0.432643,0.40153 6.303436,5.27926 6.354067,5.27926 0.03349,0 0.04754,-1.93909 0.03124,-4.30908 z"
         id="path859" />
    </g>
    <path
       style="fill:#ffffff;fill-opacity:1;stroke:#ffffff;stroke-width:2.44313;stroke-dasharray:none;stroke-opacity:1"
       d="m 64.765106,164.52357 c -0.420515,-0.25204 -0.939468,-0.77615 -1.18738,-1.19918 l -0.440386,-0.75146 -0.0071,-20.00324 c -0.0039,-11.00178 0.04523,-20.38003 0.109226,-20.84054 l 0.11636,-0.83731 20.562988,-17.28706 C 99.938082,90.137561 104.57218,86.328803 104.89083,86.367914 c 0.24121,0.02961 8.7952,7.12953 20.84866,17.304666 l 20.43963,17.25446 0.004,20.84103 0.004,20.84103 -0.51031,0.80468 c -0.33963,0.53554 -0.77154,0.93114 -1.29132,1.18276 l -0.78102,0.37808 -39.04624,-0.002 -39.046246,-0.002 z m 78.333664,-0.95446 c 1.00716,-0.23242 1.6194,-0.9824 1.75674,-2.15197 0.0606,-0.51646 0.0869,-9.40521 0.0584,-19.75278 l -0.0518,-18.81375 -3.26216,2.73791 c -1.7942,1.50585 -3.4797,2.92973 -3.74556,3.16417 -0.26587,0.23444 -0.59398,0.42626 -0.72914,0.42626 -0.13516,0 -0.36435,0.18102 -0.50931,0.40225 -0.30925,0.47199 -1.39839,1.39876 -17.67483,15.04003 -14.26706,11.95722 -12.56851,10.50243 -12.63932,10.82543 -0.0312,0.1422 -0.36932,0.40296 -0.75143,0.57946 -0.61723,0.28511 -0.71167,0.2907 -0.84635,0.05 -0.0834,-0.14899 -0.26667,-0.27088 -0.40733,-0.27088 -0.14065,0 -0.25574,-0.0773 -0.25574,-0.17181 0,-0.0945 -0.2473,-0.29969 -0.54956,-0.456 -0.30226,-0.1563 -7.066852,-5.73363 -15.03242,-12.39406 -7.965568,-6.66043 -14.8796,-12.42542 -15.364516,-12.81109 -0.484917,-0.38568 -1.501565,-1.2535 -2.259218,-1.9285 -2.300483,-2.04951 -6.19645,-5.183 -6.337033,-5.09681 -0.188997,0.11587 -0.156238,38.0968 0.03356,38.91472 0.190778,0.82214 0.77379,1.47922 1.499636,1.69017 0.731173,0.2125 76.148121,0.22933 77.067381,0.0172 z m -33.36872,-13.05382 4.50555,-3.79117 -4.64406,-0.0469 c -2.55422,-0.0258 -6.79177,-0.0258 -9.41676,0 l -4.772715,0.0469 4.686505,3.92412 c 3.06275,2.5645 4.76437,3.87805 4.91122,3.79116 0.12359,-0.0731 2.25221,-1.83897 4.73026,-3.92411 z m 11.18897,-9.39213 c 2.6945,-2.25916 5.29583,-4.42243 5.78075,-4.80726 0.48492,-0.38483 1.55732,-1.29507 2.38311,-2.02274 0.8258,-0.72767 2.87369,-2.46794 4.55089,-3.86725 l 3.04943,-2.54422 -0.0544,-4.69371 c -0.0594,-5.1252 -0.0843,-5.25413 -1.15117,-5.95316 -0.44885,-0.2941 -2.11752,-0.31103 -30.64322,-0.31103 -28.525686,0 -30.194357,0.0169 -30.643212,0.31103 -1.069924,0.70104 -1.092272,0.81865 -1.145604,6.02874 l -0.04882,4.76923 2.728479,2.25335 2.728478,2.25335 23.285429,-0.008 23.28542,-0.008 v 0.70717 0.70718 l -22.41518,0.0447 -22.415176,0.0448 3.838282,3.194 c 3.744951,3.11633 3.849434,3.18817 4.296929,2.95467 0.374714,-0.19553 2.965491,-0.23953 14.157085,-0.24042 8.71269,-7e-4 13.86732,0.0631 14.16245,0.17533 0.37025,0.14077 0.45275,0.2744 0.40823,0.66125 l -0.0558,0.48484 -13.96325,0.0882 -13.963249,0.0882 2.306883,1.93967 2.306882,1.93966 11.165624,-0.0414 11.16562,-0.0414 z M 76.474157,126.4164 c -0.244323,-0.24432 -0.104011,-0.93529 0.225763,-1.11178 0.231065,-0.12366 4.367815,-0.16893 12.651917,-0.13845 l 12.308593,0.0453 0.0608,0.43096 c 0.12813,0.90772 0.36126,0.89154 -12.849306,0.89154 -6.754134,0 -12.333143,-0.0529 -12.397797,-0.11755 z m 0.232795,-5.17476 c -0.284861,-0.28486 -0.320137,-0.43 -0.171855,-0.70706 0.181775,-0.33965 0.398917,-0.34863 8.434338,-0.34863 8.878142,0 8.941763,0.006 8.816829,0.89155 l -0.06083,0.43095 -8.330024,0.0458 c -8.170758,0.0449 -8.336878,0.039 -8.688458,-0.31262 z m 37.211588,-0.52121 c -0.14915,-0.27867 -0.11461,-0.42281 0.16935,-0.70677 0.34924,-0.34924 0.55591,-0.35671 9.86723,-0.35671 5.91667,0 9.68587,0.0667 9.97454,0.17642 0.37024,0.14077 0.45274,0.2744 0.40823,0.66125 l -0.0558,0.48483 -10.08811,0.0455 c -9.9065,0.0447 -10.09148,0.0392 -10.27545,-0.30455 z m -42.159161,1.85711 c -0.02844,-4.13474 -0.01365,-4.3421 0.365486,-5.1253 0.24587,-0.5079 0.665281,-0.995 1.110304,-1.28951 l 0.715176,-0.47328 h 30.884135 30.88413 l 0.62015,0.42493 c 0.34108,0.23372 0.81136,0.70378 1.04508,1.0446 0.41758,0.60895 0.42584,0.69691 0.47749,5.08549 0.0289,2.4562 0.089,4.46582 0.13363,4.46582 0.0446,0 1.47037,-1.1668 3.16842,-2.59287 l 3.08737,-2.59287 -1.01683,-1.03929 c -1.2723,-1.30041 -38.12939,-32.450753 -38.39574,-32.450753 -0.10721,0 -7.929178,6.500088 -17.382145,14.444643 -9.452968,7.94455 -18.271425,15.3441 -19.59657,16.44344 -2.332294,1.93488 -2.776443,2.41465 -2.485396,2.68477 0.432643,0.40153 6.303436,5.27926 6.354067,5.27926 0.03349,0 0.04754,-1.93909 0.03124,-4.30908 z"
       id="path857"
       transform="matrix(0.31855595,0,0,0.33659003,-20.110448,-29.07048)" />
  </g>
</svg>
