<?xml version="1.0" encoding="UTF-8" standalone="no"?>
<!-- Created with Inkscape (http://www.inkscape.org/) -->

<svg
   width="26.458332mm"
   height="26.458334mm"
   viewBox="0 0 26.458332 26.458334"
   version="1.1"
   id="svg5"
   xml:space="preserve"
   inkscape:version="1.2.2 (732a01da63, 2022-12-09)"
   sodipodi:docname="tiktok-logo.svg"
   xmlns:inkscape="http://www.inkscape.org/namespaces/inkscape"
   xmlns:sodipodi="http://sodipodi.sourceforge.net/DTD/sodipodi-0.dtd"
   xmlns="http://www.w3.org/2000/svg"
   xmlns:svg="http://www.w3.org/2000/svg"><sodipodi:namedview
     id="namedview7"
     pagecolor="#505050"
     bordercolor="#eeeeee"
     borderopacity="1"
     inkscape:showpageshadow="0"
     inkscape:pageopacity="0"
     inkscape:pagecheckerboard="0"
     inkscape:deskcolor="#505050"
     inkscape:document-units="mm"
     showgrid="false"
     inkscape:zoom="2.1915884"
     inkscape:cx="73.91899"
     inkscape:cy="120.00429"
     inkscape:window-width="1898"
     inkscape:window-height="1008"
     inkscape:window-x="0"
     inkscape:window-y="0"
     inkscape:window-maximized="0"
     inkscape:current-layer="layer1" /><defs
     id="defs2" /><g
     inkscape:label="Calque 1"
     inkscape:groupmode="layer"
     id="layer1"><path
       style="fill:#ffffff;stroke-width:0.619853"
       d="M 5.318718,25.597764 C 0.6706862,23.609384 -1.3675837,18.370285 0.97888018,14.442745 2.5084761,11.882506 6.0646778,9.8114458 8.931316,9.8114458 c 2.158454,0 2.230298,0.0744 2.230298,2.3098802 0,1.828539 -0.246454,2.309919 -1.1826385,2.309919 -2.1180755,0 -4.1400855,1.68806 -4.1400855,3.45632 0,2.246659 1.673794,3.577319 4.22666,3.360159 3.264939,-0.27774 3.736453,-1.807459 3.747615,-12.1581182 0.0098,-9.09517926 0.0098,-9.09517926 2.504836,-9.08931926656 C 18.600969,0.00428654 18.909043,0.20458652 19.942749,2.3402464 c 0.863652,1.7843398 1.76308,2.5649798 3.81894,3.3145797 2.483797,0.9056199 2.689732,1.1517599 2.695986,3.2220997 0.0068,2.2415402 0.0068,2.2415402 -2.488262,1.9336602 -1.372264,-0.1694 -3.018982,-0.4912 -3.659372,-0.71528 -1.05992,-0.3708802 -1.164344,0.0824 -1.164344,5.054959 0,4.71762 -0.205896,5.729879 -1.510278,7.424539 -2.796676,3.6335 -7.9391133,4.89564 -12.316701,3.02296 z"
       id="path974" /></g></svg>
