<?xml version="1.0" encoding="UTF-8" standalone="no"?>
<!-- Created with Inkscape (http://www.inkscape.org/) -->

<svg
   width="11.90625mm"
   height="11.90625mm"
   viewBox="0 0 11.90625 11.90625"
   version="1.1"
   id="svg5"
   xml:space="preserve"
   inkscape:version="1.2.2 (732a01da63, 2022-12-09)"
   sodipodi:docname="iconCoeur.svg"
   xmlns:inkscape="http://www.inkscape.org/namespaces/inkscape"
   xmlns:sodipodi="http://sodipodi.sourceforge.net/DTD/sodipodi-0.dtd"
   xmlns="http://www.w3.org/2000/svg"
   xmlns:svg="http://www.w3.org/2000/svg"><sodipodi:namedview
     id="namedview7"
     pagecolor="#505050"
     bordercolor="#eeeeee"
     borderopacity="1"
     inkscape:showpageshadow="0"
     inkscape:pageopacity="0"
     inkscape:pagecheckerboard="0"
     inkscape:deskcolor="#505050"
     inkscape:document-units="mm"
     showgrid="false"
     inkscape:zoom="7.8211883"
     inkscape:cx="28.192647"
     inkscape:cy="12.146492"
     inkscape:window-width="1920"
     inkscape:window-height="974"
     inkscape:window-x="-11"
     inkscape:window-y="-11"
     inkscape:window-maximized="1"
     inkscape:current-layer="layer1" /><defs
     id="defs2" /><g
     inkscape:label="Calque 1"
     inkscape:groupmode="layer"
     id="layer1"><g
       id="g1582"
       transform="matrix(1.5586912,0,0,1.6361074,-160.66685,-227.33853)"><path
         style="fill:#f6d7ac;stroke-width:0.264583"
         d="m 104.66555,144.50711 c -0.64268,-0.65484 -1.10898,-1.19062 -1.03622,-1.19062 0.0728,0 0.65813,0.53578 1.30081,1.19062 0.64268,0.65485 1.10898,1.19063 1.03622,1.19063 -0.0728,0 -0.65813,-0.53578 -1.30081,-1.19063 z m 3.42853,-0.7276 c 1.09642,-1.16819 1.33397,-1.37824 1.33397,-1.17957 0,0.0425 -0.56554,0.60801 -1.25677,1.25677 l -1.25677,1.17957 z m 1.63459,-2.59292 c -0.0198,-0.37108 -0.12533,-0.78865 -0.23447,-0.92793 -0.10914,-0.13928 -0.0393,-0.1188 0.15513,0.0455 0.19446,0.16432 0.29997,0.58188 0.23447,0.92793 -0.11789,0.62275 -0.11947,0.62229 -0.15513,-0.0455 z m -6.65062,-1.40958 c 0,-0.0549 0.20836,-0.2633 0.46302,-0.46302 0.41965,-0.32911 0.42901,-0.31975 0.0999,0.0999 -0.34564,0.44073 -0.56292,0.58089 -0.56292,0.36313 z"
         id="path1596" /><path
         style="fill:#aad5f5;stroke-width:0.264583"
         d="m 106.2193,144.70555 c -0.3291,-0.41964 -0.31974,-0.429 0.0999,-0.0999 0.25466,0.19972 0.46302,0.40808 0.46302,0.46303 0,0.21776 -0.21727,0.0776 -0.56292,-0.36313 z m -2.11666,-2.11667 c -0.32911,-0.41964 -0.31975,-0.429 0.0999,-0.0999 0.25466,0.19972 0.46302,0.40808 0.46302,0.46302 0,0.21776 -0.21727,0.0776 -0.56291,-0.36313 z m 2.94416,-2.01812 c 0,-0.0549 0.20836,-0.2633 0.46302,-0.46302 0.41965,-0.32911 0.42901,-0.31975 0.0999,0.0999 -0.34564,0.44073 -0.56292,0.58089 -0.56292,0.36313 z"
         id="path1594" /><path
         style="fill:#798cb2;stroke-width:0.264583"
         d="m 108.50201,144.37482 c 0.71667,-0.7276 1.36256,-1.32292 1.43532,-1.32292 0.0728,0 -0.45407,0.59532 -1.17073,1.32292 -0.71667,0.7276 -1.36256,1.32292 -1.43532,1.32292 -0.0728,0 0.45407,-0.59532 1.17073,-1.32292 z m -3.5919,-0.7276 -0.64143,-0.72761 0.7276,0.64143 c 0.68006,0.59952 0.84894,0.81378 0.64144,0.81378 -0.0474,0 -0.37482,-0.32742 -0.72761,-0.7276 z m 5.61805,-2.4474 c 0,-0.3638 0.0601,-0.51263 0.13346,-0.33073 0.0734,0.1819 0.0734,0.47956 0,0.66146 -0.0734,0.1819 -0.13346,0.0331 -0.13346,-0.33073 z m -7.16464,-0.15434 c 0.0127,-0.30822 0.0754,-0.37092 0.15986,-0.15985 0.0764,0.19099 0.067,0.4192 -0.0209,0.50712 -0.0879,0.0879 -0.15045,-0.0684 -0.13897,-0.34727 z m 6.43627,-1.49931 -0.50403,-0.59531 0.59531,0.50403 c 0.55945,0.47366 0.71577,0.6866 0.50403,0.6866 -0.0502,0 -0.31809,-0.26789 -0.59531,-0.59532 z"
         id="path1592" /><path
         style="fill:#b28c79;stroke-width:0.264583"
         d="m 106.2193,145.76388 c -0.3291,-0.41964 -0.31974,-0.429 0.0999,-0.0999 0.25466,0.19972 0.46302,0.40808 0.46302,0.46302 0,0.21776 -0.21727,0.0776 -0.56292,-0.36313 z m -1.33877,-6.06772 c 0.19099,-0.0764 0.4192,-0.067 0.50712,0.0209 0.0879,0.0879 -0.0684,0.15045 -0.34727,0.13897 -0.30822,-0.0127 -0.37092,-0.0754 -0.15985,-0.15986 z"
         id="path1590" /><path
         style="fill:#797a8e;stroke-width:0.264583"
         d="m 105.95472,144.70555 c -0.32911,-0.41964 -0.31975,-0.429 0.0999,-0.0999 0.44072,0.34565 0.58088,0.56292 0.36312,0.56292 -0.0549,0 -0.2633,-0.20836 -0.46302,-0.46302 z"
         id="path1588" /><path
         style="fill:#877979;stroke-width:0.264583"
         d="m 104.7854,144.30867 -1.04589,-1.12448 1.12448,1.04589 c 0.61846,0.57524 1.12448,1.08125 1.12448,1.12448 0,0.20018 -0.23041,-1.3e-4 -1.20307,-1.04589 z m 3.58432,-0.59531 c 0.49366,-0.50932 0.95709,-0.92604 1.02985,-0.92604 0.0728,0 -0.27161,0.41672 -0.76527,0.92604 -0.49365,0.50932 -0.95708,0.92604 -1.02984,0.92604 -0.0728,0 0.2716,-0.41672 0.76526,-0.92604 z m 1.60839,-2.66788 c 0.0127,-0.30822 0.0754,-0.37092 0.15985,-0.15985 0.0764,0.19099 0.067,0.4192 -0.0209,0.50712 -0.0879,0.0879 -0.15045,-0.0684 -0.13896,-0.34727 z"
         id="path1586" /><path
         style="fill:#797979;stroke-width:0.264583"
         d="m 105.15038,144.44097 c -0.81564,-0.83675 -1.61559,-1.78142 -1.77766,-2.09928 -1.05732,-2.07365 0.98427,-4.13348 2.82146,-2.84666 0.53222,0.37278 0.64386,0.37278 1.17608,0 1.81698,-1.27266 3.86715,0.79582 2.82146,2.84666 -0.30707,0.60222 -3.14946,3.62063 -3.4095,3.62063 -0.0819,0 -0.8162,-0.68461 -1.63184,-1.52135 z m 3.01635,-0.32378 c 1.09445,-0.96337 2.05507,-2.43852 2.05507,-3.15579 0,-0.52799 -1.04672,-1.34908 -1.71979,-1.34908 -0.3638,0 -0.90163,0.24017 -1.19518,0.53372 l -0.53372,0.53372 -0.76791,-0.56774 c -1.35232,-0.99981 -2.93672,-0.0405 -2.5405,1.53813 0.18881,0.75226 2.6939,3.51842 3.18636,3.51842 0.17668,0 0.85873,-0.47312 1.51567,-1.05138 z"
         id="path1584" /></g></g></svg>
