<?xml version="1.0" encoding="UTF-8" standalone="no"?>
<!-- Created with Inkscape (http://www.inkscape.org/) -->

<svg
   width="106.81089mm"
   height="25.154951mm"
   viewBox="0 0 106.81089 25.154952"
   version="1.1"
   id="svg5"
   inkscape:version="1.2.2 (732a01da63, 2022-12-09)"
   sodipodi:docname="icon-histoire.svg"
   xmlns:inkscape="http://www.inkscape.org/namespaces/inkscape"
   xmlns:sodipodi="http://sodipodi.sourceforge.net/DTD/sodipodi-0.dtd"
   xmlns="http://www.w3.org/2000/svg"
   xmlns:svg="http://www.w3.org/2000/svg">
  <sodipodi:namedview
     id="namedview7"
     pagecolor="#505050"
     bordercolor="#eeeeee"
     borderopacity="1"
     inkscape:showpageshadow="0"
     inkscape:pageopacity="0"
     inkscape:pagecheckerboard="0"
     inkscape:deskcolor="#505050"
     inkscape:document-units="mm"
     showgrid="false"
     showguides="false"
     inkscape:zoom="2.0991743"
     inkscape:cx="211.74993"
     inkscape:cy="104.32674"
     inkscape:window-width="1920"
     inkscape:window-height="974"
     inkscape:window-x="-11"
     inkscape:window-y="-11"
     inkscape:window-maximized="1"
     inkscape:current-layer="g9054" />
  <defs
     id="defs2">
    <linearGradient
       id="linearGradient8320"
       inkscape:swatch="solid">
      <stop
         style="stop-color:#000000;stop-opacity:1;"
         offset="0"
         id="stop8318" />
    </linearGradient>
    <rect
       x="128.74258"
       y="350.06412"
       width="380.44159"
       height="231.44736"
       id="rect1522" />
    <rect
       x="81.006577"
       y="339.93832"
       width="648.05261"
       height="266.16446"
       id="rect1516" />
  </defs>
  <g
     id="g9054"
     transform="matrix(0.07880058,0,0,0.03677615,-22.205548,0.2190815)">
    <g
       inkscape:label="Calque 1"
       inkscape:groupmode="layer"
       id="layer1"
       transform="translate(-21.447711,-83.611316)">
      <path
         id="path6151"
         style="fill:none;fill-opacity:1;stroke:#ffffff;stroke-width:41.1159;stroke-linecap:round;stroke-linejoin:round;stroke-dasharray:none;stroke-dashoffset:0;stroke-opacity:1;paint-order:normal;image-rendering:optimizeQuality"
         d="m 871.37802,98.212076 v 0.0752 C 761.94986,97.890016 629.41227,165.28225 481.41543,217.07651 l -1.50641,-0.27964 -0.60559,2.04679 c -0.0164,0.001 -0.0326,0.002 -0.0492,0.002 l 0.008,0.1363 -152.85111,518.34872 c -0.42053,0.14724 -0.83203,0.29923 -1.25282,0.44648 -0.28753,0.0225 -0.56147,0.0487 -0.84025,0.0752 l 0.0151,0.2209 c -0.17984,0.0639 -0.35603,0.12801 -0.53368,0.19034 l 0.35957,1.37706 h 0.2006 l 0.053,0.87653 h 0.0908 0.74942 0.0681 l 1.63131,-0.007 c 3.54147,-0.81791 7.10687,-1.67187 10.65461,-2.50033 -2.77816,0.21861 -5.5714,0.41851 -8.33066,0.65798 l -0.0568,-0.31724 -1.25281,0.0141 0.008,-0.0282 C 476.213,686.38348 608.89218,619.13864 717.33845,619.89771 c 69.24468,0.48502 128.74689,28.50981 176.82114,106.13718 l 0.0303,0.0329 0.0113,0.0212 c 0.82384,1.07245 1.65064,2.21378 2.47536,3.31576 2.91844,2.32314 5.81149,4.70443 8.6448,7.19315 l -0.0719,0.22794 -16.05194,0.11515 c 4.67175,-0.26309 9.33995,-0.52541 14.00429,-0.82953 l -0.48069,-0.32899 h 0.22709 c -0.98426,-0.67143 -1.96653,-1.35412 -2.94846,-2.00685 l -0.12112,-0.0846 -0.0833,-0.10575 c -1.04263,-1.43207 -2.07902,-2.79105 -3.11879,-4.18053 -132.19712,-105.22603 -350.62826,-40.06581 -559.06998,8.60777 101.61244,-7.99894 215.7868,-2.41114 333.31715,0.49583 l 218.15271,-1.56505 c -12.48481,0.7028 -24.99325,1.27197 -37.51634,1.7084 l 51.77422,-0.18564 -0.81755,0.55928 582.49116,2.07264 h 0.068 0.738 0.087 l 0.053,-0.86712 h 0.2006 l 0.3747,-1.37237 c -0.1785,-0.0616 -0.3676,-0.12176 -0.5488,-0.18564 l 0.015,-0.23264 c -0.292,-0.0225 -0.5785,-0.0475 -0.8819,-0.0799 -0.014,-0.005 -0.029,-0.013 -0.049,-0.0164 l 153.0782,-519.14065 -0.095,-0.0141 v -0.0118 c -69.2055,-15.42467 -134.7808,-44.97748 -199.0047,-70.95394 -64.2239,-25.97676 -127.14,-48.401154 -191.1282,-49.416794 h -0.015 -0.011 c -49.0956,0.3439 -93.5408,14.527444 -132.3102,49.987824 -16.4012,15.00008 -31.7953,33.79491 -46.1422,56.96478 -1.831,2.38489 -3.668,4.83589 -5.5033,7.3553 -1.1399,0.7684 -2.2179,1.6099 -3.2967,2.40163 -1.4763,-1.02256 -2.9518,-2.01406 -4.4208,-2.99146 -1.834,-2.51722 -3.6776,-4.97711 -5.5071,-7.36 l -0.038,-0.0635 C 1002.4673,127.2318 942.1219,98.712686 872.28641,98.223826 Z M 670.9237,738.50834 454.33039,740.0593 701.64608,739.18513 c -10.27168,-0.19971 -20.49651,-0.42475 -30.72238,-0.67679 z m 30.72238,0.67679 c 49.74292,0.96763 99.9315,1.21614 149.91777,-0.53109 z m -247.31569,0.87417 -127.37845,0.45354 c -0.67313,0.15548 -1.35211,0.31954 -2.02495,0.47704 z M 872.27127,99.652586 c 69.24463,0.484754 128.75143,28.508494 176.82493,106.137184 l 0.026,0.0329 0.015,0.0329 c 1.8626,2.42483 3.728,4.91444 5.5941,7.48219 l 0.08,0.1175 0.1212,0.0822 c 0.9812,0.65216 1.9688,1.33129 2.9522,2.00214 h -0.2271 l 1.5178,1.05042 -0.4921,-0.0916 -0.4466,1.51805 c 0.5779,0.13549 1.1534,0.28271 1.7297,0.43709 l 0.2801,-0.94467 0.1628,0.11044 0.6018,-0.41123 c 0.1107,-0.0769 0.2109,-0.15403 0.3217,-0.23265 h 1.4118 l -0.7192,-0.50758 c 1.0965,-0.80922 2.1922,-1.65609 3.2324,-2.34759 l 0.1211,-0.0846 0.076,-0.10574 c 1.8659,-2.5602 3.7237,-5.05469 5.5828,-7.47515 l 0.03,-0.0306 0.011,-0.0329 c 14.2889,-23.07861 29.6105,-41.78101 45.8886,-56.66868 38.4714,-35.18742 82.2686,-49.13437 130.9212,-49.48024 63.4772,1.00753 126.1679,23.30118 190.3409,49.25699 63.6876,25.75935 128.8516,55.09131 197.767,70.67665 l -152.605,517.5662 C 1335.1797,685.82763 1202.462,618.27354 1092.9712,619.03999 c -69.8604,0.48935 -130.19243,29.02066 -178.45241,106.95965 -1.82783,2.38086 -3.65588,4.83566 -5.48816,7.3506 -0.3672,0.24469 -0.7379,0.4971 -1.10521,0.74493 l 78.93876,-267.72108 c -0.567,-0.1907 -1.12862,-0.39158 -1.6843,-0.60393 L 905.5939,735.67197 c -1.43432,-0.99213 -2.86844,-1.96651 -4.29591,-2.91627 -1.83585,-2.51985 -3.67187,-4.97013 -5.50331,-7.35529 l -0.0416,-0.0564 C 847.50553,647.46036 787.1917,618.94841 717.35359,618.45955 608.25192,617.6958 476.07362,684.74811 328.49241,736.58845 L 480.77199,220.18547 c 0.0863,-0.0154 0.16762,-0.0329 0.25738,-0.0493 l 0.71157,-0.12925 -0.0151,-1.37236 -0.40121,0.0423 C 630.23246,166.64582 763.42672,98.890706 872.27127,99.652586 Z M 1092.9826,620.47815 c 108.3633,-0.7586 240.9273,66.36972 389.0277,118.30749 l -1.7941,-0.0141 -0.019,0.13159 c 0.8898,0.20085 1.7826,0.41429 2.6721,0.61334 l -0.072,0.23969 -1.1998,-0.0118 1.1506,0.1833 -0.08,0.26554 -572.46106,-3.68705 0.0681,-0.12925 -1.8584,-0.0118 -0.0833,-0.0564 573.26736,3.4403 -6.2717,-0.99872 c 1.6293,0.13851 3.235,0.27158 4.8334,0.41124 l 0.034,-0.25145 c -189.9322,-42.9163 -386.8092,-129.30795 -569.10394,-5.51059 -0.19147,0.26201 -0.38008,0.50476 -0.57153,0.76842 l -0.0833,0.1175 -0.12112,0.0846 c -0.81137,0.53916 -1.62979,1.10392 -2.44508,1.65905 l 0.43527,0.282 h -1.03329 l 0.11734,-0.39949 c 1.23165,-0.85663 2.4649,-1.67718 3.69789,-2.51443 1.67251,-2.28619 3.34328,-4.53511 5.01126,-6.70672 l 0.0265,-0.0306 0.0151,-0.0235 c 48.07918,-77.63973 107.5913,-105.6731 176.841,-106.15816 z" />
    </g>
    <g
       inkscape:groupmode="layer"
       id="layer2"
       inkscape:label="text"
       transform="translate(-21.447711,-83.611316)">
      <path
         id="text4224"
         style="font-size:103.881px;text-align:center;text-anchor:middle;fill:none;fill-opacity:1;stroke:#ffffff;stroke-width:13.7704;stroke-linecap:round;stroke-linejoin:round;stroke-dasharray:none;stroke-opacity:1"
         d="m 955.93247,275.46222 -0.34443,121.94755 14.60989,0.0494 0.16654,-59.70246 54.81733,0.19035 -0.1704,59.70246 14.6099,0.0517 0.3445,-121.94754 -14.6099,-0.0494 -0.1325,47.82824 -54.81733,-0.19035 0.1325,-47.82824 z m 121.68593,3.24997 -1.355,15.89966 15.5712,1.63556 1.355,-15.89967 z m 134.9407,28.70916 -5.7304,25.50855 -9.0914,-2.51679 -2.8236,12.55336 9.0915,2.51913 -10.6055,47.2008 c -2.4167,10.75402 -2.0506,19.15548 1.1015,25.20541 3.152,6.04992 8.8074,10.2042 16.9679,12.46406 2.3383,0.64756 5.0414,1.14257 8.1073,1.48516 3.1136,0.35579 6.0208,0.51357 8.7167,0.47234 l 3.0166,-13.42989 -0.7153,-0.1974 c -1.1571,0.18605 -3.0111,0.31861 -5.5639,0.39949 -2.5409,0.0279 -4.9091,-0.26156 -7.1043,-0.86948 -3.7701,-1.04401 -6.4794,-2.30033 -8.1263,-3.76929 -1.5873,-1.50872 -2.67,-3.46743 -3.2437,-5.87718 -0.6334,-2.59512 -0.752,-5.21658 -0.3596,-7.86524 0.4044,-2.70164 1.1287,-6.3852 2.1764,-11.04704 l 9.0914,-40.44475 27.7739,7.69134 2.8198,-12.5557 -27.7739,-7.69134 5.7342,-25.50854 z m -136.7159,2.53089 -7.7591,91.07408 13.8075,1.44992 7.7629,-91.07411 z m 65.6044,7.60908 c -1.7723,0.0368 -3.4913,0.19132 -5.1588,0.46529 -4.3903,0.68568 -8.1344,2.04609 -11.23,4.07714 -3.2007,2.06703 -5.7473,4.61321 -7.6456,7.63963 -1.8497,3.03538 -3.0553,6.41171 -3.6108,10.12822 -0.8856,5.92488 -0.1526,11.20688 2.1953,15.84562 2.4045,4.59381 7.0153,8.59608 13.8339,12.01052 2.4589,1.22776 5.1933,2.45225 8.202,3.67059 3.0573,1.22729 5.5198,2.26202 7.3882,3.10427 5.0471,2.25793 8.3541,4.47232 9.9241,6.64327 1.5701,2.17094 2.0908,5.03408 1.5594,8.58902 -0.6924,4.63216 -2.8975,7.71105 -6.6161,9.23993 -3.7185,1.5289 -8.5856,1.74038 -14.6023,0.63214 -4.8521,-0.89374 -9.7675,-2.87757 -14.7423,-5.95239 -4.9668,-3.12866 -9.3396,-6.89662 -13.1186,-11.30083 l -0.7267,-0.13402 -2.5473,17.04878 c 3.1147,2.51082 7.0491,5.03506 11.8052,7.5715 4.8128,2.49149 10.2284,4.28956 16.245,5.3978 10.6262,1.95728 19.3913,0.86016 26.294,-3.29227 6.9512,-4.14347 11.0428,-10.33526 12.2746,-18.57623 0.9822,-6.57122 0.048,-12.16756 -2.8009,-16.78794 -2.8573,-4.56651 -7.3445,-8.24392 -13.4592,-11.03059 -2.0059,-0.92293 -4.5354,-1.99683 -7.5926,-3.22412 -3.0088,-1.21834 -5.7263,-2.38326 -8.1528,-3.49434 -4.3839,-2.02509 -7.4564,-4.16887 -9.2125,-6.42943 -1.8047,-2.2695 -2.4291,-5.26258 -1.8736,-8.97911 0.628,-4.20127 2.823,-7.03362 6.582,-8.49971 3.7671,-1.51994 8.1474,-1.82057 13.1451,-0.90002 4.8036,0.88479 9.5581,2.78512 14.2579,5.69858 4.7079,2.85961 8.5946,6.03784 11.6614,9.53604 l 0.7267,0.13402 2.4262,-16.23805 c -3.0177,-2.49294 -6.9289,-4.84832 -11.7334,-7.06156 -4.7478,-2.25817 -9.5457,-3.83199 -14.3979,-4.72573 -3.2448,-0.59768 -6.3457,-0.86727 -9.2996,-0.80602 z m -302.42063,1.19377 c -2.49215,0.046 -5.10465,0.34493 -7.83862,0.89767 -11.80685,2.38703 -20.63243,8.63687 -26.47188,18.75249 -5.79108,10.10582 -7.47896,22.51905 -5.06426,37.23706 2.44114,14.87917 8.10366,25.61158 16.98305,32.19648 8.87055,6.53117 20.0295,8.43703 33.48158,5.71738 5.27438,-1.06632 10.18982,-2.80977 14.74235,-5.2286 4.55255,-2.41882 8.94989,-5.16793 13.19431,-8.24593 l -2.71002,-16.51768 -0.7267,0.14806 c -1.98329,2.84283 -5.57937,6.06661 -10.78709,9.67233 -5.16813,3.54223 -10.50912,5.87111 -16.02544,6.98636 -4.16143,0.84133 -8.09081,0.97019 -11.78631,0.38539 -3.64711,-0.59458 -6.93948,-1.92761 -9.8787,-3.99725 -3.04482,-2.10378 -5.65366,-5.04491 -7.82348,-8.824 -2.17863,-3.83282 -3.72127,-8.51523 -4.62898,-14.04792 l 59.73774,-12.07632 -1.34744,-8.22007 c -2.1415,-13.05284 -6.77185,-22.52123 -13.88695,-28.40836 -5.30003,-4.4227 -11.68673,-6.56506 -19.16316,-6.42707 z m -0.15518,12.90585 c 4.34295,0.0877 7.97378,1.38179 10.89306,3.88209 4.2946,3.627 7.12181,9.40947 8.47449,17.34957 l -46.45639,9.39269 c -0.58262,-7.20783 0.8872,-13.63927 4.40947,-19.29063 3.57064,-5.66113 9.01017,-9.22908 16.31687,-10.7063 2.26824,-0.45856 4.38843,-0.66732 6.3625,-0.62742 z m -60.81646,3.2993 c -2.17723,0.27561 -3.80238,0.52118 -4.87122,0.73788 -1.08202,0.16411 -2.78398,0.60369 -5.10589,1.32066 -4.21731,1.30227 -8.10983,3.58342 -11.68411,6.84067 -3.54007,3.19001 -7.374,7.97104 -11.49487,14.34401 l -3.25884,-13.01865 -13.36463,4.12648 22.08515,88.13432 13.36462,-4.12648 -15.68101,-62.56937 c 2.74986,-4.30613 5.79193,-8.05096 9.12928,-11.23504 3.32416,-3.23668 7.05059,-5.49247 11.17315,-6.76546 2.55882,-0.79015 4.79298,-1.33967 6.70692,-1.64732 1.94814,-0.37488 3.98309,-0.60703 6.1051,-0.69558 l 0.71158,-0.21854 z m -106.4742,7.65139 -13.05805,5.19101 7.98623,24.74952 -8.82271,3.50845 3.92877,12.18206 8.82271,-3.5061 14.77263,45.79789 c 3.36602,10.43475 7.87313,17.19847 13.5198,20.28934 5.64667,3.09086 12.42962,3.06295 20.34786,-0.0846 2.26897,-0.90194 4.7649,-2.15606 7.48661,-3.7599 2.76801,-1.62225 5.26079,-3.27963 7.48282,-4.97482 l -4.20128,-13.03038 -0.69642,0.27494 c -0.86949,0.86757 -2.34525,2.12227 -4.42839,3.76224 -2.09971,1.58858 -4.21351,2.80509 -6.34356,3.6518 -3.65813,1.45413 -6.54044,2.07793 -8.6448,1.87055 -2.07467,-0.27719 -3.9538,-1.24161 -5.63578,-2.89276 -1.82433,-1.76856 -3.23387,-3.87388 -4.23157,-6.31898 -1.0143,-2.49652 -2.25008,-6.00662 -3.70924,-10.53006 l -12.66064,-39.24628 26.94879,-10.71335 -3.92877,-12.18206 -26.94879,10.71335 z m 616.80557,15.58947 c -5.7162,0.078 -11.1219,1.72627 -16.2147,4.94661 -8.9916,5.69118 -15.669,15.58598 -20.0337,29.68203 -4.3648,14.09605 -4.579,26.45686 -0.6397,37.08198 3.9858,10.64289 11.4929,18.06641 22.5166,22.27269 10.9307,4.17078 20.9123,3.41984 29.9503,-2.25359 9.038,-5.67342 15.7409,-15.55778 20.1056,-29.65383 4.3647,-14.09604 4.5535,-26.4673 0.5677,-37.11018 -3.9698,-10.69451 -11.4193,-18.12539 -22.3501,-22.29618 -4.8228,-1.84025 -9.4562,-2.73019 -13.902,-2.66953 z m 84.9795,2.02799 -5.6888,14.6683 14.3639,6.86651 5.6887,-14.6683 z m -83.8819,11.54288 c 2.8325,-0.0906 5.8038,0.45696 8.9173,1.64496 7.0236,2.67996 11.6659,7.51027 13.9248,14.49205 2.2749,6.93014 1.6791,15.99831 -1.7903,27.20285 -3.3894,10.94639 -7.9481,18.44345 -13.675,22.49358 -5.6643,4.01624 -11.9855,4.69491 -18.9625,2.03269 -7.0701,-2.6977 -11.7168,-7.59029 -13.9438,-14.67534 -2.2109,-7.13668 -1.6391,-16.12709 1.7184,-26.97021 3.4694,-11.20455 7.9983,-18.772 13.5842,-22.70273 3.1772,-2.23008 6.5851,-3.40137 10.2269,-3.51785 z m 73.549,17.57986 -32.5921,84.02195 12.7401,6.08868 32.5921,-84.02193 z m -741.92438,5.41426 c -5.59757,-0.16603 -11.3523,1.25932 -17.25934,4.27454 -10.59076,5.40601 -17.38156,13.6476 -20.37055,24.72837 -2.96485,11.00834 -1.63926,23.28576 3.9704,36.82819 5.60966,13.54241 13.14181,22.64616 22.59988,27.31328 9.50278,4.64433 19.54874,4.26394 30.1395,-1.14207 10.5014,-5.36037 17.25883,-13.55621 20.26837,-24.58737 3.00953,-11.03114 1.70738,-23.31867 -3.90227,-36.86108 -5.60967,-13.54241 -13.16525,-22.63609 -22.66803,-27.2804 -4.16645,-2.05358 -8.4243,-3.14432 -12.77796,-3.27346 z m -2.43371,13.69778 c 3.18104,-0.0313 6.26593,0.7819 9.25417,2.44158 5.95594,3.26975 11.16529,10.28858 15.62424,21.05307 4.35622,10.51645 5.71917,19.4349 4.09531,26.75402 -1.59971,7.24668 -5.74943,12.57917 -12.45245,16.0007 -6.79239,3.46715 -13.19857,3.49142 -19.21615,0.0728 -6.03814,-3.46819 -11.2145,-10.41024 -15.52963,-20.82748 -4.45895,-10.76449 -5.88825,-19.70924 -4.29212,-26.83391 1.62026,-7.1971 5.84626,-12.54131 12.68335,-16.03126 3.37384,-1.72217 6.65223,-2.59834 9.83328,-2.62957 z m -90.86889,0.88827 -11.66521,7.86289 46.55859,85.12639 -87.17101,-57.75201 -19.35997,13.0492 57.01257,104.23607 11.66519,-7.86287 -51.00208,-93.24543 95.52815,63.23676 15.45013,-10.41492 z m 877.42908,0.91883 -37.0319,81.7237 12.3919,6.91821 26.2864,-58.01755 c 4.6437,-1.13526 9.1663,-1.63778 13.5653,-1.50397 4.421,0.0851 8.5427,1.19536 12.3654,3.32986 2.3727,1.32486 4.3619,2.58738 5.965,3.78811 1.6692,1.17647 3.315,2.52366 4.9394,4.04187 l 0.6586,0.36894 6.4003,-14.12075 c -1.7786,-1.42096 -3.1312,-2.4505 -4.0537,-3.08783 -0.9003,-0.68608 -2.4267,-1.62947 -4.5797,-2.83167 -3.9106,-2.18356 -8.1745,-3.40471 -12.7931,-3.6612 -4.5526,-0.28071 -10.2847,0.40012 -17.195,2.04211 l 5.4692,-12.07162 z m 72.6255,47.1961 c -3.2397,0.003 -6.4894,0.50641 -9.7501,1.50395 -10.3921,3.22075 -19.1191,11.19926 -26.1842,23.9388 -7.1424,12.87901 -9.3927,25.06261 -6.7523,36.54854 2.6661,11.43945 9.8206,21.13724 21.4644,29.09455 4.5653,3.11995 9.2675,5.46909 14.1103,7.04746 4.8427,1.57835 9.7698,2.79705 14.7801,3.6565 l 7.9295,-14.29702 -0.6283,-0.43004 c -3.1868,0.64322 -7.8007,0.37555 -13.8453,-0.80602 -5.977,-1.19943 -11.3529,-3.4319 -16.1277,-6.69497 -3.602,-2.46161 -6.6037,-5.28066 -9.0005,-8.45742 -2.355,-3.14812 -4.0029,-6.58195 -4.9432,-10.30211 -0.9982,-3.8239 -1.1646,-7.94679 -0.5034,-12.36771 0.6871,-4.46741 2.3554,-9.09447 5.0113,-13.88342 l 51.7061,35.33598 3.9476,-7.1156 c 6.2658,-11.2982 8.5233,-21.77477 6.7751,-31.43274 -1.7063,-9.62933 -7.2901,-17.67905 -16.7559,-24.14793 -7.0261,-4.80158 -14.1062,-7.19908 -21.2335,-7.1908 z m 0.598,12.81184 c 4.5971,-0.0681 9.2685,1.51702 14.0118,4.75862 6.2826,4.29352 9.9052,9.36966 10.8742,15.22523 1.0108,5.88419 -0.3703,12.27975 -4.1446,19.18958 l -40.2074,-27.4778 c 3.9062,-5.79381 8.8712,-9.4847 14.8938,-11.07524 1.5161,-0.39048 3.0398,-0.59765 4.5722,-0.62039 z" />
      <path
         style="fill:none;stroke:#ffffff;stroke-width:4.95596;stroke-dasharray:4.95596, 4.95596;stroke-dashoffset:0;stroke-opacity:1;paint-order:stroke fill markers"
         d="M 525.35506,595.48088 C 611.81658,556.1334 688.93684,504.55683 862.78812,566.7578"
         id="path8378-7"
         sodipodi:nodetypes="cc" />
      <path
         id="path6348"
         style="display:none;fill:none;stroke:#000000;stroke-width:2.04832;paint-order:stroke fill markers"
         d="m 934.69582,320.99658 c -179.59824,5.2524 -361.4369,93.87125 -495.46785,281.13685 H 1463.8611 C 1338.9106,416.1707 1138.2405,315.04386 934.69582,320.99658 Z m 85.38828,5.60694 c 20.5883,-0.0272 39.7527,12.96163 38.1976,39.04418 -0.4501,7.55052 -2.2174,15.03534 -3.5351,22.53823 -1.4069,8.72403 -2.1702,17.48076 -2.9598,26.23232 -0.2132,3.8143 -0.899,7.60503 -1.4761,11.40189 -7.9002,51.96988 -92.5262,46.98364 -84.55186,-4.98186 0.47916,-3.12248 1.09314,-6.23015 1.23011,-9.36919 0.87438,-9.69095 1.74163,-19.38683 3.33453,-29.0452 0.99493,-5.58163 2.14365,-11.21914 3.02795,-16.77619 4.13324,-25.97396 26.14443,-39.01703 46.73267,-39.04418 z" />
      <path
         style="fill:none;stroke:#ffffff;stroke-width:5.64367;stroke-dasharray:5.64367, 5.64367;stroke-dashoffset:0;stroke-opacity:1;paint-order:stroke fill markers"
         d="m 527.02769,319.39051 c 108.3514,-36.49782 203.88667,-93.19244 379.12292,-43.82862"
         id="path8378"
         sodipodi:nodetypes="cc" />
      <path
         style="fill:none;stroke:#ffffff;stroke-width:5.25809;stroke-dasharray:5.25809, 5.25809;stroke-dashoffset:0;stroke-opacity:1;paint-order:stroke fill markers"
         d="m 1161.0244,269.09704 c 96.6132,-39.63719 148.8224,-11.39577 343.0861,51.26328"
         id="path8378-76"
         sodipodi:nodetypes="cc" />
      <path
         style="fill:none;stroke:#ffffff;stroke-width:5.44675;stroke-dasharray:5.44675, 5.44675;stroke-dashoffset:0;stroke-opacity:1;paint-order:stroke fill markers"
         d="m 1175.9319,208.35344 c 105.4659,-38.96252 162.4589,-11.20179 374.523,50.39064"
         id="path8378-76-4"
         sodipodi:nodetypes="cc" />
      <path
         style="fill:none;stroke:#ffffff;stroke-width:6.52387;stroke-dasharray:6.52387, 6.52387;stroke-dashoffset:0;stroke-opacity:1;paint-order:stroke fill markers"
         d="M 508.75276,270.58249 C 628.21628,221.23553 734.77293,156.55167 974.98243,234.55994"
         id="path8378-1"
         sodipodi:nodetypes="cc" />
      <path
         style="fill:none;stroke:#ffffff;stroke-width:6.15836;stroke-dasharray:6.15836, 6.15836;stroke-dashoffset:0;stroke-opacity:1;paint-order:stroke fill markers"
         d="m 1101.7861,541.16454 c 99.5716,-42.10876 153.3794,-12.10633 353.5915,54.45984"
         id="path8378-76-9"
         sodipodi:nodetypes="cc"
         inkscape:label="path8378-76-9" />
    </g>
  </g>
</svg>
