<?xml version="1.0" encoding="UTF-8" standalone="no"?>
<!-- Created with Inkscape (http://www.inkscape.org/) -->

<svg
   width="26.458332mm"
   height="26.458332mm"
   viewBox="0 0 26.458332 26.458331"
   version="1.1"
   id="svg5"
   xml:space="preserve"
   inkscape:version="1.2.2 (732a01da63, 2022-12-09)"
   sodipodi:docname="instagram-logo.svg"
   xmlns:inkscape="http://www.inkscape.org/namespaces/inkscape"
   xmlns:sodipodi="http://sodipodi.sourceforge.net/DTD/sodipodi-0.dtd"
   xmlns="http://www.w3.org/2000/svg"
   xmlns:svg="http://www.w3.org/2000/svg"><sodipodi:namedview
     id="namedview7"
     pagecolor="#505050"
     bordercolor="#eeeeee"
     borderopacity="1"
     inkscape:showpageshadow="0"
     inkscape:pageopacity="0"
     inkscape:pagecheckerboard="0"
     inkscape:deskcolor="#505050"
     inkscape:document-units="mm"
     showgrid="false"
     inkscape:zoom="3.0596786"
     inkscape:cx="71.085898"
     inkscape:cy="90.859217"
     inkscape:window-width="1920"
     inkscape:window-height="974"
     inkscape:window-x="-11"
     inkscape:window-y="-11"
     inkscape:window-maximized="1"
     inkscape:current-layer="layer1" /><defs
     id="defs2" /><g
     inkscape:label="Calque 1"
     inkscape:groupmode="layer"
     id="layer1"><path
       style="fill:#ffffff;stroke-width:0.600406"
       d="M 1.7523524,24.700613 0,22.94289 V 13.229167 3.5154433 L 1.7523524,1.7577228 3.5047026,0 h 9.6840444 9.684047 l 1.79277,1.798266 1.792769,1.7982637 -0.19028,9.9810323 -0.190303,9.981032 -1.682023,1.449869 c -1.626184,1.401738 -2.000866,1.44987 -11.286525,1.44987 H 3.5047026 Z M 22.660667,22.730115 c 0.456386,-0.457785 0.719386,-2.766101 0.719386,-6.313921 0,-5.564268 -0.0075,-5.59233 -1.49872,-5.59233 -1.317159,0 -1.498723,0.258584 -1.498723,2.134503 0,4.308822 -3.053581,7.486708 -7.193863,7.486708 -4.1402792,0 -7.1938598,-3.177886 -7.1938598,-7.486708 0,-1.875919 -0.1815574,-2.134503 -1.498723,-2.134503 -1.4912005,0 -1.4987208,0.02807 -1.4987208,5.59233 0,3.54782 0.2630009,5.856136 0.7193865,6.313921 1.0041092,1.007184 17.9397281,1.007184 18.9438371,0 z m -6.474476,-6.494319 c 0.666099,-0.66814 1.198977,-2.004418 1.198977,-3.006629 0,-3.6870847 -4.599167,-5.6092757 -7.193862,-3.006628 -2.5946959,2.602648 -0.6783775,7.215909 2.997441,7.215909 0.999149,0 2.331346,-0.534514 2.997444,-1.202652 z M 22.780566,5.4119322 c 0,-1.6035343 -0.19982,-1.8039776 -1.798466,-1.8039776 -1.598637,0 -1.798466,0.200432 -1.798466,1.8039776 0,1.6035364 0.19982,1.8039773 1.798466,1.8039773 1.598635,0 1.798466,-0.2004319 1.798466,-1.8039773 z"
       id="path181" /></g></svg>
