<?xml version="1.0" encoding="UTF-8" standalone="no"?>
<!-- Created with Inkscape (http://www.inkscape.org/) -->

<svg
   width="27.044716mm"
   height="27.175154mm"
   viewBox="0 0 27.044716 27.175154"
   version="1.1"
   id="svg5"
   xml:space="preserve"
   inkscape:version="1.2.2 (732a01da63, 2022-12-09)"
   sodipodi:docname="iconFaq.svg"
   xmlns:inkscape="http://www.inkscape.org/namespaces/inkscape"
   xmlns:sodipodi="http://sodipodi.sourceforge.net/DTD/sodipodi-0.dtd"
   xmlns="http://www.w3.org/2000/svg"
   xmlns:svg="http://www.w3.org/2000/svg"><sodipodi:namedview
     id="namedview7"
     pagecolor="#505050"
     bordercolor="#eeeeee"
     borderopacity="1"
     inkscape:showpageshadow="0"
     inkscape:pageopacity="0"
     inkscape:pagecheckerboard="0"
     inkscape:deskcolor="#505050"
     inkscape:document-units="mm"
     showgrid="false"
     inkscape:zoom="3.3743243"
     inkscape:cx="-18.522227"
     inkscape:cy="-20.448538"
     inkscape:window-width="1920"
     inkscape:window-height="974"
     inkscape:window-x="-11"
     inkscape:window-y="-11"
     inkscape:window-maximized="1"
     inkscape:current-layer="g868" /><defs
     id="defs2" /><g
     inkscape:label="Calque 1"
     inkscape:groupmode="layer"
     id="layer1"
     transform="translate(-45.714943,-70.794394)"><g
       id="g868"
       transform="matrix(0.43440069,0,0,0.62732402,26.609564,-0.29201392)"
       style="fill:#ffffff;fill-opacity:1;stroke:#000000;stroke-width:1.95776;stroke-dasharray:none;stroke-opacity:1"><path
         style="display:inline;fill:#ffffff;fill-opacity:1;stroke:#ffffff;stroke-width:1.38307581;stroke-dasharray:none;stroke-opacity:1;paint-order:stroke fill markers"
         d="m 58.345406,153.6675 c -3.142665,-2.09893 -3.589566,-2.31421 -5.703088,-2.74723 -3.592104,-0.73594 -5.675481,-2.04779 -7.099742,-4.47052 l -0.717491,-1.22048 -0.07576,-12.58524 -0.07576,-12.58524 0.750494,-1.43661 c 0.961696,-1.8409 2.791322,-3.25096 5.221856,-4.02439 l 1.852083,-0.58936 h 22.754166 22.754165 l 1.719792,0.59648 c 2.403279,0.83352 4.198509,2.24875 5.093239,4.0151 l 0.7276,1.43644 -0.003,12.32182 -0.003,12.32183 -0.61735,1.32292 c -1.10547,2.36888 -3.87267,4.29215 -7.039728,4.89277 -0.829133,0.15724 -6.953467,0.26676 -14.929601,0.26697 l -13.52366,3.7e-4 -3.571875,2.38051 c -1.964531,1.30928 -3.691645,2.38068 -3.838031,2.38088 -0.146386,2.1e-4 -1.800596,-1.02445 -3.676022,-2.27702 z m 7.442449,-1.64339 3.199103,-2.14326 11.779678,-0.0624 2.73001,-0.0145 c 14.362184,-0.0761 14.524693,-0.0829 15.985889,-0.67426 1.883265,-0.76217 3.485505,-2.13445 4.189085,-3.58786 0.53549,-1.10617 0.55243,-1.51213 0.55243,-13.239 0,-13.81005 0.0673,-13.37143 -2.31596,-15.10094 -2.704595,-1.96272 -1.36884,-1.86228 -25.836345,-1.94271 -13.913058,-0.0457 -22.476205,0.0254 -23.415624,0.19464 -2.257336,0.40655 -4.746209,1.77732 -5.703235,3.14111 l -0.804885,1.14698 -0.07383,12.31351 c -0.0724,12.07651 -0.06304,12.33579 0.486281,13.47055 1.095476,2.26295 3.955848,3.96053 7.183513,4.26328 1.35372,0.12698 1.84818,0.37048 4.762499,2.34533 1.788572,1.21201 3.438775,2.16519 3.667116,2.11819 0.228342,-0.047 1.854764,-1.04993 3.614271,-2.22873 z m 33.784676,-9.94857 c -0.448279,-0.19519 -1.304597,-0.66393 -1.902931,-1.04164 -1.063892,-0.67161 -1.113007,-0.67751 -2.227657,-0.26775 -0.676024,0.24852 -2.054833,0.42932 -3.388735,0.44437 -1.886239,0.0213 -2.485607,-0.0837 -3.71624,-0.65053 -2.084665,-0.96029 -3.287461,-2.12492 -4.281971,-4.14611 -0.825799,-1.67831 -0.865331,-1.89814 -0.865331,-4.81196 0,-2.91409 0.03946,-3.13344 0.865331,-4.81066 0.981363,-1.99299 2.210784,-3.19808 4.149679,-4.06758 4.495427,-2.01596 9.902851,-0.0695 11.814834,4.25282 0.99661,2.25299 1.10075,6.1069 0.23585,8.72757 -0.17236,0.52225 -0.728999,1.49404 -1.236975,2.15952 -0.507977,0.66548 -0.824434,1.30662 -0.703239,1.42475 0.121195,0.11812 0.845285,0.52708 1.609093,0.9088 l 1.388751,0.69403 -0.40335,0.77998 c -0.22184,0.429 -0.43006,0.77533 -0.4627,0.76964 -0.0327,-0.006 -0.42613,-0.17006 -0.874409,-0.36525 z m -5.733386,-2.96616 c 0.854363,-0.22896 0.740267,-0.48125 -0.463021,-1.02386 -1.138285,-0.5133 -1.129808,-0.50009 -0.891569,-1.38906 0.213461,-0.79653 0.705305,-0.75095 2.435931,0.22575 l 1.454854,0.82107 0.478838,-0.62263 c 1.211802,-1.57571 1.416738,-2.37382 1.416738,-5.51742 0,-2.91516 -0.03445,-3.10372 -0.821817,-4.49792 -1.123281,-1.98902 -2.722166,-2.98216 -5.038513,-3.12965 -4.121912,-0.26247 -6.647598,2.23894 -6.910152,6.84371 -0.224941,3.94512 1.102873,6.74633 3.774649,7.96315 1.049139,0.47781 3.378334,0.64462 4.564062,0.32686 z M 49.98446,131.60323 v -9.525 h 6.349999 6.35 v 1.05833 1.05833 h -5.159375 -5.159375 v 3.04271 3.04271 h 4.497917 4.497916 v 1.05833 1.05834 h -4.497916 -4.497917 v 4.36562 4.36563 H 51.175085 49.98446 Z m 14.287499,9.28972 c 0,-0.12941 1.237537,-3.4334 2.750081,-7.34219 1.512544,-3.9088 3.130884,-8.09525 3.596312,-9.30322 l 0.84623,-2.19631 1.223026,0.0796 1.223023,0.0797 2.551274,6.21771 c 1.403199,3.41974 3.156,7.68218 3.895108,9.4721 l 1.343838,3.25438 -1.353085,-0.0794 -1.353081,-0.0794 -1.085409,-2.77812 -1.085408,-2.77813 -4.093561,-0.0725 -4.093562,-0.0725 -1.043237,2.91681 -1.043238,2.9168 h -1.139155 c -0.626536,0 -1.139156,-0.10588 -1.139156,-0.23528 z m 11.525405,-8.15273 c -0.09508,-0.24778 -0.767791,-2.06348 -1.494909,-4.0349 -1.899896,-5.15113 -1.71056,-4.83629 -2.07596,-3.45209 -0.172865,0.65484 -0.84273,2.60278 -1.488585,4.32874 -0.645856,1.72597 -1.174285,3.24401 -1.174285,3.37344 0,0.12942 1.441487,0.23532 3.203308,0.23532 2.908173,0 3.18738,-0.0415 3.030431,-0.45051 z"
         id="path870"
         sodipodi:nodetypes="ccscccscccccccccssccscccccccssscccccccsssccsssccssscssssscscssssscssscssscccccccccccccccccccccssscccsccccccccccssssssssss" /></g></g></svg>
