<?xml version="1.0" encoding="UTF-8" standalone="no"?>
<!-- Created with Inkscape (http://www.inkscape.org/) -->

<svg
   width="27.689508mm"
   height="25.5098mm"
   viewBox="0 0 27.689508 25.5098"
   version="1.1"
   id="svg8681"
   inkscape:version="1.2.2 (732a01da63, 2022-12-09)"
   sodipodi:docname="iconFormation1.svg"
   xmlns:inkscape="http://www.inkscape.org/namespaces/inkscape"
   xmlns:sodipodi="http://sodipodi.sourceforge.net/DTD/sodipodi-0.dtd"
   xmlns="http://www.w3.org/2000/svg"
   xmlns:svg="http://www.w3.org/2000/svg">
  <sodipodi:namedview
     id="namedview8683"
     pagecolor="#505050"
     bordercolor="#eeeeee"
     borderopacity="1"
     inkscape:showpageshadow="0"
     inkscape:pageopacity="0"
     inkscape:pagecheckerboard="0"
     inkscape:deskcolor="#505050"
     inkscape:document-units="mm"
     showgrid="false"
     inkscape:zoom="2.7652076"
     inkscape:cx="27.484374"
     inkscape:cy="40.503288"
     inkscape:window-width="1920"
     inkscape:window-height="974"
     inkscape:window-x="-11"
     inkscape:window-y="-11"
     inkscape:window-maximized="1"
     inkscape:current-layer="layer1" />
  <defs
     id="defs8678">
    <clipPath
       clipPathUnits="userSpaceOnUse"
       id="clipPath1724">
      <path
         id="path1726"
         style="fill:#ff0000;fill-opacity:1;fill-rule:nonzero;stroke:none"
         d="m 0.073902,0.11076 v 51.40821 c 6.60795,-6.16245 13.99429,-11.31685 22.57227,-14.92774 28.95051,-12.18665 51.89471,4.46339 69.42383,25.55664 11.393768,-9.43606 24.188508,-17.13498 37.703118,-23.17578 5.17893,-1.99318 10.30581,-4.12921 15.53711,-5.98047 3.11461,-1.10219 6.3139,-1.95234 9.48633,-2.875 13.66821,-3.97523 27.50777,-7.31365 41.49023,-9.98633 17.1879,-3.52601 34.37317,-7.56342 51.9668,-8.34765 4.57444,0.10174 9.16562,-0.0849 13.72461,0.30469 17.47354,1.49327 36.98907,6.16197 51.9668,15.57421 8.70838,5.47247 17.52461,11.2702 24.31835,18.99219 8.72925,9.92198 14.41676,22.1521 21.625,33.22852 2.23389,7.44718 4.71623,14.8244 6.70118,22.34179 0.75373,2.85448 1.02273,5.81535 1.50195,8.72852 0.0536,0.32575 0.10163,0.65258 0.1543,0.97852 2.29439,-1.75392 4.55204,-3.55391 6.97461,-5.14649 11.14452,-7.66326 12.34437,-8.80234 24.4414,-15.75781 16.33883,-9.39439 33.64847,-17.08316 50.95313,-24.47656 7.81003,-2.97871 15.56947,-6.02162 23.32617,-9.13282 7.58262,-3.04135 19.98105,-8.07583 27.08984,-9.19921 10.92049,-1.72577 22.04554,-1.71236 33.06836,-2.56836 15.99015,5.78358 32.60146,10.07691 47.97071,17.35156 5.67714,2.68715 9.93418,7.73783 14.38868,12.16601 13.6158,13.53563 22.7745,30.50637 29.1289,48.43555 1.2446,4.21776 2.6146,8.40166 3.7344,12.6543 2.8303,10.74899 4.9121,22.30361 5.9492,33.34961 0.5521,5.88074 1.4647,11.8016 1.0195,17.6914 -0.8509,11.25542 -3.2587,22.33858 -4.8886,33.50782 -10.7706,15.86645 -20.4638,32.52107 -32.3126,47.59961 -1.8004,2.29135 -4.2898,3.86608 -6.8574,5.35156 14.3658,4.11297 27.36,11.57887 40.9219,17.64258 7.7233,3.75342 15.5603,7.21669 23.3457,10.84765 6.8788,3.4688 8.899,3.36858 17.3145,7.17578 2.8918,1.30826 5.7183,2.75404 8.5781,4.13086 7.508,3.76595 14.1952,8.6022 20.8633,13.58594 1.1838,-0.0553 2.3683,-0.10409 3.5547,-0.0996 44.7549,0.16911 90.7191,42.9202 95.4335,130.70508 0.504,9.38455 0.8106,18.77614 1.0918,28.16992 0.1542,5.14989 0.1427,10.14648 0.014,15.02539 h 196.5313 V 0.11076 Z M 493.90984,119.06975 c 0.28203,-0.19944 -0.65676,0.23144 -0.95117,0.41211 -1.18331,0.72618 -2.45757,1.35974 -3.65625,2.07812 1.61325,-0.71014 3.18603,-1.48511 4.60742,-2.49023 z m 72.73828,137.51562 c 0.43492,1.64707 1.61143,4.19091 2.75195,6.54688 -0.14852,-0.69916 -0.3091,-1.39798 -0.61914,-2.27149 -0.47611,-1.34138 -0.89971,-2.71068 -1.53515,-3.98437 -0.0989,-0.19809 -0.65416,-0.50509 -0.59766,-0.29102 z M 139.32,445.44475 c 0.0252,0.46585 -0.0612,0.78886 -0.0195,1.57031 0.0683,0.21703 0.21008,0.87784 0.20508,0.65039 -0.0173,-0.75427 -0.13307,-1.47741 -0.18554,-2.2207 z m 459.91018,31.49414 c 0.3289,0.18711 0,-0.0179 0.3808,0.19922 0.6906,0.27914 1.369,0.59219 2.0723,0.83789 0.1765,0.0617 -0.3111,-0.21291 -0.4844,-0.28321 -0.6511,-0.26427 -1.3106,-0.50726 -1.9687,-0.7539 z m -51.13479,20.86523 c -1.17223,1.08438 -2.40575,2.08792 -3.60547,3.13672 h 7.69336 c -1.35668,-1.05352 -2.73163,-2.08269 -4.08789,-3.13672 z" />
    </clipPath>
  </defs>
  <g
     inkscape:label="Calque 1"
     inkscape:groupmode="layer"
     id="layer1"
     transform="translate(-46.564369,-142.97818)">
    <path
       id="rect887"
       style="fill:#0d8800;fill-opacity:1;fill-rule:evenodd;stroke:#004b14;stroke-width:0.881001;stroke-dasharray:none;stroke-opacity:1"
       d="m 112.53348,160.3848 h 37.4277 c 4.27361,0 7.7141,-5.62902 7.7141,-12.62113 v -0.63237 c 0,-6.9921 -3.44049,-12.62113 -7.7141,-12.62113 h -37.4277 z"
       sodipodi:nodetypes="csssscc" />
    <text
       xml:space="preserve"
       style="font-size:22.1608px;text-align:center;text-anchor:middle;fill:#ff0000;fill-rule:evenodd;stroke:#ffffff;stroke-width:0.419952;stroke-linecap:round;stroke-linejoin:round;paint-order:markers stroke fill"
       x="-227.85904"
       y="-93.185097"
       id="text5657"
       transform="scale(-0.57355291,-1.7435183)"><tspan
         sodipodi:role="line"
         id="tspan5655"
         style="fill:#ff0000;stroke-width:0.419952"
         x="-227.85904"
         y="-93.185097">&lt;</tspan></text>
    <g
       id="g6897"
       transform="matrix(0.04777048,0,0,0.03897509,5.2068566,131.17123)">
      <g
         id="g13500">
        <g
           id="g2904"
           transform="matrix(1.8853501,-1.2658581,0.746675,0.88081104,777.82704,555.40531)"
           style="stroke:#ffffff;stroke-opacity:1">
          <g
             id="g2171"
             transform="translate(-7.8460051,9.9510309)"
             style="stroke:#ffffff;stroke-opacity:1">
            <path
               id="rect440"
               style="fill:none;stroke:#47b147;stroke-width:8;stroke-linecap:round;stroke-linejoin:bevel;stroke-opacity:1"
               d="m 211.54495,86.496998 0.40595,66.900482 H 83.244174 l 0.947213,-57.504472"
               sodipodi:nodetypes="cccc" />
            <path
               id="rect442"
               style="fill:none;stroke:#47b147;stroke-width:9.4;stroke-linecap:round;stroke-linejoin:bevel;stroke-opacity:1"
               d="M 137.89844,4.2240403 250.32206,59.076395 146.17022,119.29204 47.27822,74.72371 Z"
               sodipodi:nodetypes="ccccc" />
            <path
               style="fill:none;stroke:#47b147;stroke-width:9.88141;stroke-linecap:round;stroke-linejoin:bevel;stroke-dasharray:none;stroke-opacity:1"
               d="M 137.8342,63.139982 17.086883,124.44755 4.9407048,157.60368"
               id="path1177" />
          </g>
          <ellipse
             style="fill:none;stroke:#47b147;stroke-width:7.99999;stroke-linecap:round;stroke-linejoin:bevel;stroke-dasharray:none;stroke-opacity:1"
             id="path1231"
             cx="129.16017"
             cy="72.790062"
             rx="5.6832795"
             ry="8.1189709" />
        </g>
        <g
           id="g1676"
           transform="matrix(1.0165036,0,0,1,429.00849,456.51033)"
           clip-path="url(#clipPath1724)"
           style="fill:#34c434;fill-opacity:1;stroke:#ffffff;stroke-width:3.37473;stroke-dasharray:none;stroke-opacity:1">
          <path
             style="fill:#34c434;fill-opacity:1;stroke:#47b147;stroke-width:3.37473;stroke-dasharray:none;stroke-opacity:1"
             d="m 976,499.83333 c 0,-0.64166 0.3063,-0.86036 0.68067,-0.486 0.37436,0.37437 2.06186,-0.56313 3.75,-2.08333 L 983.5,494.5 l -2.93709,3.25 C 977.50438,501.13437 976,501.82124 976,499.83333 Z M 977.19495,494.5 c 0.0204,-1.65 0.2445,-2.20394 0.49804,-1.23097 0.25354,0.97297 0.23687,2.32297 -0.0371,3 -0.27393,0.67703 -0.48137,-0.11903 -0.46099,-1.76903 z m -146.65082,-1.63904 c 0.3734,-1.17647 0.68448,-5.11397 0.6913,-8.75 0.009,-4.85764 0.22015,-5.8878 0.79576,-3.88426 0.97536,3.39494 0.0223,14.7733 -1.23747,14.7733 -0.51067,0 -0.62299,-0.96257 -0.24959,-2.13904 z M 973.92431,481.25 971.5,478.5 l 2.75,2.42431 c 1.5125,1.33338 2.75,2.57088 2.75,2.75 0,0.78428 -0.8098,0.14598 -3.07569,-2.42431 z m -140.84536,-7.83333 c 0.048,-1.16495 0.28494,-1.4019 0.60416,-0.60417 0.28887,0.72187 0.25335,1.58438 -0.0789,1.91667 -0.33229,0.33229 -0.56864,-0.25834 -0.52522,-1.3125 z m 126.52406,-4.25 c -0.28327,-0.45834 0.12038,-0.83334 0.89699,-0.83334 0.77661,0 1.18026,0.375 0.89699,0.83334 C 961.11373,469.625 960.71008,470 960.5,470 c -0.21008,0 -0.61373,-0.375 -0.89699,-0.83333 z M 832.19495,466.5 c 0.0204,-1.65 0.2445,-2.20394 0.49804,-1.23097 0.25354,0.97297 0.23687,2.32297 -0.0371,3 -0.27393,0.67703 -0.48137,-0.11903 -0.46099,-1.76903 z m 1.884,-4.08333 c 0.048,-1.16495 0.28494,-1.4019 0.60416,-0.60417 0.28887,0.72187 0.25335,1.58438 -0.0789,1.91667 -0.33229,0.33229 -0.56864,-0.25834 -0.52522,-1.3125 z m 156,-4 c 0.048,-1.16495 0.28494,-1.4019 0.60416,-0.60417 0.28887,0.72187 0.25335,1.58438 -0.0789,1.91667 -0.33229,0.33229 -0.56864,-0.25834 -0.52522,-1.3125 z M 994.15789,453 c 0,-1.375 0.22698,-1.9375 0.50439,-1.25 0.27741,0.6875 0.27741,1.8125 0,2.5 -0.27741,0.6875 -0.50439,0.125 -0.50439,-1.25 z M 833.38536,441 c 0,-6.875 0.15977,-9.6875 0.35504,-6.25 0.19527,3.4375 0.19527,9.0625 0,12.5 -0.19527,3.4375 -0.35504,0.625 -0.35504,-6.25 z m 157.77253,9 c 0,-1.375 0.22698,-1.9375 0.50439,-1.25 0.27741,0.6875 0.27741,1.8125 0,2.5 -0.27741,0.6875 -0.50439,0.125 -0.50439,-1.25 z M 835.232,448 c 0,-1.925 0.2058,-2.7125 0.45733,-1.75 0.25152,0.9625 0.25152,2.5375 0,3.5 -0.25153,0.9625 -0.45733,0.175 -0.45733,-1.75 z m 65.64044,-2.75 c -1.24387,-1.58606 -1.2085,-1.62143 0.37756,-0.37756 0.9625,0.75485 1.75,1.54235 1.75,1.75 0,0.82304 -0.82119,0.29331 -2.12756,-1.37244 z M 818.75,439.125 c -0.4125,-1.85625 -0.72148,-4.55625 -0.68661,-6 l 0.0634,-2.625 0.98413,2.46555 c 0.54127,1.35606 0.85025,4.05606 0.68661,6 L 819.5,442.5 Z m 135.32895,-2.70833 c 0.048,-1.16495 0.28494,-1.4019 0.60416,-0.60417 0.28887,0.72187 0.25335,1.58438 -0.0789,1.91667 -0.33229,0.33229 -0.56864,-0.25834 -0.52522,-1.3125 z m 2,-1 c 0.048,-1.16495 0.28494,-1.4019 0.60416,-0.60417 0.28887,0.72187 0.25335,1.58438 -0.0789,1.91667 -0.33229,0.33229 -0.56864,-0.25834 -0.52522,-1.3125 z m 36.65438,0.45924 c 0.67834,-0.68342 1.48524,-0.99067 1.79313,-0.68278 0.30789,0.30789 -0.24711,0.86705 -1.23333,1.24258 -1.4252,0.54268 -1.54006,0.42782 -0.5598,-0.5598 z M 988.5,434 c 0.33992,-0.55 0.81648,-1 1.05902,-1 0.24254,0 0.44098,0.45 0.44098,1 0,0.55 -0.47656,1 -1.05902,1 -0.58246,0 -0.7809,-0.45 -0.44098,-1 z m 6.57895,-4.58333 c 0.048,-1.16495 0.28494,-1.4019 0.60416,-0.60417 0.28887,0.72187 0.25335,1.58438 -0.0789,1.91667 -0.33229,0.33229 -0.56864,-0.25834 -0.52522,-1.3125 z m -177.7861,-9.91109 c 0.19946,-5.77193 0.66516,-10.79693 1.0349,-11.16666 C 818.69749,407.96918 819,412.69167 819,418.83333 819,425.86214 818.61651,430 817.9651,430 c -0.67049,0 -0.9072,-3.69528 -0.67225,-10.49442 z M 986,429.62244 c 0,-0.20765 0.7875,-0.99515 1.75,-1.75 1.58606,-1.24387 1.62143,-1.2085 0.37756,0.37756 C 986.82119,429.91575 986,430.44548 986,429.62244 Z M 955.27236,424 c 0,-2.475 0.19502,-3.4875 0.43337,-2.25 0.23836,1.2375 0.23836,3.2625 0,4.5 -0.23835,1.2375 -0.43337,0.225 -0.43337,-2.25 z M 957,422.94098 c 0,-1.68246 0.38965,-2.8182 0.86589,-2.52386 C 958.67146,420.91498 958.23201,426 957.38342,426 957.17254,426 957,424.62344 957,422.94098 Z m 27,2.68146 c 0,-0.20765 0.7875,-0.99515 1.75,-1.75 1.58606,-1.24387 1.62143,-1.2085 0.37756,0.37756 C 984.82119,425.91575 984,426.44548 984,425.62244 Z m 15.07895,-1.20577 c 0.048,-1.16495 0.28494,-1.4019 0.60416,-0.60417 0.28887,0.72187 0.25335,1.58438 -0.0789,1.91667 -0.33229,0.33229 -0.56864,-0.25834 -0.52522,-1.3125 z M 835.232,421 c 0,-1.925 0.2058,-2.7125 0.45733,-1.75 0.25152,0.9625 0.25152,2.5375 0,3.5 -0.25153,0.9625 -0.45733,0.175 -0.45733,-1.75 z m 161.02018,-1.5 c 0.0111,-2.2 0.21589,-2.98225 0.45508,-1.73834 0.23919,1.24391 0.23011,3.04391 -0.0202,4 -0.25029,0.95609 -0.446,-0.0617 -0.4349,-2.26166 z M 832.15789,418 c 0,-1.375 0.22698,-1.9375 0.50439,-1.25 0.27741,0.6875 0.27741,1.8125 0,2.5 -0.27741,0.6875 -0.50439,0.125 -0.50439,-1.25 z m 146.42876,0.0958 c -0.96791,-1.06953 -1.30169,-2.15383 -0.7651,-2.48546 0.52351,-0.32355 1.50381,0.0768 2.17845,0.88971 0.67464,0.81289 1.59453,1.25059 2.04421,0.97268 0.44968,-0.27792 1.14583,0.0645 1.54702,0.76101 0.40118,0.69647 0.36118,0.93271 -0.0889,0.52499 -0.45007,-0.40773 -1.35391,-0.29682 -2.00853,0.24646 -0.82107,0.68143 -1.72273,0.39938 -2.90715,-0.90939 z M 981,418.62244 c 0,-0.20765 -0.7875,-0.99515 -1.75,-1.75 -1.58606,-1.24387 -1.62143,-1.2085 -0.37756,0.37756 1.30637,1.66575 2.12756,2.19548 2.12756,1.37244 z m 18.07895,-4.20577 c 0.048,-1.16495 0.28494,-1.4019 0.60416,-0.60417 0.28887,0.72187 0.25335,1.58438 -0.0789,1.91667 -0.33229,0.33229 -0.56864,-0.25834 -0.52522,-1.3125 z m -165,-4 c 0.048,-1.16495 0.28494,-1.4019 0.60416,-0.60417 0.28887,0.72187 0.25335,1.58438 -0.0789,1.91667 -0.33229,0.33229 -0.56864,-0.25834 -0.52522,-1.3125 z M 925.5,408 c 2.14824,-2.2 4.1309,-4 4.4059,-4 0.275,0 -1.25766,1.8 -3.4059,4 -2.14824,2.2 -4.1309,4 -4.4059,4 -0.275,0 1.25766,-1.8 3.4059,-4 z m 43.06429,2.70687 c 0.37553,-0.98622 0.93469,-1.54122 1.24258,-1.23333 0.30789,0.30789 6.4e-4,1.11479 -0.68278,1.79313 -0.98762,0.98026 -1.10248,0.8654 -0.5598,-0.5598 z m -137.48534,-2.2902 c 0.048,-1.16495 0.28494,-1.4019 0.60416,-0.60417 0.28887,0.72187 0.25335,1.58438 -0.0789,1.91667 -0.33229,0.33229 -0.56864,-0.25834 -0.52522,-1.3125 z M 817.25218,403.5 c 0.0111,-2.2 0.21589,-2.98225 0.45508,-1.73834 0.23919,1.24391 0.23011,3.04391 -0.0202,4 -0.25029,0.95609 -0.446,-0.0617 -0.4349,-2.26166 z m 12.82677,-2.08333 c 0.048,-1.16495 0.28494,-1.4019 0.60416,-0.60417 0.28887,0.72187 0.25335,1.58438 -0.0789,1.91667 -0.33229,0.33229 -0.56864,-0.25834 -0.52522,-1.3125 z m 72.47384,-2.33126 c -0.32198,-0.52097 -0.15917,-1.21065 0.3618,-1.53262 0.52097,-0.32198 1.21065,-0.15917 1.53262,0.3618 0.32198,0.52097 0.15917,1.21065 -0.3618,1.53262 -0.52097,0.32198 -1.21065,0.15917 -1.53262,-0.3618 z m -83.47384,-3.66874 c 0.048,-1.16495 0.28494,-1.4019 0.60416,-0.60417 0.28887,0.72187 0.25335,1.58438 -0.0789,1.91667 -0.33229,0.33229 -0.56864,-0.25834 -0.52522,-1.3125 z M 818.15789,390 c 0,-1.375 0.22698,-1.9375 0.50439,-1.25 0.27741,0.6875 0.27741,1.8125 0,2.5 -0.27741,0.6875 -0.50439,0.125 -0.50439,-1.25 z M 904.5,390 c 0.99549,-1.1 2.03498,-2 2.30998,-2 0.275,0 -0.31449,0.9 -1.30998,2 -0.99549,1.1 -2.03498,2 -2.30998,2 -0.275,0 0.31449,-0.9 1.30998,-2 z m 6.05279,1.08541 c -0.32198,-0.52097 -0.15917,-1.21065 0.3618,-1.53262 0.52097,-0.32198 1.21065,-0.15917 1.53262,0.3618 0.32198,0.52097 0.15917,1.21065 -0.3618,1.53262 -0.52097,0.32198 -1.21065,0.15917 -1.53262,-0.3618 z m -90.47384,-4.66874 c 0.048,-1.16495 0.28494,-1.4019 0.60416,-0.60417 0.28887,0.72187 0.25335,1.58438 -0.0789,1.91667 -0.33229,0.33229 -0.56864,-0.25834 -0.52522,-1.3125 z m -1,-5 c 0.048,-1.16495 0.28494,-1.4019 0.60416,-0.60417 0.28887,0.72187 0.25335,1.58438 -0.0789,1.91667 -0.33229,0.33229 -0.56864,-0.25834 -0.52522,-1.3125 z M 930.75,378.33772 c 0.6875,-0.27741 1.8125,-0.27741 2.5,0 0.6875,0.27741 0.125,0.50439 -1.25,0.50439 -1.375,0 -1.9375,-0.22698 -1.25,-0.50439 z M 858.87244,376.25 c -1.24387,-1.58606 -1.2085,-1.62143 0.37756,-0.37756 1.66575,1.30637 2.19548,2.12756 1.37244,2.12756 -0.20765,0 -0.99515,-0.7875 -1.75,-1.75 z m 72.87756,0.0877 c 0.6875,-0.27741 1.8125,-0.27741 2.5,0 0.6875,0.27741 0.125,0.50439 -1.25,0.50439 -1.375,0 -1.9375,-0.22698 -1.25,-0.50439 z M 793.19495,373.5 c 0.0204,-1.65 0.2445,-2.20394 0.49804,-1.23097 0.25354,0.97297 0.23687,2.32297 -0.0371,3 -0.27393,0.67703 -0.48137,-0.11903 -0.46099,-1.76903 z M 982.29966,364 c 0,-3.025 0.18747,-4.2625 0.41659,-2.75 0.22913,1.5125 0.22913,3.9875 0,5.5 -0.22912,1.5125 -0.41659,0.275 -0.41659,-2.75 z m -190.22071,0.41667 c 0.048,-1.16495 0.28494,-1.4019 0.60416,-0.60417 0.28887,0.72187 0.25335,1.58438 -0.0789,1.91667 -0.33229,0.33229 -0.56864,-0.25834 -0.52522,-1.3125 z m 3,-2 c 0.048,-1.16495 0.28494,-1.4019 0.60416,-0.60417 0.28887,0.72187 0.25335,1.58438 -0.0789,1.91667 -0.33229,0.33229 -0.56864,-0.25834 -0.52522,-1.3125 z m 135.51898,-8.25822 c -0.28606,-0.46285 1.14988,-2.37535 3.19098,-4.25 L 937.5,346.5 l -3.26758,3.56575 c -1.79718,1.96116 -2.95968,3.87366 -2.58334,4.25 0.37634,0.37634 0.41081,0.68425 0.0766,0.68425 -0.3342,0 -0.84169,-0.3787 -1.12775,-0.84155 z m -12.5146,-0.44142 c 0.22917,-0.15563 1.31667,-0.94313 2.41667,-1.75 1.85001,-1.35701 1.89707,-1.33579 0.62756,0.28297 -0.75485,0.9625 -1.84235,1.75 -2.41667,1.75 -0.57432,0 -0.85672,-0.12734 -0.62756,-0.28297 z m 64.99562,-1.30036 c 0.048,-1.16495 0.28494,-1.4019 0.60416,-0.60417 0.28887,0.72187 0.25335,1.58438 -0.0789,1.91667 -0.33229,0.33229 -0.56864,-0.25834 -0.52522,-1.3125 z m 5,-9 c 0.048,-1.16495 0.28494,-1.4019 0.60416,-0.60417 0.28887,0.72187 0.25335,1.58438 -0.0789,1.91667 -0.33229,0.33229 -0.56864,-0.25834 -0.52522,-1.3125 z M 780.40499,337.75 778.5,335.5 l 2.25,1.90499 c 1.2375,1.04774 2.25,2.06024 2.25,2.25 0,0.80025 -0.80479,0.20945 -2.59501,-1.90499 z m 208.67396,-0.33333 c 0.048,-1.16495 0.28494,-1.4019 0.60416,-0.60417 0.28887,0.72187 0.25335,1.58438 -0.0789,1.91667 -0.33229,0.33229 -0.56864,-0.25834 -0.52522,-1.3125 z M 841,336.68709 c 0,-0.1721 1.4625,-1.6346 3.25,-3.25 l 3.25,-2.93709 -2.93709,3.25 C 841.82513,336.77946 841,337.45965 841,336.68709 Z M 878,334 c 0.825,-0.53316 1.95,-0.96937 2.5,-0.96937 0.55,0 0.325,0.43621 -0.5,0.96937 -0.825,0.53316 -1.95,0.96937 -2.5,0.96937 -0.55,0 -0.325,-0.43621 0.5,-0.96937 z m -12.25,-1.66228 c 0.6875,-0.27741 1.8125,-0.27741 2.5,0 0.6875,0.27741 0.125,0.50439 -1.25,0.50439 -1.375,0 -1.9375,-0.22698 -1.25,-0.50439 z m 5.0625,-1.02083 c 0.72187,-0.28887 1.58438,-0.25335 1.91667,0.0789 0.33229,0.33229 -0.25834,0.56864 -1.3125,0.52522 -1.16495,-0.048 -1.4019,-0.28494 -0.60417,-0.60416 z m 116.26645,-2.90022 c 0.048,-1.16495 0.28494,-1.4019 0.60416,-0.60417 0.28887,0.72187 0.25335,1.58438 -0.0789,1.91667 -0.33229,0.33229 -0.56864,-0.25834 -0.52522,-1.3125 z M 834.19495,326.5 c 0.0204,-1.65 0.2445,-2.20394 0.49804,-1.23097 0.25354,0.97297 0.23687,2.32297 -0.0371,3 -0.27393,0.67703 -0.48137,-0.11903 -0.46099,-1.76903 z m 156.884,-3.08333 c 0.048,-1.16495 0.28494,-1.4019 0.60416,-0.60417 0.28887,0.72187 0.25335,1.58438 -0.0789,1.91667 -0.33229,0.33229 -0.56864,-0.25834 -0.52522,-1.3125 z M 834.30987,316.5 c 0.006,-3.3 0.1923,-4.52944 0.41486,-2.73209 0.22256,1.79735 0.21797,4.49735 -0.0102,6 -0.22818,1.50265 -0.41027,0.0321 -0.40466,-3.26791 z m 153.76908,3.91667 c 0.048,-1.16495 0.28494,-1.4019 0.60416,-0.60417 0.28887,0.72187 0.25335,1.58438 -0.0789,1.91667 -0.33229,0.33229 -0.56864,-0.25834 -0.52522,-1.3125 z m 4,-5 c 0.048,-1.16495 0.28494,-1.4019 0.60416,-0.60417 0.28887,0.72187 0.25335,1.58438 -0.0789,1.91667 -0.33229,0.33229 -0.56864,-0.25834 -0.52522,-1.3125 z M 742.45295,311.75 738.5,307.5 l 4.25,3.95295 c 2.3375,2.17412 4.25,4.08662 4.25,4.25 0,0.75658 -0.87085,-4.9e-4 -4.54705,-3.95295 z m 6.41949,1.5 c -1.24387,-1.58606 -1.2085,-1.62143 0.37756,-0.37756 1.66575,1.30637 2.19548,2.12756 1.37244,2.12756 -0.20765,0 -0.99515,-0.7875 -1.75,-1.75 z m 23.20651,-0.83333 c 0.048,-1.16495 0.28494,-1.4019 0.60416,-0.60417 0.28887,0.72187 0.25335,1.58438 -0.0789,1.91667 -0.33229,0.33229 -0.56864,-0.25834 -0.52522,-1.3125 z M 989.15789,311 c 0,-1.375 0.22698,-1.9375 0.50439,-1.25 0.27741,0.6875 0.27741,1.8125 0,2.5 -0.27741,0.6875 -0.50439,0.125 -0.50439,-1.25 z m -158.07894,-1.58333 c 0.048,-1.16495 0.28494,-1.4019 0.60416,-0.60417 0.28887,0.72187 0.25335,1.58438 -0.0789,1.91667 -0.33229,0.33229 -0.56864,-0.25834 -0.52522,-1.3125 z M 902.40499,305.75 900.5,303.5 l 2.25,1.90499 c 1.2375,1.04774 2.25,2.06024 2.25,2.25 0,0.80025 -0.80479,0.20945 -2.59501,-1.90499 z M 771.232,303 c 0,-1.925 0.2058,-2.7125 0.45733,-1.75 0.25152,0.9625 0.25152,2.5375 0,3.5 -0.25153,0.9625 -0.45733,0.175 -0.45733,-1.75 z m 221.96295,0.5 c 0.0204,-1.65 0.2445,-2.20394 0.49804,-1.23097 0.25354,0.97297 0.23687,2.32297 -0.0371,3 -0.27393,0.67703 -0.48137,-0.11903 -0.46099,-1.76903 z m -223.86681,-6 c 0.004,-3.85 0.18518,-5.30246 0.40166,-3.2277 0.21647,2.07477 0.21284,5.22477 -0.008,7 -0.22091,1.77524 -0.39803,0.0777 -0.39359,-3.7723 z M 837,301.5 c 1.29175,-1.375 2.57363,-2.5 2.84863,-2.5 0.275,0 -0.55688,1.125 -1.84863,2.5 -1.29175,1.375 -2.57363,2.5 -2.84863,2.5 -0.275,0 0.55688,-1.125 1.84863,-2.5 z m -3.5,-1.5 c 0.99549,-1.1 2.03498,-2 2.30998,-2 0.275,0 -0.31449,0.9 -1.30998,2 -0.99549,1.1 -2.03498,2 -2.30998,2 -0.275,0 0.31449,-0.9 1.30998,-2 z m 73.5,-0.25 c 0,-0.87083 -0.5625,-1.81031 -1.25,-2.08772 -0.97906,-0.39506 -0.97226,-0.5215 0.0314,-0.58333 1.42594,-0.0879 2.81771,2.65529 1.84216,3.63084 C 907.28059,301.05274 907,300.62083 907,299.75 Z m 82.92091,-4.50091 c 0.47784,-3.45117 0.54755,-3.52089 0.87727,-0.87727 0.19699,1.5795 -0.0366,3.2666 -0.5191,3.7491 -0.50302,0.50302 -0.65582,-0.72209 -0.35817,-2.87183 z M 839,295.62244 c 0,-0.20765 0.7875,-0.99515 1.75,-1.75 1.58606,-1.24387 1.62143,-1.2085 0.37756,0.37756 C 839.82119,295.91575 839,296.44548 839,295.62244 Z M 771.232,292 c 0,-1.925 0.2058,-2.7125 0.45733,-1.75 0.25152,0.9625 0.25152,2.5375 0,3.5 -0.25153,0.9625 -0.45733,0.175 -0.45733,-1.75 z m 64.96295,-2.5 c 0.0204,-1.65 0.2445,-2.20394 0.49804,-1.23097 0.25354,0.97297 0.23687,2.32297 -0.0371,3 -0.27393,0.67703 -0.48137,-0.11903 -0.46099,-1.76903 z M 849,291.62244 c 0,-0.20765 0.7875,-0.99515 1.75,-1.75 1.58606,-1.24387 1.62143,-1.2085 0.37756,0.37756 C 849.82119,291.91575 849,292.44548 849,291.62244 Z m -4,-1 c 0,-0.20765 0.7875,-0.99515 1.75,-1.75 1.58606,-1.24387 1.62143,-1.2085 0.37756,0.37756 C 845.82119,290.91575 845,291.44548 845,290.62244 Z M 990.19495,288.5 c 0.0204,-1.65 0.2445,-2.20394 0.49804,-1.23097 0.25354,0.97297 0.23687,2.32297 -0.0371,3 -0.27393,0.67703 -0.48137,-0.11903 -0.46099,-1.76903 z m -156.116,-4.08333 c 0.048,-1.16495 0.28494,-1.4019 0.60416,-0.60417 0.28887,0.72187 0.25335,1.58438 -0.0789,1.91667 -0.33229,0.33229 -0.56864,-0.25834 -0.52522,-1.3125 z M 905,284.44098 c 0,-0.85746 0.45734,-1.27636 1.01631,-0.9309 0.55897,0.34546 0.75742,1.04702 0.44098,1.55902 C 905.60006,286.45614 905,286.19751 905,284.44098 Z M 854,282.5 c 1.29175,-1.375 2.57363,-2.5 2.84863,-2.5 0.275,0 -0.55688,1.125 -1.84863,2.5 -1.29175,1.375 -2.57363,2.5 -2.84863,2.5 -0.275,0 0.55688,-1.125 1.84863,-2.5 z m 3,2.22497 c 0,-0.15126 3.4875,-3.63876 7.75,-7.75 l 7.75,-7.47497 -7.47497,7.75 C 858.08244,284.44803 857,285.45627 857,284.72497 Z M 990.27236,281 c 0,-2.475 0.19502,-3.4875 0.43337,-2.25 0.23836,1.2375 0.23836,3.2625 0,4.5 -0.23835,1.2375 -0.43337,0.225 -0.43337,-2.25 z m -197.63829,2.21693 c -0.5425,-0.87779 -0.96802,-45.65413 -0.45346,-47.71693 0.1372,-0.55 0.49019,10.025 0.78442,23.5 0.29423,13.475 0.46753,24.64244 0.38511,24.81653 -0.0824,0.17409 -0.40466,-0.0957 -0.71607,-0.5996 z m 104.44488,-1.80026 c 0.048,-1.16495 0.28494,-1.4019 0.60416,-0.60417 0.28887,0.72187 0.25335,1.58438 -0.0789,1.91667 -0.33229,0.33229 -0.56864,-0.25834 -0.52522,-1.3125 z M 993.15789,275 c 0,-1.375 0.22698,-1.9375 0.50439,-1.25 0.27741,0.6875 0.27741,1.8125 0,2.5 -0.27741,0.6875 -0.50439,0.125 -0.50439,-1.25 z m -97.07894,-0.58333 c 0.048,-1.16495 0.28494,-1.4019 0.60416,-0.60417 0.28887,0.72187 0.25335,1.58438 -0.0789,1.91667 -0.33229,0.33229 -0.56864,-0.25834 -0.52522,-1.3125 z m 9,-1 c 0.048,-1.16495 0.28494,-1.4019 0.60416,-0.60417 0.28887,0.72187 0.25335,1.58438 -0.0789,1.91667 -0.33229,0.33229 -0.56864,-0.25834 -0.52522,-1.3125 z m -6,-1 c 0.048,-1.16495 0.28494,-1.4019 0.60416,-0.60417 0.28887,0.72187 0.25335,1.58438 -0.0789,1.91667 -0.33229,0.33229 -0.56864,-0.25834 -0.52522,-1.3125 z m -61,-1 c 0.048,-1.16495 0.28494,-1.4019 0.60416,-0.60417 0.28887,0.72187 0.25335,1.58438 -0.0789,1.91667 -0.33229,0.33229 -0.56864,-0.25834 -0.52522,-1.3125 z m -2,-1 c 0.048,-1.16495 0.28494,-1.4019 0.60416,-0.60417 0.28887,0.72187 0.25335,1.58438 -0.0789,1.91667 -0.33229,0.33229 -0.56864,-0.25834 -0.52522,-1.3125 z m 153,-1 c 0.048,-1.16495 0.28494,-1.4019 0.60416,-0.60417 0.28887,0.72187 0.25335,1.58438 -0.0789,1.91667 -0.33229,0.33229 -0.56864,-0.25834 -0.52522,-1.3125 z M 869.5,267 c 0.99549,-1.1 2.03498,-2 2.30998,-2 0.275,0 -0.31449,0.9 -1.30998,2 -0.99549,1.1 -2.03498,2 -2.30998,2 -0.275,0 0.31449,-0.9 1.30998,-2 z m 25.57895,0.41667 c 0.048,-1.16495 0.28494,-1.4019 0.60416,-0.60417 0.28887,0.72187 0.25335,1.58438 -0.0789,1.91667 -0.33229,0.33229 -0.56864,-0.25834 -0.52522,-1.3125 z m 97,-1 c 0.048,-1.16495 0.28494,-1.4019 0.60416,-0.60417 0.28887,0.72187 0.25335,1.58438 -0.0789,1.91667 -0.33229,0.33229 -0.56864,-0.25834 -0.52522,-1.3125 z M 943,263.62244 c 0,-0.20765 0.7875,-0.99515 1.75,-1.75 1.58606,-1.24387 1.62143,-1.2085 0.37756,0.37756 C 943.82119,263.91575 943,264.44548 943,263.62244 Z m 10.55279,-2.53703 c -0.32198,-0.52097 -0.15917,-1.21065 0.3618,-1.53262 0.52097,-0.32198 1.21065,-0.15917 1.53262,0.3618 0.32198,0.52097 0.15917,1.21065 -0.3618,1.53262 -0.52097,0.32198 -1.21065,0.15917 -1.53262,-0.3618 z M 921,239.62244 c 0,-0.20765 0.7875,-0.99515 1.75,-1.75 1.58606,-1.24387 1.62143,-1.2085 0.37756,0.37756 C 921.82119,239.91575 921,240.44548 921,239.62244 Z m 5,-5 c 0,-0.20765 0.7875,-0.99515 1.75,-1.75 1.58606,-1.24387 1.62143,-1.2085 0.37756,0.37756 C 926.82119,234.91575 926,235.44548 926,234.62244 Z m 17.8125,-5.30555 c 0.72187,-0.28887 1.58438,-0.25335 1.91667,0.0789 0.33229,0.33229 -0.25834,0.56864 -1.3125,0.52522 -1.16495,-0.048 -1.4019,-0.28494 -0.60417,-0.60416 z m 12,0 c 0.72187,-0.28887 1.58438,-0.25335 1.91667,0.0789 0.33229,0.33229 -0.25834,0.56864 -1.3125,0.52522 -1.16495,-0.048 -1.4019,-0.28494 -0.60417,-0.60416 z M 794.232,221 c 0,-1.925 0.2058,-2.7125 0.45733,-1.75 0.25152,0.9625 0.25152,2.5375 0,3.5 -0.25153,0.9625 -0.45733,0.175 -0.45733,-1.75 z m -1.07411,-9 c 0,-1.375 0.22698,-1.9375 0.50439,-1.25 0.27741,0.6875 0.27741,1.8125 0,2.5 -0.27741,0.6875 -0.50439,0.125 -0.50439,-1.25 z m 1.92106,-3.58333 c 0.048,-1.16495 0.28494,-1.4019 0.60416,-0.60417 0.28887,0.72187 0.25335,1.58437 -0.0789,1.91667 -0.33229,0.33229 -0.56864,-0.25834 -0.52522,-1.3125 z M 749.5,204 c 0.99549,-1.1 2.03498,-2 2.30998,-2 0.275,0 -0.31449,0.9 -1.30998,2 -0.99549,1.1 -2.03498,2 -2.30998,2 -0.275,0 0.31449,-0.9 1.30998,-2 z m 44.57895,-1.58333 c 0.048,-1.16495 0.28494,-1.4019 0.60416,-0.60417 0.28887,0.72187 0.25335,1.58437 -0.0789,1.91667 -0.33229,0.33229 -0.56864,-0.25834 -0.52522,-1.3125 z m 1,-7 c 0.048,-1.16495 0.28494,-1.4019 0.60416,-0.60417 0.28887,0.72187 0.25335,1.58437 -0.0789,1.91667 -0.33229,0.33229 -0.56864,-0.25834 -0.52522,-1.3125 z m -10.52616,-10.33126 c -0.32198,-0.52097 -0.15917,-1.21065 0.3618,-1.53262 0.52097,-0.32198 1.21065,-0.15917 1.53262,0.3618 0.32198,0.52097 0.15917,1.21065 -0.3618,1.53262 -0.52097,0.32198 -1.21065,0.15917 -1.53262,-0.3618 z M 800,179 c 0,-0.55 0.47656,-1 1.05902,-1 0.58246,0 0.7809,0.45 0.44098,1 -0.33992,0.55 -0.81648,1 -1.05902,1 C 800.19844,180 800,179.55 800,179 Z m -16,-0.37756 c 0,-0.20765 0.7875,-0.99515 1.75,-1.75 1.58606,-1.24387 1.62143,-1.2085 0.37756,0.37756 C 784.82119,178.91575 784,179.44548 784,178.62244 Z M 896.5,178 c 0.33992,-0.55 0.81648,-1 1.05902,-1 0.24254,0 0.44098,0.45 0.44098,1 0,0.55 -0.47656,1 -1.05902,1 -0.58246,0 -0.7809,-0.45 -0.44098,-1 z m -2.94721,-2.91459 c -0.32198,-0.52097 -0.15917,-1.21065 0.3618,-1.53262 0.52097,-0.32198 1.21065,-0.15917 1.53262,0.3618 0.32198,0.52097 0.15917,1.21065 -0.3618,1.53262 -0.52097,0.32198 -1.21065,0.15917 -1.53262,-0.3618 z M 884.87244,173.25 c -1.24387,-1.58606 -1.2085,-1.62143 0.37756,-0.37756 1.66575,1.30637 2.19548,2.12756 1.37244,2.12756 -0.20765,0 -0.99515,-0.7875 -1.75,-1.75 z M 788.5,172 c 0.99549,-1.1 2.03498,-2 2.30998,-2 0.275,0 -0.31449,0.9 -1.30998,2 -0.99549,1.1 -2.03498,2 -2.30998,2 -0.275,0 0.31449,-0.9 1.30998,-2 z m 94.90499,-3.25 -1.90499,-2.25 2.25,1.90499 c 2.11444,1.79022 2.70524,2.59501 1.90499,2.59501 -0.18976,0 -1.20226,-1.0125 -2.25,-2.25 z m -5,-2 -1.90499,-2.25 2.25,1.90499 c 1.2375,1.04774 2.25,2.06024 2.25,2.25 0,0.80025 -0.80479,0.20945 -2.59501,-1.90499 z m 5.65976,-1.17198 c -0.68711,-0.82791 -0.77971,-1.63615 -0.22662,-1.97798 0.51439,-0.31791 1.4581,0.052 2.09712,0.82194 0.68711,0.82791 0.77971,1.63615 0.22662,1.97798 -0.51439,0.31791 -1.4581,-0.052 -2.09712,-0.82194 z M 705,160.68709 c 0,-0.1721 1.4625,-1.6346 3.25,-3.25 l 3.25,-2.93709 -2.93709,3.25 C 705.82513,160.77946 705,161.45965 705,160.68709 Z m -30.92105,-5.27042 c 0.048,-1.16495 0.28494,-1.4019 0.60416,-0.60417 0.28887,0.72187 0.25335,1.58437 -0.0789,1.91667 -0.33229,0.33229 -0.56864,-0.25834 -0.52522,-1.3125 z m 3,-3 c 0.048,-1.16495 0.28494,-1.4019 0.60416,-0.60417 0.28887,0.72187 0.25335,1.58437 -0.0789,1.91667 -0.33229,0.33229 -0.56864,-0.25834 -0.52522,-1.3125 z M 673.15789,147 c 0,-1.375 0.22698,-1.9375 0.50439,-1.25 0.27741,0.6875 0.27741,1.8125 0,2.5 -0.27741,0.6875 -0.50439,0.125 -0.50439,-1.25 z M 854,145 c 0,-0.55 0.47656,-1 1.05902,-1 0.58246,0 0.7809,0.45 0.44098,1 -0.33992,0.55 -0.81648,1 -1.05902,1 C 854.19844,146 854,145.55 854,145 Z m -177.84211,-2 c 0,-1.375 0.22698,-1.9375 0.50439,-1.25 0.27741,0.6875 0.27741,1.8125 0,2.5 -0.27741,0.6875 -0.50439,0.125 -0.50439,-1.25 z m -3.75795,-21.5 c 10e-4,-8.25 0.15629,-11.49193 0.34419,-7.20429 0.1879,4.28763 0.18676,11.03763 -0.003,15 -0.1893,3.96236 -0.34304,0.45429 -0.34164,-7.79571 z m 137.67901,11.91667 c 0.048,-1.16495 0.28494,-1.4019 0.60416,-0.60417 0.28887,0.72187 0.25335,1.58437 -0.0789,1.91667 -0.33229,0.33229 -0.56864,-0.25834 -0.52522,-1.3125 z M 820.92431,132.25 818.5,129.5 l 2.75,2.42431 c 1.5125,1.33338 2.75,2.57088 2.75,2.75 0,0.78428 -0.8098,0.14598 -3.07569,-2.42431 z M 675.32814,121.5 c 0.004,-3.85 0.18518,-5.30246 0.40166,-3.2277 0.21647,2.07477 0.21284,5.22477 -0.008,7 -0.22091,1.77524 -0.39803,0.0777 -0.39359,-3.7723 z m 246.27487,2.66667 c -0.28327,-0.45834 0.12038,-0.83334 0.89699,-0.83334 0.77661,0 1.18026,0.375 0.89699,0.83334 C 923.11373,124.625 922.71008,125 922.5,125 c -0.21008,0 -0.61373,-0.375 -0.89699,-0.83333 z m -112.52406,-1.75 c 0.048,-1.16495 0.28494,-1.4019 0.60416,-0.60417 0.28887,0.72187 0.25335,1.58437 -0.0789,1.91667 -0.33229,0.33229 -0.56864,-0.25834 -0.52522,-1.3125 z m 124,-1 c 0.048,-1.16495 0.28494,-1.4019 0.60416,-0.60417 0.28887,0.72187 0.25335,1.58437 -0.0789,1.91667 -0.33229,0.33229 -0.56864,-0.25834 -0.52522,-1.3125 z M 701.95821,117.75 c 2.45201,-2.6125 4.58951,-4.75 4.75,-4.75 0.75088,0 -0.043,0.89783 -4.45821,5.04179 L 697.5,122.5 Z M 791,120 c -0.825,-0.53316 -1.05,-0.96937 -0.5,-0.96937 0.55,0 1.675,0.43621 2.5,0.96937 0.825,0.53316 1.05,0.96937 0.5,0.96937 -0.55,0 -1.675,-0.43621 -2.5,-0.96937 z m 21.19495,-2.5 c 0.0204,-1.65 0.2445,-2.20394 0.49804,-1.23097 0.25354,0.97297 0.23687,2.32297 -0.0371,3 -0.27393,0.67703 -0.48137,-0.11903 -0.46099,-1.76903 z m 117.884,0.91667 c 0.048,-1.16495 0.28494,-1.4019 0.60416,-0.60417 0.28887,0.72187 0.25335,1.58437 -0.0789,1.91667 -0.33229,0.33229 -0.56864,-0.25834 -0.52522,-1.3125 z M 912.43709,111.75 909.5,108.5 l 3.25,2.93709 c 1.7875,1.6154 3.25,3.0779 3.25,3.25 0,0.77256 -0.82513,0.0924 -3.56291,-2.93709 z M 934.39172,99 c 0,-7.425 0.15742,-10.4625 0.34983,-6.75 0.19241,3.7125 0.19241,9.7875 0,13.5 -0.19241,3.7125 -0.34983,0.675 -0.34983,-6.75 z M 791.8125,109.31689 c 0.72187,-0.28887 1.58438,-0.25335 1.91667,0.0789 0.33229,0.3323 -0.25834,0.56864 -1.3125,0.52522 -1.16495,-0.048 -1.4019,-0.28494 -0.60417,-0.60416 z m -1,-2 c 0.72187,-0.28887 1.58438,-0.25335 1.91667,0.0789 0.33229,0.3323 -0.25834,0.56864 -1.3125,0.52522 -1.16495,-0.048 -1.4019,-0.28494 -0.60417,-0.60416 z m 21.74514,-4.22363 c -0.30822,-0.49871 0.34022,-0.67122 1.44098,-0.38337 2.33499,0.61061 2.63015,1.29011 0.5604,1.29011 -0.79254,0 -1.69316,-0.40803 -2.00138,-0.90674 z m 8.25486,-0.77637 c 0.72187,-0.28887 1.58438,-0.25335 1.91667,0.0789 0.33229,0.3323 -0.25834,0.56864 -1.3125,0.52522 -1.16495,-0.048 -1.4019,-0.28494 -0.60417,-0.60416 z M 676.19495,99.5 c 0.0204,-1.65 0.2445,-2.203936 0.49804,-1.230968 0.25354,0.972967 0.23687,2.322968 -0.0371,2.999998 -0.27393,0.67703 -0.48137,-0.11903 -0.46099,-1.76903 z m 75.61755,1.81689 c 0.72187,-0.28887 1.58438,-0.25335 1.91667,0.0789 0.33229,0.3323 -0.25834,0.56864 -1.3125,0.52522 -1.16495,-0.048 -1.4019,-0.28494 -0.60417,-0.60416 z m 156.74029,-0.23148 c -0.32198,-0.52097 -0.15917,-1.210648 0.3618,-1.532624 0.52097,-0.321975 1.21065,-0.159164 1.53262,0.361804 0.32198,0.52097 0.15917,1.21065 -0.3618,1.53262 -0.52097,0.32198 -1.21065,0.15917 -1.53262,-0.3618 z m -169.28376,-0.7784 c 0.97297,-0.25354 2.32297,-0.23687 3,0.037 0.67703,0.27393 -0.11903,0.48137 -1.76903,0.46099 -1.65,-0.0204 -2.20394,-0.2445 -1.23097,-0.49804 z M 816,98.5 c 1.29175,-1.375 2.57363,-2.5 2.84863,-2.5 0.275,0 -0.55688,1.125 -1.84863,2.5 -1.29175,1.375 -2.57363,2.5 -2.84863,2.5 -0.275,0 0.55688,-1.125 1.84863,-2.5 z m -65.1875,0.816886 c 0.72187,-0.288871 1.58438,-0.253344 1.91667,0.07895 0.33229,0.332292 -0.25834,0.568641 -1.3125,0.52522 -1.16495,-0.04798 -1.4019,-0.284941 -0.60417,-0.604167 z M 673.19495,95.5 c 0.0204,-1.65 0.2445,-2.203936 0.49804,-1.230968 0.25354,0.972967 0.23687,2.322967 -0.0371,3 C 673.38201,97.946064 673.17457,97.15 673.19495,95.5 Z M 862.75,96.337719 c 0.6875,-0.277412 1.8125,-0.277412 2.5,0 0.6875,0.277413 0.125,0.504386 -1.25,0.504386 -1.375,0 -1.9375,-0.226973 -1.25,-0.504386 z m 20.0625,-0.02083 c 0.72187,-0.288871 1.58438,-0.253344 1.91667,0.07895 0.33229,0.332292 -0.25834,0.568641 -1.3125,0.52522 -1.16495,-0.04798 -1.4019,-0.284941 -0.60417,-0.604167 z M 813.07029,92.25 c 0.0623,-2.436844 0.16815,-2.52225 0.92971,-0.75 1.17371,2.73138 1.17371,3.5 0,3.5 -0.55,0 -0.96837,-1.2375 -0.92971,-2.75 z M 864.75,94.337719 c 0.6875,-0.277412 1.8125,-0.277412 2.5,0 0.6875,0.277413 0.125,0.504386 -1.25,0.504386 -1.375,0 -1.9375,-0.226973 -1.25,-0.504386 z m 17.0625,-0.02083 c 0.72187,-0.288871 1.58438,-0.253344 1.91667,0.07895 0.33229,0.332292 -0.25834,0.568641 -1.3125,0.52522 -1.16495,-0.04798 -1.4019,-0.284941 -0.60417,-0.604167 z M 817,93.606989 c 0,-0.216156 0.69837,-0.661002 1.55194,-0.988546 0.88992,-0.341496 1.29132,-0.173849 0.94098,0.393011 C 818.90566,93.961658 817,94.416902 817,93.606989 Z M 799.87244,91.25 C 798.62857,89.663944 798.66394,89.628574 800.25,90.872445 801.91575,92.178814 802.44548,93 801.62244,93 c -0.20765,0 -0.99515,-0.7875 -1.75,-1.75 z m 18.20651,-1.833333 c 0.048,-1.164943 0.28494,-1.4019 0.60416,-0.604167 0.28887,0.721875 0.25335,1.584375 -0.0789,1.916667 -0.33229,0.332291 -0.56864,-0.258334 -0.52522,-1.3125 z m -141,-1 c 0.048,-1.164943 0.28494,-1.4019 0.60416,-0.604167 0.28887,0.721875 0.25335,1.584375 -0.0789,1.916667 -0.33229,0.332291 -0.56864,-0.258334 -0.52522,-1.3125 z m 204.73355,0.900219 c 0.72187,-0.288871 1.58438,-0.253344 1.91667,0.07895 0.33229,0.332292 -0.25834,0.568641 -1.3125,0.52522 -1.16495,-0.04798 -1.4019,-0.284941 -0.60417,-0.604167 z M 795.40499,86.75 793.5,84.5 l 2.25,1.904988 c 1.2375,1.047743 2.25,2.060243 2.25,2.25 0,0.800253 -0.80479,0.209457 -2.59501,-1.904988 z m 14.67396,0.666667 c 0.048,-1.164943 0.28494,-1.4019 0.60416,-0.604167 0.28887,0.721875 0.25335,1.584375 -0.0789,1.916667 -0.33229,0.332291 -0.56864,-0.258334 -0.52522,-1.3125 z m -136,-2 c 0.048,-1.164943 0.28494,-1.4019 0.60416,-0.604167 0.28887,0.721875 0.25335,1.584375 -0.0789,1.916667 -0.33229,0.332291 -0.56864,-0.258334 -0.52522,-1.3125 z m 138,-2 c 0.048,-1.164943 0.28494,-1.4019 0.60416,-0.604167 0.28887,0.721875 0.25335,1.584375 -0.0789,1.916667 -0.33229,0.332291 -0.56864,-0.258334 -0.52522,-1.3125 z m 4,-3 c 0.048,-1.164943 0.28494,-1.4019 0.60416,-0.604167 0.28887,0.721875 0.25335,1.584375 -0.0789,1.916667 -0.33229,0.332291 -0.56864,-0.258334 -0.52522,-1.3125 z m -141,-2 c 0.048,-1.164943 0.28494,-1.4019 0.60416,-0.604167 0.28887,0.721875 0.25335,1.584375 -0.0789,1.916667 -0.33229,0.332291 -0.56864,-0.258334 -0.52522,-1.3125 z M 930.15789,78 c 0,-1.375 0.22698,-1.9375 0.50439,-1.25 0.27741,0.6875 0.27741,1.8125 0,2.5 -0.27741,0.6875 -0.50439,0.125 -0.50439,-1.25 z M 820.07895,76.416667 c 0.048,-1.164943 0.28494,-1.4019 0.60416,-0.604167 0.28887,0.721875 0.25335,1.584375 -0.0789,1.916667 -0.33229,0.332291 -0.56864,-0.258334 -0.52522,-1.3125 z M 933.15789,74 c 0,-1.375 0.22698,-1.9375 0.50439,-1.25 0.27741,0.6875 0.27741,1.8125 0,2.5 -0.27741,0.6875 -0.50439,0.125 -0.50439,-1.25 z M 817.07895,73.416667 c 0.048,-1.164943 0.28494,-1.4019 0.60416,-0.604167 0.28887,0.721875 0.25335,1.584375 -0.0789,1.916667 -0.33229,0.332291 -0.56864,-0.258334 -0.52522,-1.3125 z m -12.26645,-0.09978 c 0.72187,-0.288871 1.58438,-0.253344 1.91667,0.07895 0.33229,0.332292 -0.25834,0.568641 -1.3125,0.52522 -1.16495,-0.04798 -1.4019,-0.284941 -0.60417,-0.604167 z M 821.15789,68 c 0,-1.375 0.22698,-1.9375 0.50439,-1.25 0.27741,0.6875 0.27741,1.8125 0,2.5 -0.27741,0.6875 -0.50439,0.125 -0.50439,-1.25 z m 107.92106,0.416667 c 0.048,-1.164943 0.28494,-1.4019 0.60416,-0.604167 0.28887,0.721875 0.25335,1.584375 -0.0789,1.916667 -0.33229,0.332291 -0.56864,-0.258334 -0.52522,-1.3125 z M 818.15789,65 c 0,-1.375 0.22698,-1.9375 0.50439,-1.25 0.27741,0.6875 0.27741,1.8125 0,2.5 -0.27741,0.6875 -0.50439,0.125 -0.50439,-1.25 z m 4.03706,-7.5 c 0.0204,-1.65 0.2445,-2.203936 0.49804,-1.230968 0.25354,0.972967 0.23687,2.322967 -0.0371,3 C 822.38201,59.946064 822.17457,59.15 822.19495,57.5 Z M 819.15789,54 c 0,-1.375 0.22698,-1.9375 0.50439,-1.25 0.27741,0.6875 0.27741,1.8125 0,2.5 -0.27741,0.6875 -0.50439,0.125 -0.50439,-1.25 z m 3.92106,-4.583333 c 0.048,-1.164943 0.28494,-1.4019 0.60416,-0.604167 0.28887,0.721875 0.25335,1.584375 -0.0789,1.916667 -0.33229,0.332291 -0.56864,-0.258334 -0.52522,-1.3125 z M 856,43.622445 c 0,-0.207656 0.7875,-0.995156 1.75,-1.75 1.58606,-1.243871 1.62143,-1.208501 0.37756,0.377555 C 856.82119,43.915748 856,44.445479 856,43.622445 Z M 861.5,35 c 2.14824,-2.2 4.1309,-4 4.4059,-4 0.275,0 -1.25766,1.8 -3.4059,4 -2.14824,2.2 -4.1309,4 -4.4059,4 -0.275,0 1.25766,-1.8 3.4059,-4 z m 5.5,-2.377555 c 0,-0.207656 0.7875,-0.995156 1.75,-1.75 1.58606,-1.243871 1.62143,-1.208501 0.37756,0.377555 C 867.82119,32.915748 867,33.445479 867,32.622445 Z M 756.54271,31.069098 c -0.31644,-0.511996 -0.19299,-1.167201 0.27431,-1.456011 0.46731,-0.28881 0.84965,0.130095 0.84965,0.930902 0,1.686167 -0.31534,1.833491 -1.12396,0.525109 z m 105.10254,0.165924 c -0.31577,-0.510935 0.7105,-2.159732 2.28061,-3.663995 1.57011,-1.504262 3.11311,-2.316984 3.42889,-1.806049 0.31577,0.510935 -0.7105,2.159732 -2.28061,3.663995 -1.57011,1.504262 -3.11311,2.316984 -3.42889,1.806049 z M 865,28.5 c 1.29175,-1.375 2.12363,-2.5 1.84863,-2.5 -0.275,0 -1.55688,1.125 -2.84863,2.5 -1.29175,1.375 -2.12363,2.5 -1.84863,2.5 0.275,0 1.55688,-1.125 2.84863,-2.5 z M 749.55279,23.08541 c -0.32198,-0.520967 -0.15917,-1.210648 0.3618,-1.532624 0.52097,-0.321975 1.21065,-0.159164 1.53262,0.361804 0.32198,0.520967 0.15917,1.210648 -0.3618,1.532624 -0.52097,0.321975 -1.21065,0.159164 -1.53262,-0.361804 z M 908.43709,18.75 905.5,15.5 l 3.25,2.937091 c 1.7875,1.6154 3.25,3.0779 3.25,3.25 0,0.772561 -0.82513,0.09236 -3.56291,-2.937091 z m -154.56465,0.5 c -1.24387,-1.586056 -1.2085,-1.621426 0.37756,-0.377555 0.9625,0.754844 1.75,1.542344 1.75,1.75 0,0.823034 -0.82119,0.293303 -2.12756,-1.372445 z m 23.07373,-2 -3.44617,-3.75 3.75,3.446167 C 780.74042,20.153784 781.45979,21 780.69617,21 c -0.16711,0 -1.85461,-1.6875 -3.75,-3.75 z m 117.96594,3.07301 c 1.92005,-0.401664 2.12405,-0.705601 1,-1.489935 -1.04421,-0.728623 -1.0669,-0.893855 -0.0871,-0.634206 2.32694,0.616648 1.76513,2.295226 -0.825,2.464936 l -2.5,0.163804 2.41211,-0.504599 z M 779.92431,15.25 777.5,12.5 l 2.75,2.424314 c 1.5125,1.333373 2.75,2.570873 2.75,2.75 0,0.784274 -0.8098,0.145975 -3.07569,-2.424314 z m 130.94813,1 C 909.62857,14.663944 909.66394,14.628574 911.25,15.872445 912.91575,17.178814 913.44548,18 912.62244,18 c -0.20765,0 -0.99515,-0.7875 -1.75,-1.75 z M 836,12.5 c 1.86578,-1.925 3.61733,-3.5 3.89233,-3.5 0.275,0 -1.02655,1.575 -2.89233,3.5 -1.86578,1.925 -3.61733,3.5 -3.89233,3.5 -0.275,0 1.02655,-1.575 2.89233,-3.5 z m -106.1875,0.816886 c 0.72187,-0.288871 1.58438,-0.253344 1.91667,0.07895 0.33229,0.332292 -0.25834,0.568641 -1.3125,0.52522 -1.16495,-0.04798 -1.4019,-0.284941 -0.60417,-0.604167 z m 6,-3 c 0.72187,-0.288871 1.58438,-0.253344 1.91667,0.07895 0.33229,0.332292 -0.25834,0.568641 -1.3125,0.52522 -1.16495,-0.04798 -1.4019,-0.284941 -0.60417,-0.604167 z m -3.95925,-1.5701325 c 0.50384,-0.5038458 1.98048,-0.7486453 3.28141,-0.5439989 2.00169,0.3148788 1.86084,0.4557206 -0.91608,0.9160833 -1.98722,0.3294443 -2.92011,0.1826933 -2.36533,-0.3720844 z M 882.8125,5.316886 c 0.72187,-0.2888706 1.58438,-0.2533443 1.91667,0.078947 0.33229,0.3322917 -0.25834,0.5686404 -1.3125,0.5252193 -1.16495,-0.047984 -1.4019,-0.2849403 -0.60417,-0.6041663 z m -24,-1 c 0.72187,-0.2888706 1.58438,-0.2533443 1.91667,0.078947 0.33229,0.3322917 -0.25834,0.5686404 -1.3125,0.5252193 -1.16495,-0.047984 -1.4019,-0.2849403 -0.60417,-0.6041663 z m 18,0 c 0.72187,-0.2888706 1.58438,-0.2533443 1.91667,0.078947 0.33229,0.3322917 -0.25834,0.5686404 -1.3125,0.5252193 -1.16495,-0.047984 -1.4019,-0.2849403 -0.60417,-0.6041663 z M 738.76791,3.2752687 c 1.79735,-0.2225614 4.49735,-0.2179691 6,0.010205 1.50265,0.2281742 0.0321,0.4102699 -3.26791,0.4046571 -3.3,-0.00561 -4.52944,-0.1923007 -2.73209,-0.4148621 z M 733.8125,0.31688596 c 0.72187,-0.28887061 1.58438,-0.25334429 1.91667,0.0789474 0.33229,0.33229167 -0.25834,0.56864035 -1.3125,0.5252193 -1.16495,-0.0479839 -1.4019,-0.2849403 -0.60417,-0.6041667 z M 746.75,0.3377193 c 0.6875,-0.27741228 1.8125,-0.27741228 2.5,0 0.6875,0.27741228 0.125,0.50438596 -1.25,0.50438596 -1.375,0 -1.9375,-0.22697368 -1.25,-0.50438596 z M 865.76791,0.2752687 c 1.79735,-0.22256142 4.49735,-0.21796917 6,0.010205 1.50265,0.22817416 0.0321,0.41026987 -3.26791,0.40465713 -3.3,-0.005613 -4.52944,-0.19230069 -2.73209,-0.41486213 z"
             id="path1690"
             sodipodi:nodetypes="ssscssssssssssssscsssssssssssssssssssssssssssssssssssssssssssssssssscsscssssssssssssssssssssssssssssssssssssssssssssssssssssssssssssssssssssssssssssssssssssssssssssssssssssssssssssssssssssssssssssssssssssssssssssssssssssssssssssssssssssssssssssssssscsssssssssssssssssssscsssssssssscssssssssssssssssssssssssssssssscsscssssssssssscsssssssssssssssssssssscsssssssssssssssssssssssssssssssssssssssssssssssssssssssssssssssssssssssssssssscsssssssssssssssssssssssssssssssssssssssssssssssssssssssssssssssssssssssssssssssssssssssssssssssssssssssssssssssssssssssssssssssssssssssssssssssssssssssssscsssscsssssssssscssssssssssssssssssssssssscscccsssssscsssssssssssssssssssssssssscssssssssssssssssscsssssssssssssssssssssssssssssssssssssssssssssssssssssssssssssssssssssssssssssssssssssssssssssssssssssssssscsssssssssssssssssssssssssssssssssssssssssssssssssssssssssssssssssssssssssssssssssssssssssssssssssssssssssssssscsssssssscsssssssccsscssssssssssssssssssssssssssssssssssssssssssssssssssssss" />
          <path
             style="fill:#34c434;fill-opacity:1;stroke:#47b147;stroke-width:3.37473;stroke-dasharray:none;stroke-opacity:1"
             d="m 832.15789,480 c 0,-1.375 0.22698,-1.9375 0.50439,-1.25 0.27741,0.6875 0.27741,1.8125 0,2.5 -0.27741,0.6875 -0.50439,0.125 -0.50439,-1.25 z M 832,470.5 c 0,-0.825 0.45,-1.5 1,-1.5 0.55,0 1,0.675 1,1.5 0,0.825 -0.45,1.5 -1,1.5 -0.55,0 -1,-0.675 -1,-1.5 z m 2.07895,-11.08333 c 0.048,-1.16495 0.28494,-1.4019 0.60416,-0.60417 0.28887,0.72187 0.25335,1.58438 -0.0789,1.91667 -0.33229,0.33229 -0.56864,-0.25834 -0.52522,-1.3125 z m 159,-1 c 0.048,-1.16495 0.28494,-1.4019 0.60416,-0.60417 0.28887,0.72187 0.25335,1.58438 -0.0789,1.91667 -0.33229,0.33229 -0.56864,-0.25834 -0.52522,-1.3125 z M 833.15789,455 c 0,-1.375 0.22698,-1.9375 0.50439,-1.25 0.27741,0.6875 0.27741,1.8125 0,2.5 -0.27741,0.6875 -0.50439,0.125 -0.50439,-1.25 z m 157.92106,-1.58333 c 0.048,-1.16495 0.28494,-1.4019 0.60416,-0.60417 0.28887,0.72187 0.25335,1.58438 -0.0789,1.91667 -0.33229,0.33229 -0.56864,-0.25834 -0.52522,-1.3125 z M 903.87244,448.25 c -1.24387,-1.58606 -1.2085,-1.62143 0.37756,-0.37756 1.66575,1.30637 2.19548,2.12756 1.37244,2.12756 -0.20765,0 -0.99515,-0.7875 -1.75,-1.75 z m 2,-2 c -1.24387,-1.58606 -1.2085,-1.62143 0.37756,-0.37756 1.66575,1.30637 2.19548,2.12756 1.37244,2.12756 -0.20765,0 -0.99515,-0.7875 -1.75,-1.75 z m 49.37974,-1.75 c 0.0111,-2.2 0.21589,-2.98225 0.45508,-1.73834 0.23919,1.24391 0.23011,3.04391 -0.0202,4 -0.25029,0.95609 -0.446,-0.0617 -0.4349,-2.26166 z m -119.88695,-11 c 0.003,-5.5 0.17053,-7.62242 0.37317,-4.71648 0.20265,2.90594 0.20052,7.40594 -0.005,10 -0.20525,2.59406 -0.37104,0.21648 -0.36844,-5.28352 z m 74.25831,7.96134 c -0.96498,-2.51469 -0.68031,-3.16355 0.49853,-1.13634 0.58369,1.00375 0.8506,2.03566 0.59313,2.29313 -0.25747,0.25747 -0.74872,-0.26309 -1.09166,-1.15679 z m 46.45541,-9.04467 c 0.048,-1.16495 0.28494,-1.4019 0.60416,-0.60417 0.28887,0.72187 0.25335,1.58438 -0.0789,1.91667 -0.33229,0.33229 -0.56864,-0.25834 -0.52522,-1.3125 z M 833.19495,426.5 c 0.0204,-1.65 0.2445,-2.20394 0.49804,-1.23097 0.25354,0.97297 0.23687,2.32297 -0.0371,3 -0.27393,0.67703 -0.48137,-0.11903 -0.46099,-1.76903 z m 162.884,-2.08333 c 0.048,-1.16495 0.28494,-1.4019 0.60416,-0.60417 0.28887,0.72187 0.25335,1.58438 -0.0789,1.91667 -0.33229,0.33229 -0.56864,-0.25834 -0.52522,-1.3125 z M 999.25218,419.5 c 0.0111,-2.2 0.21589,-2.98225 0.45508,-1.73834 0.23919,1.24391 0.23011,3.04391 -0.0202,4 -0.25029,0.95609 -0.446,-0.0617 -0.4349,-2.26166 z M 817.232,415 c 0,-1.925 0.2058,-2.7125 0.45733,-1.75 0.25152,0.9625 0.25152,2.5375 0,3.5 -0.25153,0.9625 -0.45733,0.175 -0.45733,-1.75 z m 14.84695,-0.58333 c 0.048,-1.16495 0.28494,-1.4019 0.60416,-0.60417 0.28887,0.72187 0.25335,1.58438 -0.0789,1.91667 -0.33229,0.33229 -0.56864,-0.25834 -0.52522,-1.3125 z m 2,-1 c 0.048,-1.16495 0.28494,-1.4019 0.60416,-0.60417 0.28887,0.72187 0.25335,1.58438 -0.0789,1.91667 -0.33229,0.33229 -0.56864,-0.25834 -0.52522,-1.3125 z M 926.5,409 c 0.99549,-1.1 2.03498,-2 2.30998,-2 0.275,0 -0.31449,0.9 -1.30998,2 -0.99549,1.1 -2.03498,2 -2.30998,2 -0.275,0 0.31449,-0.9 1.30998,-2 z M 817.75794,404.23183 C 818.42886,397.98459 819,397.54428 819,403.27432 c 0,2.5342 -0.3938,4.85103 -0.87512,5.1485 -0.48131,0.29746 -0.64643,-1.58848 -0.36694,-4.19099 z m 15.32101,1.18484 c 0.048,-1.16495 0.28494,-1.4019 0.60416,-0.60417 0.28887,0.72187 0.25335,1.58438 -0.0789,1.91667 -0.33229,0.33229 -0.56864,-0.25834 -0.52522,-1.3125 z M 818,393.55902 C 818,392.70156 818.45,392 819,392 c 0.55,0 1,0.42344 1,0.94098 0,0.51754 -0.45,1.2191 -1,1.55902 -0.55,0.33992 -1,-0.0835 -1,-0.94098 z m 83.58984,-1.41366 c -0.29051,-0.47005 0.69543,-1.93255 2.19098,-3.25 L 906.5,386.5 l -2.25915,2.57419 c -1.24253,1.4158 -1.95503,2.8783 -1.58333,3.25 0.3717,0.37169 0.40237,0.67581 0.0682,0.67581 -0.3342,0 -0.84533,-0.38459 -1.13584,-0.85464 z M 930,382 c 0,-0.55 0.70156,-1 1.55902,-1 0.85746,0 1.2809,0.45 0.94098,1 -0.33992,0.55 -1.04148,1 -1.55902,1 C 930.42344,383 930,382.55 930,382 Z m -109.37646,-4.53866 c -0.96498,-2.51469 -0.68031,-3.16355 0.49853,-1.13634 0.58369,1.00375 0.8506,2.03566 0.59313,2.29313 -0.25747,0.25747 -0.74872,-0.26309 -1.09166,-1.15679 z m 106.88354,0.55011 c -0.35034,-0.56686 0.0511,-0.7345 0.94098,-0.39301 1.73242,0.66479 2.04939,1.38156 0.61096,1.38156 -0.51754,0 -1.21592,-0.44485 -1.55194,-0.98855 z M 853.40499,374.75 851.5,372.5 l 2.25,1.90499 c 1.2375,1.04774 2.25,2.06024 2.25,2.25 0,0.80025 -0.80479,0.20945 -2.59501,-1.90499 z m 2,-2 -1.90499,-2.25 2.25,1.90499 c 1.2375,1.04774 2.25,2.06024 2.25,2.25 0,0.80025 -0.80479,0.20945 -2.59501,-1.90499 z M 822,372.05902 c 0,-0.51754 0.44485,-1.21592 0.98855,-1.55194 0.56686,-0.35034 0.7345,0.0511 0.39301,0.94098 C 822.71677,373.18048 822,373.49745 822,372.05902 Z m -28.92105,-2.64235 c 0.048,-1.16495 0.28494,-1.4019 0.60416,-0.60417 0.28887,0.72187 0.25335,1.58438 -0.0789,1.91667 -0.33229,0.33229 -0.56864,-0.25834 -0.52522,-1.3125 z M 845.92431,368.25 843.5,365.5 l 2.75,2.42431 c 1.5125,1.33338 2.75,2.57088 2.75,2.75 0,0.78428 -0.8098,0.14598 -3.07569,-2.42431 z m 2,-2 -2.42431,-2.75 2.75,2.42431 c 2.57029,2.26589 3.20859,3.07569 2.42431,3.07569 -0.17912,0 -1.41662,-1.2375 -2.75,-2.75 z M 985.27236,364 c 0,-2.475 0.19502,-3.4875 0.43337,-2.25 0.23836,1.2375 0.23836,3.2625 0,4.5 -0.23835,1.2375 -0.43337,0.225 -0.43337,-2.25 z M 795,364.94098 c 0,-0.58246 0.45,-0.7809 1,-0.44098 0.55,0.33992 1,0.81648 1,1.05902 0,0.24254 -0.45,0.44098 -1,0.44098 -0.55,0 -1,-0.47656 -1,-1.05902 z m 124.60301,-11.77431 c -0.28327,-0.45834 0.14017,-0.83334 0.94098,-0.83334 0.8008,0 1.45601,0.375 1.45601,0.83334 0,0.45833 -0.42344,0.83333 -0.94098,0.83333 -0.51754,0 -1.17275,-0.375 -1.45601,-0.83333 z M 914.5,347 c 0.33992,-0.55 0.81648,-1 1.05902,-1 0.24254,0 0.44098,0.45 0.44098,1 0,0.55 -0.47656,1 -1.05902,1 -0.58246,0 -0.7809,-0.45 -0.44098,-1 z M 839,339.94098 c 0,-0.58246 0.45,-0.7809 1,-0.44098 0.55,0.33992 1,0.81648 1,1.05902 0,0.24254 -0.45,0.44098 -1,0.44098 -0.55,0 -1,-0.47656 -1,-1.05902 z M 874.5,333 c -0.33992,-0.55 -0.14148,-1 0.44098,-1 0.58246,0 1.05902,0.45 1.05902,1 0,0.55 -0.19844,1 -0.44098,1 -0.24254,0 -0.7191,-0.45 -1.05902,-1 z m -6,-1 c -0.33992,-0.55 -0.16803,-1 0.38197,-1 0.55,0 1.27811,0.45 1.61803,1 0.33992,0.55 0.16803,1 -0.38197,1 -0.55,0 -1.27811,-0.45 -1.61803,-1 z m -34.42105,-1.58333 c 0.048,-1.16495 0.28494,-1.4019 0.60416,-0.60417 0.28887,0.72187 0.25335,1.58438 -0.0789,1.91667 -0.33229,0.33229 -0.56864,-0.25834 -0.52522,-1.3125 z m 115.46376,0.65243 c -0.31644,-0.512 -0.19299,-1.1672 0.27431,-1.45601 0.46731,-0.28881 0.84965,0.13009 0.84965,0.9309 0,1.68617 -0.31534,1.83349 -1.12396,0.52511 z m 40.53624,-2.65243 c 0.048,-1.16495 0.28494,-1.4019 0.60416,-0.60417 0.28887,0.72187 0.25335,1.58438 -0.0789,1.91667 -0.33229,0.33229 -0.56864,-0.25834 -0.52522,-1.3125 z m -35.69706,-2.81289 c 0.31454,-2.14309 3.35397,-5.27045 5.12227,-5.27045 0.82271,0 1.30834,0.1875 1.07917,0.41667 -0.22916,0.22917 -0.61,0.26667 -0.8463,0.0833 -0.74288,-0.57636 -3.73893,2.35457 -3.23703,3.16667 0.26289,0.42536 -0.15593,1.29949 -0.93072,1.9425 -1.10992,0.92116 -1.36176,0.84932 -1.18739,-0.33872 z M 868.5,325 c 2.74909,-1.18132 4.32797,-1.18132 2.5,0 -0.825,0.53316 -2.175,0.94464 -3,0.9144 -0.98906,-0.0362 -0.81874,-0.34772 0.5,-0.9144 z m -37.20034,-9 c 0,-3.025 0.18747,-4.2625 0.41659,-2.75 0.22913,1.5125 0.22913,3.9875 0,5.5 -0.22912,1.5125 -0.41659,0.275 -0.41659,-2.75 z m 157.77929,-1.58333 c 0.048,-1.16495 0.28494,-1.4019 0.60416,-0.60417 0.28887,0.72187 0.25335,1.58438 -0.0789,1.91667 -0.33229,0.33229 -0.56864,-0.25834 -0.52522,-1.3125 z M 992.15789,312 c 0,-1.375 0.22698,-1.9375 0.50439,-1.25 0.27741,0.6875 0.27741,1.8125 0,2.5 -0.27741,0.6875 -0.50439,0.125 -0.50439,-1.25 z m -158,-3 c 0,-1.375 0.22698,-1.9375 0.50439,-1.25 0.27741,0.6875 0.27741,1.8125 0,2.5 -0.27741,0.6875 -0.50439,0.125 -0.50439,-1.25 z m 65.4064,-1.70687 c -0.54268,-1.4252 -0.42782,-1.54006 0.5598,-0.5598 0.68342,0.67834 0.99067,1.48524 0.68278,1.79313 -0.30789,0.30789 -0.86705,-0.24711 -1.24258,-1.23333 z M 990.19495,303.5 c 0.0204,-1.65 0.2445,-2.20394 0.49804,-1.23097 0.25354,0.97297 0.23687,2.32297 -0.0371,3 -0.27393,0.67703 -0.48137,-0.11903 -0.46099,-1.76903 z M 993.232,298 c 0,-1.925 0.2058,-2.7125 0.45733,-1.75 0.25152,0.9625 0.25152,2.5375 0,3.5 -0.25153,0.9625 -0.45733,0.175 -0.45733,-1.75 z m -89.88259,-16 c 0,-4.675 0.17226,-6.5875 0.3828,-4.25 0.21053,2.3375 0.21053,6.1625 0,8.5 -0.21054,2.3375 -0.3828,0.425 -0.3828,-4.25 z M 852,288.62244 c 0,-0.20765 0.7875,-0.99515 1.75,-1.75 1.58606,-1.24387 1.62143,-1.2085 0.37756,0.37756 C 852.82119,288.91575 852,289.44548 852,288.62244 Z m 53,-1.56342 c 0,-0.51754 0.44485,-1.21592 0.98855,-1.55194 0.56686,-0.35034 0.7345,0.0511 0.39301,0.94098 C 905.71677,288.18048 905,288.49745 905,287.05902 Z m -71,-5.61804 c 0,-0.85746 0.45,-1.2809 1,-0.94098 0.55,0.33992 1,1.04148 1,1.55902 0,0.51754 -0.45,0.94098 -1,0.94098 -0.55,0 -1,-0.70156 -1,-1.55902 z M 905.27236,279 c 0,-2.475 0.19502,-3.4875 0.43337,-2.25 0.23836,1.2375 0.23836,3.2625 0,4.5 -0.23835,1.2375 -0.43337,0.225 -0.43337,-2.25 z M 793.4357,256.5 c 5.7e-4,-14.3 0.14102,-20.01094 0.31211,-12.69097 0.17108,7.31996 0.17062,19.01996 -10e-4,26 -0.17166,6.98003 -0.31164,0.99097 -0.31107,-13.30903 z m 199.75925,23 c 0.0204,-1.65 0.2445,-2.20394 0.49804,-1.23097 0.25354,0.97297 0.23687,2.32297 -0.0371,3 -0.27393,0.67703 -0.48137,-0.11903 -0.46099,-1.76903 z m -3.116,-4.08333 c 0.048,-1.16495 0.28494,-1.4019 0.60416,-0.60417 0.28887,0.72187 0.25335,1.58438 -0.0789,1.91667 -0.33229,0.33229 -0.56864,-0.25834 -0.52522,-1.3125 z M 833,275 c 0,-0.55 0.45,-1 1,-1 0.55,0 1,0.45 1,1 0,0.55 -0.45,1 -1,1 -0.55,0 -1,-0.45 -1,-1 z m 113,-6.31291 c 0,-0.1721 1.4625,-1.6346 3.25,-3.25 l 3.25,-2.93709 -2.93709,3.25 C 946.82513,268.77946 946,269.45965 946,268.68709 Z M 831.5,265 c -0.33992,-0.55 -0.14148,-1 0.44098,-1 0.58246,0 1.05902,0.45 1.05902,1 0,0.55 -0.19844,1 -0.44098,1 -0.24254,0 -0.7191,-0.45 -1.05902,-1 z m 110.0826,-0.86635 c -0.29449,-0.4765 0.46645,-1.714 1.69098,-2.75 2.2206,-1.87872 2.22184,-1.87821 0.47424,0.1975 -0.9637,1.14463 -1.4512,2.38213 -1.08334,2.75 0.36787,0.36787 0.39541,0.66885 0.0612,0.66885 -0.3342,0 -0.84859,-0.38986 -1.14308,-0.86635 z M 979.87244,238.25 c -1.24387,-1.58606 -1.2085,-1.62143 0.37756,-0.37756 1.66575,1.30637 2.19548,2.12756 1.37244,2.12756 -0.20765,0 -0.99515,-0.7875 -1.75,-1.75 z M 955.8125,226.31689 c 0.72187,-0.28887 1.58438,-0.25335 1.91667,0.0789 0.33229,0.33229 -0.25834,0.56864 -1.3125,0.52522 -1.16495,-0.048 -1.4019,-0.28494 -0.60417,-0.60416 z M 793,215.94098 c 0,-1.13246 0.45,-1.7809 1,-1.44098 0.55,0.33992 1,1.26648 1,2.05902 0,0.79254 -0.45,1.44098 -1,1.44098 -0.55,0 -1,-0.92656 -1,-2.05902 z m -47.61021,-8.39101 c 0.31243,-2.12872 6.33539,-8.21664 8.12896,-8.21664 1.10743,0 1.18363,0.32036 0.32287,1.3575 -0.61964,0.74663 -1.36661,1.11751 -1.65993,0.82419 -0.74156,-0.74156 -5.22628,3.60382 -4.66188,4.51703 0.25199,0.40774 -0.17574,1.26744 -0.95053,1.91045 -1.11408,0.92461 -1.36076,0.84251 -1.17949,-0.39253 z m 49.06909,-1.6165 c -0.36253,-0.58659 -0.44468,-1.281 -0.18255,-1.54313 0.26212,-0.26213 0.74306,0.21781 1.06875,1.06653 0.67618,1.76211 0.0998,2.07206 -0.8862,0.4766 z M 894.5,185 c 0.33992,-0.55 0.81648,-1 1.05902,-1 0.24254,0 0.44098,0.45 0.44098,1 0,0.55 -0.47656,1 -1.05902,1 -0.58246,0 -0.7809,-0.45 -0.44098,-1 z m -109.63669,-9.23899 c 0.74982,-0.95644 1.6969,-1.53281 2.10464,-1.28082 0.94622,0.5848 5.2447,-3.93421 4.47467,-4.70424 -0.31663,-0.31662 -0.13525,-0.84788 0.40306,-1.18058 0.53831,-0.33269 0.88079,0.0626 0.76105,0.87836 -0.25894,1.76429 -4.73521,6.73112 -5.43533,6.031 -0.26806,-0.26806 -1.20379,0.0712 -2.07939,0.75395 -1.40633,1.09654 -1.433,1.0385 -0.2287,-0.49767 z m 102.47002,-1.21702 c 0,-0.80081 0.38234,-1.21971 0.84965,-0.9309 0.4673,0.28881 0.59075,0.94401 0.27431,1.45601 -0.80862,1.30838 -1.12396,1.16106 -1.12396,-0.52511 z m 4.53911,-3.29399 c -1.24387,-1.58606 -1.2085,-1.62143 0.37756,-0.37756 1.66575,1.30637 2.19548,2.12756 1.37244,2.12756 -0.20765,0 -0.99515,-0.7875 -1.75,-1.75 z m -4,-4 c -1.24387,-1.58606 -1.2085,-1.62143 0.37756,-0.37756 1.66575,1.30637 2.19548,2.12756 1.37244,2.12756 -0.20765,0 -0.99515,-0.7875 -1.75,-1.75 z m -185.24872,-5.04982 c -0.31711,-0.51309 0.41758,-1.78053 1.63263,-2.81653 2.16731,-1.84795 2.18108,-1.84757 0.72642,0.02 -0.81552,1.04704 -1.33277,2.09704 -1.14944,2.33334 0.18334,0.2363 0.1159,0.64708 -0.14986,0.91283 -0.26576,0.26576 -0.74265,0.0634 -1.05975,-0.44968 z m 5.63044,-6.78351 c 1.68679,-2.00333 5.24247,-3.02925 4.10172,-1.18347 -0.30588,0.49492 -0.81207,0.64394 -1.12486,0.33115 -0.3128,-0.31279 -1.50524,0.21977 -2.64987,1.18347 -2.05138,1.72712 -2.05606,1.72238 -0.32699,-0.33115 z m -32.17521,-9 c 0.048,-1.16495 0.28494,-1.4019 0.60416,-0.60417 0.28887,0.72187 0.25335,1.58437 -0.0789,1.91667 -0.33229,0.33229 -0.56864,-0.25834 -0.52522,-1.3125 z m -3,-3 c 0.048,-1.16495 0.28494,-1.4019 0.60416,-0.60417 0.28887,0.72187 0.25335,1.58437 -0.0789,1.91667 -0.33229,0.33229 -0.56864,-0.25834 -0.52522,-1.3125 z m 9.25438,-1.87268 c 0,-0.80081 0.38234,-1.21971 0.84965,-0.9309 0.4673,0.28881 0.59075,0.94401 0.27431,1.45601 -0.80862,1.30838 -1.12396,1.16106 -1.12396,-0.52511 z M 756,135 c -0.90129,-0.58246 -1.02463,-0.97549 -0.30902,-0.98469 0.65504,-0.008 1.4691,0.43469 1.80902,0.98469 0.7673,1.24153 0.42112,1.24153 -1.5,0 z m -80.74782,-3.5 c 0.0111,-2.2 0.21589,-2.98225 0.45508,-1.73834 0.23919,1.24391 0.23011,3.04391 -0.0202,4 -0.25029,0.95609 -0.446,-0.0617 -0.4349,-2.26166 z M 741,131 c 0,-0.55 0.47656,-1 1.05902,-1 0.58246,0 0.7809,0.45 0.44098,1 -0.33992,0.55 -0.81648,1 -1.05902,1 C 741.19844,132 741,131.55 741,131 Z m 4,-1 c 0,-0.55 0.47656,-1 1.05902,-1 0.58246,0 0.7809,0.45 0.44098,1 -0.33992,0.55 -0.81648,1 -1.05902,1 C 745.19844,131 745,130.55 745,130 Z m 66.07895,-5.58333 c 0.048,-1.16495 0.28494,-1.4019 0.60416,-0.60417 0.28887,0.72187 0.25335,1.58437 -0.0789,1.91667 -0.33229,0.33229 -0.56864,-0.25834 -0.52522,-1.3125 z m -114.69953,-1.79609 c 0.12615,-0.85948 0.50862,-1.84195 0.84993,-2.18327 0.34132,-0.34131 0.51737,0.0826 0.39123,0.94211 -0.12615,0.85948 -0.50862,1.84195 -0.84993,2.18327 -0.34132,0.34131 -0.51737,-0.0826 -0.39123,-0.94211 z m 220.16329,-6.55148 c -0.31644,-0.512 -0.19299,-1.1672 0.27431,-1.45601 0.46731,-0.28881 0.84965,0.13009 0.84965,0.9309 0,1.68617 -0.31534,1.83349 -1.12396,0.52511 z M 675.25218,111.5 c 0.0111,-2.2 0.21589,-2.98225 0.45508,-1.73834 0.23919,1.24391 0.23011,3.04391 -0.0202,4 -0.25029,0.95609 -0.446,-0.0617 -0.4349,-2.26166 z m 135.07596,-3 c 0.004,-3.85 0.18518,-5.30246 0.40166,-3.2277 0.21647,2.07477 0.21284,5.22477 -0.008,7 -0.22091,1.77524 -0.39803,0.0777 -0.39359,-3.7723 z m 1.97152,1.5 c 0,-3.025 0.18747,-4.2625 0.41659,-2.75 0.22913,1.5125 0.22913,3.9875 0,5.5 -0.22912,1.5125 -0.41659,0.275 -0.41659,-2.75 z m -106.68657,1.81702 c 0.28881,-0.4673 0.94401,-0.59075 1.45601,-0.27431 1.30838,0.80862 1.16106,1.12396 -0.52511,1.12396 -0.80081,0 -1.21971,-0.38234 -0.9309,-0.84965 z M 931.38536,99 c 0,-6.875 0.15977,-9.6875 0.35504,-6.25 0.19527,3.4375 0.19527,9.0625 0,12.5 -0.19527,3.4375 -0.35504,0.625 -0.35504,-6.25 z M 794.8125,109.31689 c 0.72187,-0.28887 1.58438,-0.25335 1.91667,0.0789 0.33229,0.3323 -0.25834,0.56864 -1.3125,0.52522 -1.16495,-0.048 -1.4019,-0.28494 -0.60417,-0.60416 z m 5,0 c 0.72187,-0.28887 1.58438,-0.25335 1.91667,0.0789 0.33229,0.3323 -0.25834,0.56864 -1.3125,0.52522 -1.16495,-0.048 -1.4019,-0.28494 -0.60417,-0.60416 z M 803.5,108 c -0.33992,-0.55 -0.14148,-1 0.44098,-1 0.58246,0 1.05902,0.45 1.05902,1 0,0.55 -0.19844,1 -0.44098,1 -0.24254,0 -0.7191,-0.45 -1.05902,-1 z m 105.10301,0.16667 c -0.28327,-0.45834 0.12038,-0.83334 0.89699,-0.83334 0.77661,0 1.18026,0.375 0.89699,0.83334 C 910.11373,108.625 909.71008,109 909.5,109 c -0.21008,0 -0.61373,-0.375 -0.89699,-0.83333 z m 5.3213,-2.91667 -2.42431,-2.75 2.75,2.42431 c 1.5125,1.33338 2.75,2.57088 2.75,2.75 0,0.78428 -0.8098,0.14598 -3.07569,-2.42431 z M 759,102.60699 c 0,-0.21616 0.69837,-0.661 1.55194,-0.98855 0.88992,-0.34149 1.29132,-0.17385 0.94098,0.39301 C 760.90566,102.96166 759,103.4169 759,102.60699 Z m -85.92105,-3.190323 c 0.048,-1.164943 0.28494,-1.4019 0.60416,-0.604167 0.28887,0.721875 0.25335,1.58437 -0.0789,1.91667 -0.33229,0.33229 -0.56864,-0.25834 -0.52522,-1.312503 z M 733,99.95431 c -1.09546,-0.741306 -0.69092,-0.834084 1.5,-0.34401 3.67693,0.82247 4.47511,1.39483 1.91667,1.37439 C 735.3625,100.97627 733.825,100.5126 733,99.95431 Z m 10.75,0.38341 c 0.6875,-0.27741 1.8125,-0.27741 2.5,0 0.6875,0.27741 0.125,0.50439 -1.25,0.50439 -1.375,0 -1.9375,-0.22698 -1.25,-0.50439 z m 97.75708,-1.326266 c -0.35034,-0.56686 0.0511,-0.734507 0.94098,-0.393011 1.73242,0.664791 2.04939,1.381557 0.61096,1.381557 -0.51754,0 -1.21592,-0.444846 -1.55194,-0.988546 z m 5,-1 c -0.35034,-0.56686 0.0511,-0.734507 0.94098,-0.393011 C 849.18048,98.283234 849.49745,99 848.05902,99 c -0.51754,0 -1.21592,-0.444846 -1.55194,-0.988546 z m -35.42813,-1.594787 c 0.048,-1.164943 0.28494,-1.4019 0.60416,-0.604167 0.28887,0.721875 0.25335,1.584375 -0.0789,1.916667 -0.33229,0.332291 -0.56864,-0.258334 -0.52522,-1.3125 z M 852,97 c -0.825,-0.533156 -1.05,-0.969374 -0.5,-0.969374 0.55,0 1.675,0.436218 2.5,0.969374 0.825,0.533156 1.05,0.969374 0.5,0.969374 -0.55,0 -1.675,-0.436218 -2.5,-0.969374 z M 676.07895,95.416667 c 0.048,-1.164943 0.28494,-1.4019 0.60416,-0.604167 0.28887,0.721875 0.25335,1.584375 -0.0789,1.916667 -0.33229,0.332291 -0.56864,-0.258334 -0.52522,-1.3125 z M 859,96 c -0.825,-0.533156 -1.05,-0.969374 -0.5,-0.969374 0.55,0 1.675,0.436218 2.5,0.969374 0.825,0.533156 1.05,0.969374 0.5,0.969374 -0.55,0 -1.675,-0.436218 -2.5,-0.969374 z m -58.39699,-1.833333 c -0.28327,-0.458334 0.12038,-0.833334 0.89699,-0.833334 0.77661,0 1.18026,0.375 0.89699,0.833334 C 802.11373,94.625 801.71008,95 801.5,95 c -0.21008,0 -0.61373,-0.375 -0.89699,-0.833333 z m 70.12469,0.111601 c 1.77523,-0.220912 4.92523,-0.224542 7,-0.0081 2.07476,0.216475 0.6223,0.397221 -3.2277,0.401658 -3.85,0.0044 -5.54754,-0.17268 -3.7723,-0.393592 z m -50.39437,-1.734279 c 0,-0.800807 0.38234,-1.219712 0.84965,-0.930902 0.4673,0.28881 0.59075,0.944015 0.27431,1.456011 -0.80862,1.308382 -1.12396,1.161058 -1.12396,-0.525109 z M 878,90 c 0,-0.55 0.675,-1 1.5,-1 0.825,0 1.5,0.45 1.5,1 0,0.55 -0.675,1 -1.5,1 -0.825,0 -1.5,-0.45 -1.5,-1 z M 674.07895,88.416667 c 0.048,-1.164943 0.28494,-1.4019 0.60416,-0.604167 0.28887,0.721875 0.25335,1.584375 -0.0789,1.916667 -0.33229,0.332291 -0.56864,-0.258334 -0.52522,-1.3125 z M 792.92349,86.75 c -0.53992,-1.764197 -0.63355,-3.793392 -0.15284,-3.312687 C 793.50041,84.167077 794.01001,87 793.41152,87 c -0.22634,0 -0.44595,-0.1125 -0.48803,-0.25 z M 933.15789,78 c 0,-1.375 0.22698,-1.9375 0.50439,-1.25 0.27741,0.6875 0.27741,1.8125 0,2.5 -0.27741,0.6875 -0.50439,0.125 -0.50439,-1.25 z M 806.87244,77.25 C 805.62857,75.663944 805.66394,75.628574 807.25,76.872445 808.91575,78.178814 809.44548,79 808.62244,79 c -0.20765,0 -0.99515,-0.7875 -1.75,-1.75 z m 123.20651,-2.833333 c 0.048,-1.164943 0.28494,-1.4019 0.60416,-0.604167 0.28887,0.721875 0.25335,1.584375 -0.0789,1.916667 -0.33229,0.332291 -0.56864,-0.258334 -0.52522,-1.3125 z m -111,-17 c 0.048,-1.164943 0.28494,-1.4019 0.60416,-0.604167 0.28887,0.721875 0.25335,1.584375 -0.0789,1.916667 -0.33229,0.332291 -0.56864,-0.258334 -0.52522,-1.3125 z m 34.5322,-12.236829 c -0.32402,-0.524273 0.0448,-1.479326 0.81957,-2.122339 1.11142,-0.922402 1.3614,-0.846909 1.1846,0.357749 -0.30298,2.0643 -1.28472,2.928686 -2.00417,1.76459 z m 15.00194,-16.362817 c 0.28881,-0.467304 0.94401,-0.590747 1.45601,-0.274316 1.30838,0.808625 1.16106,1.123962 -0.52511,1.123962 -0.80081,0 -1.21971,-0.382341 -0.9309,-0.849646 z M 752.87244,24.25 c -1.24387,-1.586056 -1.2085,-1.621426 0.37756,-0.377555 0.9625,0.754844 1.75,1.542344 1.75,1.75 0,0.823034 -0.82119,0.293303 -2.12756,-1.372445 z m 4.05105,-1.5 c -0.53992,-1.764197 -0.63355,-3.793392 -0.15284,-3.312687 C 757.50041,20.167077 758.01001,23 757.41152,23 c -0.22634,0 -0.44595,-0.1125 -0.48803,-0.25 z M 704,18.5 c 1.86578,-1.925 3.61733,-3.5 3.89233,-3.5 0.275,0 -1.02655,1.575 -2.89233,3.5 -1.86578,1.925 -3.61733,3.5 -3.89233,3.5 -0.275,0 1.02655,-1.575 2.89233,-3.5 z m -2,-2 c 1.86578,-1.925 3.61733,-3.5 3.89233,-3.5 0.275,0 -1.02655,1.575 -2.89233,3.5 -1.86578,1.925 -3.61733,3.5 -3.89233,3.5 -0.275,0 1.02655,-1.575 2.89233,-3.5 z m 49.45125,0.421118 c -0.25343,-0.410052 0.20334,-0.648077 1.01504,-0.528944 2.0896,0.306687 2.84115,1.274493 0.98972,1.274493 -0.84919,0 -1.75134,-0.335497 -2.00476,-0.745549 z M 727,14 c 0,-0.55 0.42344,-1 0.94098,-1 0.51754,0 1.2191,0.45 1.55902,1 0.33992,0.55 -0.0835,1 -0.94098,1 C 727.70156,15 727,14.55 727,14 Z M 866.26375,3.2824188 c 1.52006,-0.2298544 3.77006,-0.2237119 5,0.01365 1.22994,0.2373619 -0.0137,0.4254246 -2.76375,0.4179171 -2.75,-0.00751 -3.75631,-0.2017128 -2.23625,-0.4315671 z M 738.25,0.28374556 c 1.5125,-0.22912464 3.9875,-0.22912464 5.5,0 1.5125,0.22912464 0.275,0.41659026 -2.75,0.41659026 -3.025,0 -4.2625,-0.18746562 -2.75,-0.41659026 z"
             id="path1688"
             sodipodi:nodetypes="ssssssssssssssssssssssssssssssssssssssssscscccssssssssssssssssssssssssssssssssssssssssssssssssssssssssssscssssssssssssssssssscsssscssssssssssssscsssscsssssssssssssssssssssssssssssssssssssssssssssssssssssssssssssssssssssssssssssssssssssssssssssssssssssssssssssssssssssssssssssssssssssssscsssssssssssssssssssssssssssssssssssssssssssssssssssssssssssssssssssssssssssssssssssssssssscsssssssssssssssssssssssssssssssssssssssssssssssssssssssssssssssssssssssssscsssssssssssssssssssssssssssssssssssssssssssssssssssssssssssssssssssssssssssssssssssssssssssssssssssssssssssssssssssssssssssssssssssssssss" />
          <path
             style="fill:#47b147;fill-opacity:1;stroke:#47b147;stroke-width:3.37473;stroke-dasharray:none;stroke-opacity:1"
             d="m 977.69023,496.27282 c 0.65809,-4.90644 -1.16965,-8.66634 -6.59591,-13.56864 -4.92525,-4.44967 -10.84649,-7.4831 -32.69454,-16.74928 -24.20718,-10.26673 -29.53849,-13.25729 -35.9181,-20.14803 -6.41533,-6.92932 -18.1922,-24.48153 -25.03151,-37.30687 -7.60555,-14.26223 -15.9471,-25.77948 -25.89603,-35.75484 -11.2539,-11.28379 -15.36143,-19.48921 -19.07899,-38.11316 -0.31487,-1.5774 -0.81398,-2.62651 -1.10913,-2.33135 -0.29515,0.29515 -2.0573,7.59133 -3.91587,16.21373 l -3.37923,15.67709 2.9561,10.65427 c 5.48768,19.77845 7.21641,32.57531 7.65346,56.65426 0.21963,12.1 -0.006,25.6 -0.50031,30 -0.67835,6.03221 -0.77757,3.3265 -0.40339,-11 0.52518,-20.10747 -0.62537,-36.73272 -3.73705,-54 -2.34112,-12.99128 -6.03865,-26.6187 -7.05244,-25.99214 -0.4387,0.27113 -1.3927,5.33027 -2.12,11.24255 -0.7273,5.91227 -1.48633,9.91865 -1.68674,8.90306 -0.20041,-1.01559 0.39646,-7.18148 1.32637,-13.70197 l 1.69074,-11.85543 -4.22349,-12.79804 c -2.32292,-7.03891 -4.60884,-13.21698 -5.07982,-13.72902 -0.95822,-1.04177 -6.53851,10.4818 -14.00983,28.93099 -4.74489,11.71674 -4.8599,11.88995 -4.87206,7.33797 -0.0333,-12.45261 -5.37521,-28.62578 -11.91526,-36.07449 -1.8325,-2.0871 -9.0374,-6.97623 -16.87724,-11.45263 -10.45309,-5.96851 -15.48229,-9.57987 -21.32197,-15.31085 -8.60855,-8.44832 -11.7368,-13.86591 -16.14002,-27.95179 -5.98436,-19.14389 -16.93441,-42.062 -27.3939,-57.33456 -13.95263,-20.3731 -23.0316,-48.04269 -26.43773,-80.57313 -1.5141,-14.46045 -0.7003,-48.742377 1.51801,-63.947471 3.29634,-22.594315 9.29546,-40.959066 17.44443,-53.401604 8.81443,-13.458614 22.38208,-23.7724886 35.13903,-26.7120378 6.70034,-1.54394208 21.37739,-1.28829206 28.24788,0.4920318 18.37317,4.7609653 31.14017,17.324258 39.07643,38.452934 1.98505,5.284781 5.49624,18.45595 8.15686,30.598033 0.30303,1.382889 1.49501,2.328393 3.42099,2.713588 3.44072,0.688144 4.67048,3.896545 5.71642,14.914006 0.35244,3.7125 0.95076,6.75 1.32959,6.75 0.83213,0 3.4531,-17.31419 5.54772,-36.648363 1.829,-16.882365 3.40736,-23.450996 7.94909,-33.08162 9.69093,-20.5493155 28.80807,-28.7876293 55.18924,-23.7831685 26.45986,5.0193868 42.31325,24.5124045 48.84413,60.0577615 2.4933,13.570178 3.1697,49.40576 1.15054,60.95539 -3.09579,17.70795 -10.78517,36.13802 -22.62195,54.22073 -7.02714,10.73516 -9.36407,17.28723 -14.48016,40.59829 -2.02944,9.24697 -4.29041,18.80805 -5.02437,21.24683 -0.73397,2.43878 -0.92191,4.43415 -0.41765,4.43415 1.36849,0 4.76309,5.9487 5.99179,10.5 0.59392,2.2 2.37963,5.28231 3.96824,6.84959 3.72101,3.67102 4.90774,8.1403 4.95223,18.65041 0.0464,10.96005 0.9809,9.23913 4.87057,-8.96938 4.99616,-23.38829 12.04045,-35.21667 24.49262,-41.12665 7.43393,-3.52826 14.66359,-4.44458 23.31996,-2.9557 28.60456,4.91994 39.21184,30.25743 34.76877,83.05173 -0.5955,7.07597 -2.22744,18.82395 -5.97324,43 -2.17819,14.05845 -1.08936,22.13808 5.09173,37.78317 2.546,6.44426 5.24828,13.96683 6.00506,16.71683 1.94866,7.08109 1.69992,18.43647 -0.64619,29.5 -1.10801,5.225 -2.70231,14.45 -3.5429,20.5 -2.88066,20.73313 -7.37707,34.21892 -13.30176,39.89514 l -2.94866,2.825 z m 6.10405,-9.02282 c 2.75293,-6.40824 5.82867,-18.91538 7.19312,-29.25 0.61722,-4.675 2.22256,-14.19505 3.56741,-21.15566 3.723,-19.26926 3.25247,-23.94196 -4.25639,-42.26915 -7.9764,-19.46831 -8.72677,-27.27838 -4.8461,-50.43916 2.11814,-12.64158 5.54282,-39.12161 5.54647,-42.88603 6.6e-4,-0.6875 -1.01129,-1.31128 -2.24879,-1.38618 l -2.25,-0.13618 2.25,-0.43337 c 2.17479,-0.41889 2.24934,-0.80708 2.23019,-11.61382 C 990.91047,248.32698 977.53265,229 950.36253,229 c -9.45103,0 -15.32018,2.19466 -21.86454,8.17583 -9.21628,8.42316 -12.45045,15.87479 -17.87835,41.19232 C 908.00193,290.57803 906.08931,295 903.42592,295 c -2.50232,0 -4.25131,-5.92318 -6.84332,-23.17587 -2.456,-16.34739 -4.16107,-22.39948 -6.96666,-24.72791 -1.26178,-1.04718 -1.81752,-0.62142 -3.50409,2.68454 -1.99372,3.908 -1.99398,3.95033 -0.0484,7.88276 1.07587,2.17451 3.3088,9.95281 4.96207,17.28511 3.40179,15.08698 7.20309,23.96113 12.42861,29.01465 l 3.58115,3.46328 -0.60419,-3.46328 c -0.3323,-1.9048 -0.77612,-4.02578 -0.98627,-4.71328 -0.21014,-0.6875 -0.0335,-1.25 0.39264,-1.25 0.4261,0 1.56158,4.10464 2.52328,9.12142 2.057,10.73044 6.36433,24.87858 7.57416,24.87858 1.47131,0 3.957,-7.5619 7.98642,-24.29604 5.6788,-23.58403 12.06228,-38.62037 19.19074,-45.20396 3.21337,-2.96775 3.20883,-2.95064 -0.4225,1.59153 -7.43917,9.3051 -13.41296,25.20455 -20.05696,53.38232 -1.45626,6.17615 -3.53072,12.24961 -4.74494,13.89193 l -2.15744,2.91809 3.10632,7.44201 c 1.70848,4.0931 8.67912,17.19173 15.49031,29.10806 6.81119,11.91633 13.62231,23.98586 15.13583,26.82117 3.06635,5.74425 4.40581,6.46225 19.47336,10.43829 7.24831,1.91269 9.05731,2.84735 12.84835,6.63839 4.23698,4.23698 11.74495,18.18011 10.99727,20.42315 -0.18729,0.56185 -1.41836,-1.60567 -2.73573,-4.8167 -4.83488,-11.7848 -10.72856,-18.36194 -18.27938,-20.39914 -2.34662,-0.63311 -7.26144,-2.00341 -10.92182,-3.04511 C 957.18438,405.8523 953.96272,405 953.68551,405 c -0.27721,0 0.30491,1.6875 1.29359,3.75 5.42375,11.31452 24.01079,56.18337 23.95322,57.82272 -0.0821,2.33706 0.92725,4.51073 -10.01704,-21.57272 -4.50007,-10.725 -8.87736,-21.075 -9.7273,-23 -1.53928,-3.48624 -1.55041,-3.44693 -2.8316,10 -1.41135,14.81312 -0.77743,22.2398 2.67327,31.31863 2.28321,6.00717 2.28012,5.99085 0.98372,5.18963 -1.93046,-1.19309 -5.21268,-14.5589 -5.34469,-21.76454 -0.073,-3.98405 0.25858,-12.86872 0.73681,-19.74372 l 0.86952,-12.5 -4.69097,-9.33647 c -5.24179,-10.43279 -4.55325,-10.18325 -13.42404,-4.86499 -13.97629,8.37913 -23.72253,22.5182 -27.6204,40.06946 -0.35031,1.5774 -0.82186,2.68307 -1.04788,2.45705 -0.22602,-0.22602 0.24103,-3.20572 1.03789,-6.62157 3.29942,-14.14335 13.40754,-28.19516 26.00541,-36.15143 3.52878,-2.22863 6.85043,-4.05205 7.38145,-4.05205 2.35805,0 1.75539,-2.31751 -2.60318,-10.01051 l -4.66582,-8.2353 -5.57373,0.51527 c -3.06556,0.2834 -8.18321,1.43737 -11.37257,2.56438 -9.69889,3.42726 -14.40752,7.56741 -22.97589,20.20192 -4.27609,6.30533 -8.19879,11.6093 -8.71709,11.7866 -1.85894,0.6359 13.9299,-21.53371 17.87305,-25.0961 6.51461,-5.88556 14.11613,-9.15106 24.41168,-10.48689 l 5.69845,-0.73937 -6.78053,-11.50767 c -9.83835,-16.69729 -16.24519,-32.10839 -20.70871,-49.813 -1.22389,-4.85456 -2.39335,-7.02293 -5.04176,-9.34827 -5.30216,-4.65536 -10.07218,-15.50109 -13.46208,-30.60911 -1.63861,-7.30293 -3.79703,-14.87198 -4.79648,-16.82011 l -1.81718,-3.54205 -5.66664,7.3983 c -6.32107,8.25272 -19.63536,21.40489 -33.17967,32.77567 -5.03115,4.22377 -9.26371,8.60746 -9.65032,9.99489 -0.37875,1.35924 -0.7335,7.70115 -0.78832,14.09313 -0.0788,9.18927 0.39886,13.58709 2.28221,21.01148 4.02845,15.8806 7.15729,21.4974 17.86505,32.07084 10.95386,10.81644 16.17472,17.93351 24.79161,33.7959 8.01026,14.7457 20.57218,33.32315 26.77593,39.59816 5.53812,5.60174 10.85509,8.3982 38.0889,20.03293 25.26974,10.79563 33.1185,16.12093 35.54794,24.11891 1.0233,3.36881 2.08408,2.75818 4.34296,-2.5 z m 2.78652,-57.99543 C 985.25917,425.0905 979.86704,417.91623 975.89806,415.04111 973.58908,413.3685 972.15408,412 972.70917,412 c 2.13849,0 9.98865,8.02881 12.67369,12.9621 1.5485,2.84511 2.58692,5.40145 2.3076,5.68077 -0.27932,0.27932 -0.77866,-0.34542 -1.10966,-1.3883 z M 902,400.59994 c 0,-1.44331 4.9467,-7.18299 8.19324,-9.50667 2.4405,-1.74676 1.86594,-0.83071 -2.19324,3.49681 -3.025,3.22497 -5.6125,6.06151 -5.75,6.30342 -0.1375,0.24191 -0.25,0.10981 -0.25,-0.29356 z M 922,384 c 0.825,-0.53316 2.175,-0.94464 3,-0.9144 0.98906,0.0362 0.81874,0.34772 -0.5,0.9144 -2.74909,1.18132 -4.32797,1.18132 -2.5,0 z m 5.8125,-1.68311 c 0.72187,-0.28887 1.58438,-0.25335 1.91667,0.0789 0.33229,0.33229 -0.25834,0.56864 -1.3125,0.52522 -1.16495,-0.048 -1.4019,-0.28494 -0.60417,-0.60416 z M 934.14085,350.25 c 1.95071,-2.0625 7.0301,-8.34927 11.28754,-13.97061 10.57782,-13.96648 17.38109,-20.01954 28.72454,-25.55705 5.14089,-2.50961 10.47207,-4.83882 11.84707,-5.17601 1.375,-0.33719 -2.19523,1.66034 -7.93385,4.43896 -13.8103,6.6869 -19.56518,11.20751 -27.68057,21.74379 C 937.11385,348.9599 932.89735,354 931.75395,354 c -0.63791,0 0.43619,-1.6875 2.3869,-3.75 z m -31.24077,-9.30288 c -11.43794,-7.36509 -23.61045,-13.29701 -30.62111,-14.9223 -9.61877,-2.22994 -19.27995,1.11942 -27.61459,9.57349 -2.56541,2.60216 -4.66438,4.26865 -4.66438,3.70329 0,-0.56535 2.26475,-3.14632 5.03277,-5.73549 14.20751,-13.28946 29.3524,-12.26493 53.65526,3.62971 4.29658,2.81007 9.79149,6.16558 12.21091,7.45669 2.41942,1.29112 3.72445,2.34749 2.90008,2.34749 -0.82437,0 -5.72889,-2.7238 -10.89894,-6.05288 z m -4.15008,2.98479 c -2.0625,-1.08883 -3.75,-2.20308 -3.75,-2.47612 0,-0.27304 1.8,0.42185 4,1.54421 2.2,1.12236 4,2.2565 4,2.52032 0,0.65417 -0.007,0.65155 -4.25,-1.58841 z M 889,338.5 c -2.475,-1.32529 -4.14457,-2.42996 -3.71016,-2.45481 1.06195,-0.0608 8.71016,3.86876 8.71016,4.47513 0,0.66249 0.0415,0.67926 -5,-2.02032 z m -8,-3.5 c -0.825,-0.53316 -1.05,-0.96937 -0.5,-0.96937 0.55,0 1.675,0.43621 2.5,0.96937 0.825,0.53316 1.05,0.96937 0.5,0.96937 -0.55,0 -1.675,-0.43621 -2.5,-0.96937 z m -9.1875,-2.68311 c 0.72187,-0.28887 1.58438,-0.25335 1.91667,0.0789 0.33229,0.33229 -0.25834,0.56864 -1.3125,0.52522 -1.16495,-0.048 -1.4019,-0.28494 -0.60417,-0.60416 z m 98.18981,-25.8186 c 3.38189,-2.49507 12.98514,-6.54503 15.2852,-6.44619 0.66687,0.0287 -1.67417,1.12386 -5.20231,2.43379 -3.52813,1.30992 -7.67241,3.31147 -9.2095,4.44789 -1.5371,1.13642 -3.12536,2.06622 -3.52949,2.06622 -0.40412,0 0.79112,-1.12577 2.6561,-2.50171 z m -72.86029,-1.7685 C 894.17487,299.92884 890.0174,290.72916 890.0335,289 c 0.008,-0.825 1.06114,1.04588 2.34101,4.15751 1.27987,3.11163 3.53816,7.72413 5.01842,10.25 3.05346,5.21033 2.84171,6.32624 -0.25091,1.32228 z M 933.45983,291 c 1.47983,-8.80729 10.83976,-23.20911 19.17994,-29.51153 2.40685,-1.81879 1.37169,-0.45221 -2.74943,3.62969 -7.45992,7.38892 -11.33614,13.42076 -14.70447,22.88184 -1.38074,3.87827 -2.07692,5.0883 -1.72604,3 z m -44.38088,-5.58333 c 0.048,-1.16495 0.28494,-1.4019 0.60416,-0.60417 0.28887,0.72187 0.25335,1.58438 -0.0789,1.91667 -0.33229,0.33229 -0.56864,-0.25834 -0.52522,-1.3125 z m -1,-4 c 0.048,-1.16495 0.28494,-1.4019 0.60416,-0.60417 0.28887,0.72187 0.25335,1.58438 -0.0789,1.91667 -0.33229,0.33229 -0.56864,-0.25834 -0.52522,-1.3125 z m -1,-4 c 0.048,-1.16495 0.28494,-1.4019 0.60416,-0.60417 0.28887,0.72187 0.25335,1.58438 -0.0789,1.91667 -0.33229,0.33229 -0.56864,-0.25834 -0.52522,-1.3125 z m -2.45541,-6.95533 c -0.96498,-2.51469 -0.68031,-3.16355 0.49853,-1.13634 0.58369,1.00375 0.8506,2.03566 0.59313,2.29313 -0.25747,0.25747 -0.74872,-0.26309 -1.09166,-1.15679 z m 76.10979,-14.58543 c 0.67834,-0.68342 1.48524,-0.99067 1.79313,-0.68278 0.30789,0.30789 -0.24711,0.86705 -1.23333,1.24258 -1.4252,0.54268 -1.54006,0.42782 -0.5598,-0.5598 z M 798.96609,360.25 c 3.76381,-9.272 13.59289,-29.17985 18.14453,-36.75 7.92424,-13.17936 14.88873,-21.38216 26.26004,-30.92917 22.67025,-19.03325 40.07094,-39.31413 44.0416,-51.33141 0.86128,-2.60668 3.16482,-11.93942 5.11899,-20.73942 6.64782,-29.93643 7.54672,-32.41426 17.04602,-46.98747 9.5876,-14.70868 17.7442,-33.98087 20.3518,-48.08667 2.86104,-15.4768 2.12615,-48.406158 -1.46595,-65.686834 C 921.19778,24.787367 905.35642,7.7834203 876.47979,3.9406563 860.86764,1.8630671 847.77722,5.5933136 838.64367,14.722436 c -9.93069,9.925877 -14.5966,22.990429 -17.12405,47.947394 -0.84496,8.343406 -2.18763,18.900814 -2.98371,23.460905 -0.79609,4.560091 -1.28982,8.448689 -1.09718,8.641329 0.61855,0.618552 9.08923,-10.988622 14.95494,-20.492414 16.49751,-26.729736 35.77003,-47.578165 48.32366,-52.275079 2.92819,-1.095575 7.90218,-2.208621 11.05332,-2.473435 5.71091,-0.479931 5.70648,-0.477026 -1.37373,0.902396 -3.90669,0.761132 -9.44659,2.571424 -12.31089,4.022872 C 867.85711,29.639791 849.77969,49.264435 837.51487,68.5 826.45506,85.845679 822.6376,91.201248 817.34068,96.802665 814.4033,99.908891 812,102.84125 812,103.31901 c 0,1.13131 7.90114,0.0466 21,-2.88299 17.51858,-3.918067 28.93273,-5.42778 41.0685,-5.431999 16.68725,-0.0058 24.73407,2.841238 37.04534,13.106979 4.70134,3.9202 12.6626,14.4459 11.67406,15.43444 -0.2997,0.2997 -1.71786,-1.45658 -3.15147,-3.90284 -3.75579,-6.40878 -13.95131,-15.1949 -22.57907,-19.45781 L 889.59967,96.5 872.54984,96.54131 C 857.6514,96.57741 853.92271,96.934069 843,99.367866 c -6.875,1.531884 -16.60373,3.516334 -21.6194,4.409894 l -9.11939,1.62464 -0.49354,11.18378 c -0.36256,8.21586 -1.7754,17.06919 -5.32391,33.36139 -4.51681,20.73801 -4.75492,22.53732 -3.66811,27.71874 0.63924,3.0476 5.90972,15.39932 11.71218,27.44825 11.30336,23.4717 13.18984,27.83546 17.55913,40.61726 3.69515,10.8097 7.83378,31.93054 6.03951,30.82162 -0.43729,-0.27026 -1.08059,-3.22312 -1.42957,-6.56192 -1.61455,-15.4472 -6.59345,-29.45991 -21.67108,-60.99152 -5.91741,-12.375 -11.31907,-24.3 -12.00369,-26.5 -0.68462,-2.2 -1.49235,-4.4267 -1.79497,-4.94822 -0.62302,-1.07371 -3.48213,13.00828 -5.6744,27.94822 -1.45627,9.92422 -1.46344,9.94107 -0.94594,2.22311 0.65351,-9.74627 4.46662,-31.63721 8.93497,-51.2953 4.73209,-20.81841 6.25478,-30.13034 7.01954,-42.92781 0.74627,-12.48803 1.2221,-11.47921 -9.23186,-19.573077 C 792.60654,87.204251 786.73366,78.23301 773.51533,51.5 760.09783,24.364153 756.02629,18.509238 747.2527,13.734053 744.5126,12.242702 739.84729,10.582291 736.88535,10.044251 L 731.5,9.0659963 736.67205,9.476651 c 9.7008,0.770232 18.87621,7.267973 26.1567,18.523349 1.95671,3.025 7.25269,13.44533 11.76884,23.15629 9.87849,21.241421 16.52377,31.888995 24.52638,39.297995 5.31925,4.924695 9.03691,7.233073 7.41037,4.60127 -0.32104,-0.519444 -2.60267,-10.01772 -5.0703,-21.10728 C 798.99641,62.858716 795.82294,50.346216 794.41187,46.14272 784.49365,16.596802 764.81179,1.653754 738,3.3131819 707.70527,5.1881752 686.59911,30.98207 679.02279,75.389378 c -5.91252,34.655202 -4.80932,72.911432 2.97292,103.093982 4.75834,18.45467 10.46545,31.41388 20.7057,47.01664 11.59606,17.66859 19.72934,34.75284 27.37395,57.5 7.4884,22.28236 13.95259,29.43147 39.90306,44.13099 5.21313,2.95296 11.22006,7.10095 13.34875,9.21776 4.85549,4.82842 9.50944,14.64991 10.96303,23.13593 0.61381,3.58342 1.39182,6.51532 1.7289,6.51532 0.33708,0 1.66322,-2.5875 2.94699,-5.75 z m -27.46306,-44.24509 c -1.41024,-2.28183 -1.79795,-24.87772 -0.55867,-32.55997 1.75237,-10.86283 3.9855,-16.77985 13.24691,-35.09965 7.2224,-14.28649 8.25188,-17.00417 8.902,-23.5 l 0.73514,-7.34529 -0.17878,7.65369 c -0.17597,7.53366 -0.32427,7.94142 -9.45605,26 -7.7628,15.35135 -9.59479,19.89714 -11.22229,27.84631 -2.03587,9.94378 -2.4702,23.78709 -1.01966,32.5 0.86438,5.19212 0.74113,6.42992 -0.4486,4.50491 z M 835.27236,287 c 0,-2.475 0.19502,-3.4875 0.43337,-2.25 0.23836,1.2375 0.23836,3.2625 0,4.5 -0.23835,1.2375 -0.43337,0.225 -0.43337,-2.25 z m -1.11447,-9 c 0,-1.375 0.22698,-1.9375 0.50439,-1.25 0.27741,0.6875 0.27741,1.8125 0,2.5 -0.27741,0.6875 -0.50439,0.125 -0.50439,-1.25 z m -1,-6 c 0,-1.375 0.22698,-1.9375 0.50439,-1.25 0.27741,0.6875 0.27741,1.8125 0,2.5 -0.27741,0.6875 -0.50439,0.125 -0.50439,-1.25 z m -1.07894,-4.58333 c 0.048,-1.16495 0.28494,-1.4019 0.60416,-0.60417 0.28887,0.72187 0.25335,1.58438 -0.0789,1.91667 -0.33229,0.33229 -0.56864,-0.25834 -0.52522,-1.3125 z m -1,-5 c 0.048,-1.16495 0.28494,-1.4019 0.60416,-0.60417 0.28887,0.72187 0.25335,1.58438 -0.0789,1.91667 -0.33229,0.33229 -0.56864,-0.25834 -0.52522,-1.3125 z m -1,-4 c 0.048,-1.16495 0.28494,-1.4019 0.60416,-0.60417 0.28887,0.72187 0.25335,1.58438 -0.0789,1.91667 -0.33229,0.33229 -0.56864,-0.25834 -0.52522,-1.3125 z m -1,-4 c 0.048,-1.16495 0.28494,-1.4019 0.60416,-0.60417 0.28887,0.72187 0.25335,1.58437 -0.0789,1.91667 -0.33229,0.33229 -0.56864,-0.25834 -0.52522,-1.3125 z M 724.17707,247.25 c 1.78462,-6.58785 7.00314,-18.50564 11.71318,-26.75 6.61218,-11.57381 16.564,-21.44961 32.81645,-32.5658 7.58631,-5.18881 16.47378,-12.0217 19.74992,-15.1842 7.87379,-7.60066 8.59419,-7.38587 1.01208,0.30176 -3.28279,3.32846 -11.99046,10.16576 -19.35039,15.194 -7.35993,5.02824 -15.72956,11.28808 -18.59918,13.91075 -9.77807,8.93661 -20.79267,27.55981 -25.19088,42.5921 -1.93776,6.6229 -3.87924,8.88045 -2.15118,2.50139 z m 102.90188,0.16667 c 0.048,-1.16495 0.28494,-1.4019 0.60416,-0.60417 0.28887,0.72187 0.25335,1.58437 -0.0789,1.91667 -0.33229,0.33229 -0.56864,-0.25834 -0.52522,-1.3125 z m 14.63534,-6.63096 c -0.91066,-2.84768 -1.48976,-5.34358 -1.2869,-5.54644 0.20286,-0.20286 1.13554,1.93947 2.07261,4.76073 0.93707,2.82126 1.51617,5.31716 1.28689,5.54644 -0.22928,0.22928 -1.16195,-1.91304 -2.0726,-4.76073 z M 835.71005,226.4648 C 833.67853,222.35916 832.23203,219 832.49561,219 c 0.66795,0 7.71601,14.12172 7.27044,14.56728 -0.19927,0.19928 -2.02447,-2.99684 -4.056,-7.10248 z m -5.0083,-9.2148 c -0.22895,-0.4125 -1.67957,-3 -3.22359,-5.75 -1.54401,-2.75 -2.34307,-4.55 -1.77568,-4 1.44696,1.4026 6.6035,10.5 5.95156,10.5 -0.2948,0 -0.72333,-0.3375 -0.95229,-0.75 z M 823,204 c -0.5887,-1.1 -0.84537,-2 -0.57037,-2 0.275,0 0.98167,0.9 1.57037,2 0.5887,1.1 0.84537,2 0.57037,2 -0.275,0 -0.98167,-0.9 -1.57037,-2 z m -6.18437,-11.52838 c -2.25071,-4.69061 -3.91747,-8.69766 -3.70392,-8.90456 0.21356,-0.20689 2.26896,3.63088 4.56756,8.52838 2.2986,4.89751 3.96537,8.90456 3.70392,8.90456 -0.26144,0 -2.31685,-3.83777 -4.56756,-8.52838 z M 764,198.55136 c 0,-0.275 1.35,-1.19811 3,-2.05136 1.65,-0.85325 3,-1.32636 3,-1.05136 0,0.275 -1.35,1.19811 -3,2.05136 -1.65,0.85325 -3,1.32636 -3,1.05136 z m 13,-7.86908 c 0,-0.24309 2.5875,-2.38372 5.75,-4.75695 3.1625,-2.37323 5.20782,-3.64317 4.54516,-2.8221 C 785.93666,184.78648 777,191.36544 777,190.68228 Z m 113.61702,-11.07689 c -4.67298,-6.78496 -13.58151,-15.32813 -20.79626,-19.94335 -3.05303,-1.953 -12.92417,-7.14957 -21.93586,-11.54794 -15.54281,-7.58602 -27.57519,-15.59227 -28.72609,-19.1141 -0.2696,-0.825 2.06181,0.83158 5.1809,3.68128 4.19201,3.82995 10.84266,7.80403 25.49985,15.23735 21.13582,10.71894 30.37763,16.93002 36.79772,24.73041 5.35507,6.5064 8.67804,11.36897 8.13821,11.9088 -0.24348,0.24348 -2.11479,-1.98512 -4.15847,-4.95245 z M 691.55111,177.25 c 6.66452,-11.54862 17.8667,-23.68259 27.88904,-30.20886 9.03217,-5.8815 17.49387,-8.63885 40.33211,-13.14272 17.64749,-3.48022 23.92487,-5.15266 38.72774,-10.31801 1.1,-0.38383 0.35183,0.21912 -1.6626,1.33991 -5.36912,2.98725 -18.61552,6.58985 -37.06443,10.08034 -25.1476,4.75787 -34.55389,8.32236 -45.9948,17.42964 -6.92576,5.51308 -15.79216,16.01297 -20.10402,23.80783 -1.74578,3.15598 -3.55441,5.74348 -4.01917,5.75 -0.46476,0.007 0.38849,-2.12563 1.89613,-4.73813 z M 889,170.08116 c -4.125,-4.22943 -9.075,-8.93784 -11,-10.46315 -2.74278,-2.17328 -2.52644,-2.10165 1,0.33111 5.04569,3.48084 15.69376,13.61014 17.13181,16.29716 1.33228,2.48939 1.18403,2.36124 -7.13181,-6.16512 z m -25.25926,-19.45497 c -4.80344,-2.95339 -6.14478,-4.34792 -2.24074,-2.32958 3.13456,1.62053 7.36317,4.63935 6.5,4.64038 -0.275,3.2e-4 -2.19167,-1.03953 -4.25926,-2.3108 z M 683.552,139.25 c 11.24959,-17.36032 22.37845,-28.6434 33.79027,-34.25855 15.07215,-7.41619 24.70983,-7.58732 55.20915,-0.98031 10.24089,2.21846 21.4171,4.03429 25.18099,4.09122 5.18519,0.0784 6.04543,0.275 3.67906,0.84068 -4.20601,1.00545 -13.52236,-0.23408 -29.48724,-3.92324 -19.4151,-4.48644 -31.03722,-5.677334 -39.91777,-4.09029 -15.24036,2.7236 -28.07999,12.17609 -41.63764,30.65348 C 686.16495,137.31235 682.51044,142 682.2477,142 c -0.26275,0 0.32419,-1.2375 1.3043,-2.75 z M 719,139.94601 c 2.53475,-1.72932 8.87511,-4.94705 9.71016,-4.92789 0.43441,0.01 -1.64456,1.35996 -4.61993,3 -5.27971,2.91019 -8.09035,3.9747 -5.09023,1.92789 z m 16.8125,-7.62912 c 0.72187,-0.28887 1.58438,-0.25335 1.91667,0.0789 0.33229,0.33229 -0.25834,0.56864 -1.3125,0.52522 -1.16495,-0.048 -1.4019,-0.28494 -0.60417,-0.60416 z m 12,-3 c 0.72187,-0.28887 1.58438,-0.25335 1.91667,0.0789 0.33229,0.33229 -0.25834,0.56864 -1.3125,0.52522 -1.16495,-0.048 -1.4019,-0.28494 -0.60417,-0.60416 z m 3.9375,-0.97917 c 0.6875,-0.27741 1.8125,-0.27741 2.5,0 0.6875,0.27741 0.125,0.50439 -1.25,0.50439 -1.375,0 -1.9375,-0.22698 -1.25,-0.50439 z m 5,-1 c 0.6875,-0.27741 1.8125,-0.27741 2.5,0 0.6875,0.27741 0.125,0.50439 -1.25,0.50439 -1.375,0 -1.9375,-0.22698 -1.25,-0.50439 z m 5,-1 c 0.6875,-0.27741 1.8125,-0.27741 2.5,0 0.6875,0.27741 0.125,0.50439 -1.25,0.50439 -1.375,0 -1.9375,-0.22698 -1.25,-0.50439 z m 5,-1 c 0.6875,-0.27741 1.8125,-0.27741 2.5,0 0.6875,0.27741 0.125,0.50439 -1.25,0.50439 -1.375,0 -1.9375,-0.22698 -1.25,-0.50439 z m 5,-1 c 0.6875,-0.27741 1.8125,-0.27741 2.5,0 0.6875,0.27741 0.125,0.50439 -1.25,0.50439 -1.375,0 -1.9375,-0.22698 -1.25,-0.50439 z m 5,-1 c 0.6875,-0.27741 1.8125,-0.27741 2.5,0 0.6875,0.27741 0.125,0.50439 -1.25,0.50439 -1.375,0 -1.9375,-0.22698 -1.25,-0.50439 z m 5.0625,-1.02083 c 0.72187,-0.28887 1.58438,-0.25335 1.91667,0.0789 0.33229,0.3323 -0.25834,0.56864 -1.3125,0.52522 -1.16495,-0.048 -1.4019,-0.28494 -0.60417,-0.60416 z m 4,-1 c 0.72187,-0.28887 1.58438,-0.25335 1.91667,0.0789 0.33229,0.3323 -0.25834,0.56864 -1.3125,0.52522 -1.16495,-0.048 -1.4019,-0.28494 -0.60417,-0.60416 z M 800,117 c 0.825,-0.53316 1.95,-0.96937 2.5,-0.96937 0.55,0 0.325,0.43621 -0.5,0.96937 -0.825,0.53316 -1.95,0.96937 -2.5,0.96937 -0.55,0 -0.325,-0.43621 0.5,-0.96937 z m 115,-10.80133 c -3.025,-3.13578 -8.06081,-7.039991 -11.19069,-8.67602 -3.12988,-1.636029 -5.5342,-3.131091 -5.34293,-3.322361 0.56957,-0.569575 6.69961,2.815513 11.74403,6.485211 3.76751,2.74077 12.00047,11.47044 10.62362,11.26455 -0.18372,-0.0275 -2.80903,-2.61559 -5.83403,-5.75138 z M 893.5,93 c -1.31874,-0.566682 -1.48906,-0.878155 -0.5,-0.914402 0.825,-0.03024 2.175,0.381246 3,0.914402 1.82797,1.181322 0.24909,1.181322 -2.5,0 z m -4.6875,-1.683114 c 0.72187,-0.288871 1.58438,-0.253344 1.91667,0.07895 0.33229,0.332292 -0.25834,0.568641 -1.3125,0.52522 -1.16495,-0.04798 -1.4019,-0.284941 -0.60417,-0.604167 z M 882.25,90.310674 c 0.9625,-0.251527 2.5375,-0.251527 3.5,0 0.9625,0.251528 0.175,0.457323 -1.75,0.457323 -1.925,0 -2.7125,-0.205795 -1.75,-0.457323 z M 864,28.5 c 1.86578,-1.925 3.61733,-3.5 3.89233,-3.5 0.275,0 -1.02655,1.575 -2.89233,3.5 -1.86578,1.925 -3.61733,3.5 -3.89233,3.5 -0.275,0 1.02655,-1.575 2.89233,-3.5 z M 751.8322,24.89412 c -3.11728,-3.232074 -4.88909,-5.459751 -3.93735,-4.950394 C 749.69625,20.907806 758,29.5639 758,30.477657 c 0,0.797137 -0.10822,0.699169 -6.1678,-5.583537 z m 117.76764,-1.055667 c 0.64958,-1.051037 10.45728,-6.114668 10.92926,-5.642683 0.18163,0.181629 -2.32503,1.722744 -5.57036,3.424701 -3.24533,1.701956 -5.65683,2.700048 -5.3589,2.217982 z M 740,17 c -0.825,-0.533156 -1.05,-0.969374 -0.5,-0.969374 0.55,0 1.675,0.436218 2.5,0.969374 0.825,0.533156 1.05,0.969374 0.5,0.969374 -0.55,0 -1.675,-0.436218 -2.5,-0.969374 z m 145.75,-0.662281 c 0.6875,-0.277412 1.8125,-0.277412 2.5,0 0.6875,0.277413 0.125,0.504386 -1.25,0.504386 -1.375,0 -1.9375,-0.226973 -1.25,-0.504386 z M 735.8125,15.316886 c 0.72187,-0.288871 1.58438,-0.253344 1.91667,0.07895 0.33229,0.332292 -0.25834,0.568641 -1.3125,0.52522 -1.16495,-0.04798 -1.4019,-0.284941 -0.60417,-0.604167 z M 730.75,14.337719 c 0.6875,-0.277412 1.8125,-0.277412 2.5,0 0.6875,0.277413 0.125,0.504386 -1.25,0.504386 -1.375,0 -1.9375,-0.226973 -1.25,-0.504386 z M 826.87346,345.25 c 1.74019,-8.1125 3.60295,-17.45 4.13947,-20.75 1.15898,-7.12865 1.2938,-16.50484 0.23707,-16.48815 -0.97254,0.0154 -7.04094,8.77785 -12.65345,18.27101 l -4.42803,7.4897 4.09592,13.11372 C 820.5172,354.09883 822.66392,360 823.03493,360 c 0.37101,0 2.09835,-6.6375 3.83853,-14.75 z M 904,283.04922 c 0,-8.72597 -1.60075,-16.3548 -4.04713,-19.28772 -1.80175,-2.16009 -1.88756,-2.17182 -1.91371,-0.2615 -0.0299,2.18841 2.60552,20.63732 3.46417,24.25 C 902.608,292.39776 904,289.77687 904,283.04922 Z M 811.43358,93.25 c -1.30323,-11.720546 -1.64988,-13.295387 -3.40231,-15.456904 -1.02251,-1.261203 -2.19919,-1.95425 -2.61485,-1.540104 -0.74448,0.741779 1.8941,14.803334 3.63892,19.392564 1.55203,4.082147 2.94274,2.681307 2.37824,-2.395556 z M 832.232,475 c 0,-1.925 0.2058,-2.7125 0.45733,-1.75 0.25152,0.9625 0.25152,2.5375 0,3.5 -0.25153,0.9625 -0.45733,0.175 -0.45733,-1.75 z m -14.07411,-78 c 0,-1.375 0.22698,-1.9375 0.50439,-1.25 0.27741,0.6875 0.27741,1.8125 0,2.5 -0.27741,0.6875 -0.50439,0.125 -0.50439,-1.25 z"
             id="path1686"
             sodipodi:nodetypes="ssssssssscsscsssssscssssssssssssssssssssssssssssssssssssssssscsssssssscsssssssssssscsssssssssscssssssssssssssssssscsssssssscsssssscssssscsssssssssssssssssssssssssssssssssssssssssssssssssssssssssssssssssssssssssscsssssssssssssssssssssssssssssssssssssssssssssssssssssssssscssscsssssssssssssssssscssssssssssssssssssssscssssssssssssssssssssssssssssssssssssssssssssssssssssssssssssssssssssssssssssssssssssssssssssssssssssscssssssssssssssssssssssssssssssssssssssssssssssssssssssssssssssssssssssssssssssssssssssssssssssssssssssssssssssssssssssssssssssscsssssssssssssssssssss" />
        </g>
        <path
           style="fill:#47b147;fill-opacity:1;stroke:#47b147;stroke-width:0.0686204;stroke-linecap:round;stroke-linejoin:bevel;stroke-dasharray:none;stroke-opacity:1"
           d="m 27.527491,39.646608 c -1.666788,-1.834244 -2.990117,-3.350574 -2.940729,-3.369622 0.903555,-0.348483 18.380089,-6.266393 18.411854,-6.234629 0.02473,0.02473 -0.126936,0.582396 -0.337043,1.239249 -0.210108,0.656853 -0.422315,1.424422 -0.471571,1.705709 -0.04926,0.281287 -0.173159,0.644596 -0.27534,0.807354 -0.114675,0.182657 -0.155254,0.434924 -0.106021,0.659082 0.04516,0.205627 0.02105,0.399442 -0.05558,0.446805 -0.07444,0.04601 -0.136129,0.324779 -0.137089,0.619496 -10e-4,0.294718 -0.03372,0.654911 -0.0728,0.800431 -0.04967,0.184941 -1.424986,1.056644 -4.569171,2.896025 -2.473964,1.447295 -4.929636,2.886516 -5.45705,3.198268 l -0.958933,0.566823 z"
           id="path8483"
           transform="matrix(5.9224395,0,0,6.7863444,865.75456,302.93581)" />
        <path
           style="fill:#47b147;fill-opacity:1;stroke:#ffffff;stroke-width:0.0686204;stroke-linecap:round;stroke-linejoin:bevel;stroke-dasharray:none;stroke-opacity:1"
           d="m 42.897975,35.387235 c 0.0049,-1.02865 1.029979,-4.80304 1.525998,-5.618678 0.1309,-0.215249 0.383369,-0.427847 0.561041,-0.47244 0.878296,-0.220438 1.862886,-1.0209 3.731372,-3.033573 1.053419,-1.134708 2.077945,-2.200282 2.276726,-2.367942 0.410064,-0.345866 0.865156,-0.435538 0.602162,-0.11865 -0.08499,0.102402 -0.117403,0.246242 -0.07204,0.319644 0.04868,0.07876 -0.0452,0.133459 -0.229053,0.133459 -0.416254,0 -0.69298,0.332966 -0.513651,0.618042 0.09483,0.150747 0.410416,0.240444 1.079377,0.306784 0.519951,0.05156 1.060438,0.149957 1.201082,0.218656 0.263145,0.128536 0.519549,0.176744 0.799111,0.150245 0.239377,-0.02269 0.192523,-0.494828 -0.06393,-0.644197 -0.377103,-0.219642 0.07692,-0.159101 0.573296,0.07645 0.419909,0.19926 0.432672,0.221739 0.179145,0.315524 -0.150135,0.05554 -0.272974,0.187253 -0.272974,0.292698 0,0.173046 1.807741,2.117963 1.968582,2.117963 0.03695,0 0.177187,-0.118076 0.311637,-0.262392 0.195014,-0.209322 0.25858,-0.225583 0.314294,-0.0804 0.0598,0.155832 -5.507558,3.509656 -13.361041,8.048807 l -0.612817,0.354195 z"
           id="path8485"
           transform="matrix(5.9224395,0,0,6.7863444,865.75456,302.93581)" />
        <path
           style="fill:#47b147;fill-opacity:1;stroke:#ffffff;stroke-width:0.0686204;stroke-linecap:round;stroke-linejoin:bevel;stroke-dasharray:none;stroke-opacity:1"
           d="m 57.440828,26.562408 c -0.902161,-1.347859 -2.032355,-2.12333 -3.996264,-2.741993 l -1.15072,-0.362496 1.726081,0.05207 c 1.335603,0.04029 1.914088,0.115428 2.557156,0.332133 1.095117,0.36904 2.263495,1.028582 2.789393,1.574595 l 0.424024,0.440243 -0.615811,0.353596 c -0.338695,0.194478 -0.795172,0.461072 -1.014392,0.592431 l -0.398581,0.238835 z"
           id="path8487"
           transform="matrix(5.9224395,0,0,6.7863444,865.75456,302.93581)" />
        <path
           style="fill:#47b147;fill-opacity:1;stroke:#ffffff;stroke-width:0.0686204;stroke-linecap:round;stroke-linejoin:bevel;stroke-dasharray:none;stroke-opacity:1"
           d="M 60.666351,24.813196 C 60.225199,24.379198 58.101216,23.289203 57.024583,22.944297 56.33149,22.722261 55.69056,22.640138 54.183562,22.580276 l -1.946017,-0.0773 4.48879,-4.776281 4.488791,-4.776281 3.754223,3.752606 c 2.064823,2.063933 3.754224,3.789308 3.754224,3.834166 0,0.06239 -7.300073,4.402638 -7.66235,4.555637 -0.04257,0.01798 -0.220266,-0.107852 -0.394872,-0.279627 z"
           id="path8491"
           transform="matrix(5.9224395,0,0,6.7863444,865.75456,302.93581)" />
        <path
           id="path6151"
           style="fill:none;fill-opacity:1;stroke:#47b147;stroke-width:10.4005;stroke-linecap:round;stroke-linejoin:round;stroke-dasharray:none;stroke-dashoffset:0;stroke-opacity:1;paint-order:normal;image-rendering:optimizeQuality"
           d="m 998.19755,762.57877 v 0.0199 c -25.42932,-0.10915 -56.22915,18.44567 -90.62146,32.7061 l -0.35006,-0.0774 -0.14017,0.56388 v 5.3e-4 0.0401 l -35.5204,142.71655 c -0.098,0.0401 -0.1937,0.0826 -0.29102,0.12318 -0.0677,0.006 -0.1307,0.0133 -0.19604,0.0199 v 0.0599 c -0.042,0.0199 -0.0818,0.0333 -0.12363,0.0532 l 0.0841,0.37947 h 0.0467 l 0.0232,0.241 h 0.0232 0.17504 0.0232 l 0.37902,-0.003 c 0.8229,-0.22501 1.65165,-0.46002 2.47599,-0.68836 -0.64554,0.0599 -1.29458,0.11514 -1.93594,0.18106 l -0.0233,-0.0873 -0.29126,0.003 0.002,-0.008 c 34.44842,-14.30413 65.28099,-32.81863 90.48234,-32.60959 16.0915,0.13315 29.91897,7.84957 41.09064,29.2226 v 0.008 0.006 c 0.1914,0.29493 0.3835,0.60982 0.5752,0.91294 0.6783,0.63979 1.3506,1.29528 2.0091,1.98046 l -0.024,0.06 -3.7303,0.0333 c 1.0856,-0.0725 2.1705,-0.14447 3.2545,-0.22835 l -0.113,-0.0905 h 0.053 c -0.2288,-0.18508 -0.457,-0.37282 -0.6852,-0.55258 l -0.027,-0.0265 -0.024,-0.0266 c -0.2424,-0.39411 -0.4831,-0.76847 -0.7249,-1.15101 -30.72061,-28.97181 -81.4807,-11.03131 -129.91943,2.37 23.61297,-2.20236 50.14553,-0.66376 77.45796,0.13647 l 50.69537,-0.43074 c -2.90151,0.19373 -5.80803,0.3502 -8.71832,0.47069 l 12.03162,-0.0532 -0.1893,0.15378 135.3626,0.57054 h 0.024 0.171 0.024 l 0.024,-0.23901 h 0.047 l 0.088,-0.37814 c -0.042,-0.0199 -0.088,-0.0333 -0.1279,-0.0532 v -0.0666 c -0.068,-0.006 -0.1355,-0.0133 -0.2054,-0.0199 v -0.005 l 35.5731,-142.93457 -0.024,-0.003 v -0.003 c -16.0823,-4.24688 -31.321,-12.38358 -46.2455,-19.53571 -14.9249,-7.15213 -29.5456,-13.3262 -44.4156,-13.60589 v 0 0 c -11.4092,0.0946 -21.7373,3.99989 -30.7469,13.76314 -3.8113,4.12998 -7.3886,9.3047 -10.7227,15.68409 -0.4256,0.65643 -0.8523,1.33142 -1.2789,2.02514 -0.2648,0.2117 -0.5155,0.44339 -0.7661,0.66108 -0.3432,-0.28161 -0.686,-0.55458 -1.0274,-0.82365 -0.4261,-0.69306 -0.8546,-1.37032 -1.2795,-2.02642 v -0.0199 c -11.2018,-21.43967 -25.2253,-29.29183 -41.4539,-29.42645 z m -46.58236,176.2922 -50.33327,0.42674 57.47258,-0.24033 c -2.3869,-0.0532 -4.76296,-0.11719 -7.13931,-0.18641 z m 7.13931,0.18641 c 11.55952,0.26629 23.22266,0.33486 34.83866,-0.14646 z m -57.47258,0.24033 -29.60077,0.12522 c -0.15646,0.0401 -0.31415,0.0878 -0.4705,0.13116 z M 998.40534,762.9751 c 16.09116,0.13314 29.91986,7.84923 41.09126,29.22266 v 0.008 0.008 c 0.433,0.66761 0.8663,1.35305 1.3,2.06009 l 0.024,0.0333 0.027,0.0199 c 0.2289,0.17976 0.4574,0.36616 0.6858,0.55125 h -0.053 l 0.3529,0.28894 -0.1145,-0.0266 -0.1024,0.41809 c 0.134,0.0401 0.2681,0.0779 0.4019,0.1205 l 0.065,-0.26031 0.038,0.0333 0.14,-0.1131 c 0.026,-0.0199 0.05,-0.0401 0.076,-0.0666 h 0.328 l -0.1676,-0.13982 c 0.2549,-0.22302 0.5095,-0.45603 0.7513,-0.64643 l 0.027,-0.0265 0.024,-0.0266 c 0.4337,-0.70489 0.8655,-1.39174 1.2975,-2.05816 v -0.008 -0.008 c 3.3208,-6.35422 6.8812,-11.50352 10.6638,-15.60252 8.9404,-9.68817 19.1182,-13.52813 30.4242,-13.6234 14.7513,0.27762 29.3196,6.41548 44.2326,13.56188 14.8,7.09235 29.943,15.16827 45.9582,19.45935 l -35.4633,142.5011 c -34.4421,-14.29361 -65.2839,-32.8932 -90.7279,-32.68223 -16.2345,0.13448 -30.2548,7.99023 -41.4698,29.44915 -0.4247,0.65576 -0.8495,1.33136 -1.2753,2.02382 -0.084,0.0673 -0.1709,0.13713 -0.2567,0.20504 l 18.344,-73.71146 c -0.1295,-0.0532 17.2448,-67.6858 17.1157,-67.74439 l -36.0016,141.88979 c -0.3334,-0.27296 -0.6666,-0.54126 -0.9982,-0.80296 -0.4267,-0.69378 -0.8533,-1.36838 -1.279,-2.02509 v -0.0133 c -11.21213,-21.4436 -25.22812,-29.29376 -41.45755,-29.42838 -25.35358,-0.21037 -56.06977,18.25115 -90.36543,32.52431 l 35.38737,-142.18081 c 0.0239,-0.005 0.0393,-0.008 0.0616,-0.0133 l 0.16587,-0.0333 v -0.37815 l -0.0941,0.0133 c 34.60401,-14.32564 65.55637,-32.98061 90.85032,-32.77083 z m 51.28986,143.39846 c 25.1822,-0.20905 55.9881,18.2735 90.4043,32.5735 l -0.4169,-0.003 v 0.0333 c 0.2077,0.0532 0.4139,0.11387 0.6207,0.1691 l -0.024,0.0665 -0.2786,-0.003 0.2673,0.0532 -0.024,0.0733 -133.0314,-1.01512 0.024,-0.0333 -0.432,-0.003 -0.024,-0.0133 133.2187,0.94723 -1.4574,-0.27497 c 0.3787,0.0401 0.7517,0.0745 1.1232,0.1131 v -0.0693 c -44.1375,-11.81616 -89.8889,-35.60227 -132.2514,-1.51725 -0.045,0.0719 -0.089,0.13915 -0.134,0.21172 l -0.024,0.0333 -0.027,0.0199 c -0.1888,0.14847 -0.3787,0.30426 -0.5681,0.4567 l 0.1009,0.0779 h -0.2402 l 0.027,-0.10991 c 0.2863,-0.23567 0.5728,-0.46202 0.8595,-0.69231 0.3885,-0.62979 0.7768,-1.24868 1.1642,-1.84659 v -0.008 -0.006 c 11.1729,-21.37648 25.0027,-29.0949 41.095,-29.22845 z"
           sodipodi:nodetypes="ccccccccccccccccccccccccccccccccccccccccccccccccccccccccccccscscccccccccccccccccccccccccccccccccccccccccccccccsccccccccccccsccccccccccccccccccccccccccccccccccccccc" />
      </g>
    </g>
    <ellipse
       style="fill:#ffffff;fill-opacity:1;fill-rule:evenodd;stroke:#47b147;stroke-width:0.687001;stroke-linecap:round;stroke-linejoin:round;paint-order:markers stroke fill"
       id="path11196"
       cx="30.738161"
       cy="149.64819"
       rx="2.1767879"
       ry="3.3489046" />
  </g>
</svg>
